<svg xmlns="http://www.w3.org/2000/svg" width="37.676" height="36.469" viewBox="0 0 37.676 36.469"><defs><style>.a{fill:#d81f26;}</style></defs><g transform="translate(0 -4.564)"><g transform="translate(0 4.564)"><path class="a" d="M17.97,26.159a1.188,1.188,0,0,0,1.736,0L37.3,8.566a1.19,1.19,0,0,0,0-1.737L35.413,4.941a1.188,1.188,0,0,0-1.737,0L18.838,19.778,4,4.941a1.188,1.188,0,0,0-1.737,0L.378,6.829a1.187,1.187,0,0,0,0,1.737Z" transform="translate(0 -4.564)"/><path class="a" d="M35.413,114.575a1.188,1.188,0,0,0-1.737,0L18.838,129.412,4,114.574a1.188,1.188,0,0,0-1.737,0L.378,116.462a1.187,1.187,0,0,0,0,1.737L17.97,135.792a1.187,1.187,0,0,0,1.736,0L37.3,118.2a1.189,1.189,0,0,0,0-1.736Z" transform="translate(0 -99.7)"/></g></g></svg>