<svg xmlns="http://www.w3.org/2000/svg" width="202.981" height="246.108" viewBox="0 0 202.981 246.108"><defs><style>.a{fill:#fff;}.b{fill:#d9d1f2;}.c{fill:#ac8fe5;}.d{fill:#e0665c;}.e{fill:#fabc8b;}.f{fill:#4e2f7f;}.g{fill:#ce8451;}.h{fill:#e89997;}.i{fill:#eaa373;}.j{fill:none;}.k{fill:#010000;}.l{fill:#f2e7c2;}.m{fill:#e0cb96;}.n{fill:#260d56;}</style></defs><g transform="translate(18.689 0)"><g transform="translate(0 0)"><rect class="a" width="184.292" height="142.138" rx="9.667" transform="translate(0 6.689)"/><g transform="translate(27.663 25.475)"><rect class="b" width="89.677" height="2.487" transform="translate(55.543 49.588)"/><rect class="b" width="11.834" height="45.703" transform="translate(133.018)"/><rect class="b" width="11.834" height="39.362" transform="translate(117.469 6.341)"/><rect class="b" width="11.834" height="31.847" transform="translate(101.499 13.856)"/><rect class="b" width="11.834" height="27.15" transform="translate(84.458 18.554)"/><rect class="b" width="24.073" height="2.187" transform="translate(55.543 41.171)"/><rect class="b" width="24.073" height="2.187" transform="translate(55.543 35.52)"/><rect class="b" width="24.073" height="2.187" transform="translate(55.543 29.496)"/><path class="b" d="M431.912,259.665a.349.349,0,0,1,.255-.177.343.343,0,0,1,.3.094l15.59,14.9,17.753-19.767a.352.352,0,0,1,.26-.117h0a.353.353,0,0,1,.26.114l13.132,14.275,30.976-25.222-5.7-.91a.352.352,0,0,1,.112-.7l6.479,1.034c.008,0,.012.008.018.009a.336.336,0,0,1,.14.067c.012.01.022.018.033.029a.351.351,0,0,1,.093.151h0v.005a.353.353,0,0,1,.01.13l-.809,6.566a.353.353,0,0,1-.349.309.323.323,0,0,1-.044,0,.352.352,0,0,1-.306-.393l.7-5.7-31.165,25.376a.353.353,0,0,1-.481-.035l-13.095-14.234-17.737,19.749a.353.353,0,0,1-.249.117.368.368,0,0,1-.256-.1L432.305,260.4l-11.4,20.442a.353.353,0,0,1-.308.181.347.347,0,0,1-.171-.045.351.351,0,0,1-.136-.478Z" transform="translate(-369.983 -167.691)"/><rect class="b" width="0.47" height="25.965" transform="translate(77.502 63.62)"/><rect class="b" width="0.47" height="25.965" transform="translate(109.912 63.62)"/><rect class="b" width="40.026" height="3.523" transform="translate(0 1.084)"/></g><rect class="c" width="184.292" height="12.932" rx="6.466" transform="translate(0 6.689)"/><rect class="d" width="57.495" height="8.695" rx="4.348" transform="translate(63.398)"/></g></g><g transform="translate(0 33.444)"><g transform="translate(0 0)"><g transform="translate(16.646 187.734)"><g transform="translate(20.29)"><path class="e" d="M633.867,438.688s-3-2.258-3.446-4.433,1.723-15.217,1.723-15.217h-8.69l-.446,9.208s-2.676,3.612.112,6.957S633.8,443.455,633.867,438.688Z" transform="translate(-621 -419.038)"/><path class="f" d="M617.825,432.472s-2.089,1.671-2,3.341,1.587,3.592,2,5.681.752,6.516.752,6.516h1.169l.417-5.43s1.337,5.43,4.511,5.43,9.356,1,7.936-1.671a7.265,7.265,0,0,0-3.927-3.425s-3.759,2.507-6.432-1.838S616.99,434.477,617.825,432.472Z" transform="translate(-615.818 -423.264)"/><path class="g" d="M625.877,431.391l8.1-2.356-8.025.815Z" transform="translate(-623.87 -422.183)"/></g><path class="e" d="M663.469,438.688s-3-2.258-3.446-4.433,1.723-15.217,1.723-15.217h-8.69l-.446,9.208s-2.675,3.612.112,6.957S663.4,443.455,663.469,438.688Z" transform="translate(-650.602 -419.038)"/><path class="f" d="M647.428,432.472s-2.088,1.671-2,3.341,1.587,3.592,2,5.681.752,6.516.752,6.516h1.169l.417-5.43s1.337,5.43,4.511,5.43,9.356,1,7.936-1.671a7.266,7.266,0,0,0-3.926-3.425s-3.76,2.507-6.433-1.838S646.592,434.477,647.428,432.472Z" transform="translate(-645.421 -423.264)"/><path class="g" d="M663.6,430.1l-7.934.656.067-1.39Z" transform="translate(-653.626 -422.288)"/></g><g transform="translate(10.962 101.566)"><path class="f" d="M614.239,293.322l3.1,54.285-5.017,38.238,22.686,2.118-1-42.03-.494-36.286,1.253,31.507,2.089,46.362L657.7,385.4l-6.577-38.628,1.646-53.449Z" transform="translate(-612.323 -293.322)"/></g><g transform="translate(9.066)"><path class="h" d="M657.749,171.59c-1.325,1.1-.753,3.975,1.279,6.422,1.775,2.138,4.075,3.241,5.512,2.751a1.763,1.763,0,0,0,.565-.313c.042-.036.078-.077.117-.117,1.155-1.164.578-3.893-1.351-6.248l-.045-.057a9.542,9.542,0,0,0-2.355-2.067C660.024,171.084,658.6,170.885,657.749,171.59Z" transform="translate(-649.193 -153.327)"/><g transform="translate(12.232 26.395)"><path class="i" d="M650.15,190.126s-.64,5.5,2.642,8.745,2.74,20.2-3.54,17.4S635.889,194,635.889,194s3.813-4.814,4.025-8.9S650.507,186.461,650.15,190.126Z" transform="translate(-635.889 -183.65)"/><path class="g" d="M642.621,187.983a10.217,10.217,0,0,0,.637-2.879c.212-4.084,10.593,1.357,10.235,5.022C653.494,190.126,648.939,191.7,642.621,187.983Z" transform="translate(-639.233 -183.65)"/></g><path class="e" d="M653.035,164a23.038,23.038,0,0,0,.543,6.679c.821,2.9-1.663,8.125-4.255,9.976s-8.869-.231-11.339-2.084-4.82-7.2-5.317-9.7,1.72-13.113,9.09-13.071S653.3,157.589,653.035,164Z" transform="translate(-620.369 -148.492)"/><path class="j" d="M653.578,173a20.654,20.654,0,0,1-.585-5.459h0s-1.526-.919-2.189-4.348c0,0-9.81,5.017-8.25,2.006,0,0-7.358,5.351-7.023,2.119l-2.883,2.134h0a6.55,6.55,0,0,0,.02,1.738,23.429,23.429,0,0,0,3.878,8.236l0-.023c.036-.247.064-.493.076-.736.119-2.3,3.456-1.581,6.289.138.315.191.623.394.921.607a10.266,10.266,0,0,1,2.232,2.1,4.629,4.629,0,0,1,.629,1.106,2.915,2.915,0,0,1,.112.363,2.344,2.344,0,0,1,.056.357,1.989,1.989,0,0,1,0,.343,4.555,4.555,0,0,0,2.462-.708C651.915,181.128,654.4,175.907,653.578,173Z" transform="translate(-620.369 -150.82)"/><path class="k" d="M656.514,162.976c.223-8.7-4.348-17.835-14.224-17.835s-12.309,7.358-13.831,15.273-7.843,14.525-7.843,14.525a10.687,10.687,0,0,0,8.281,5.806c3.3-1.463,6.357-2.709,6.393-2.723a18.394,18.394,0,0,0,.946-2.153h0c.084-.234.162-.47.233-.707.007-.023.012-.046.019-.069.063-.214.121-.428.17-.643.02-.084.033-.169.05-.254.031-.149.062-.3.085-.448-.284-.361-.561-.757-.829-1.172-1.437.489-3.738-.613-5.512-2.751-2.032-2.447-2.6-5.322-1.279-6.422a2.77,2.77,0,0,1,2.871-.06c.016.1,1.184,7.552,3.093,8.008,0,0-2.245-6.24-.725-8.7l1.366-1.012c-.335,3.232,7.023-2.119,7.023-2.119-1.561,3.01,8.25-2.006,8.25-2.006.664,3.429,2.189,4.348,2.189,4.348h0a20.646,20.646,0,0,0,.585,5.459c.82,2.9-1.663,8.125-4.255,9.976a4.555,4.555,0,0,1-2.462.708v0s-.038.337-.048.888c0,0,6.493,1.942,10.755,3.607,3.936-2.026,4.384-5.26,4.384-5.26C659.19,176.69,656.291,171.674,656.514,162.976Z" transform="translate(-620.617 -145.141)"/></g><g transform="translate(0 32.88)"><g transform="translate(74.35 20.934)"><path class="e" d="M550.942,232.108s2.915-4.462,4.354-5.437,2.844-.437,4.289-1.093,2.713-1.712,5.612-1.491,3.991.583,5.574-.086,2.069-.306,1.574.512a7.03,7.03,0,0,1-2.522,1.645s3.152-1.24,2.809-.292c-.38,1.052-3.154,3.342-3.154,3.342a28.351,28.351,0,0,0,2.62-1.155c1.486-.742,3.211-1.743,2.853-.51s-1.18,1.327-2.981,2.287-3.927,1.672-5.029,1.385c0,0-1.7,1.033-2.352.513,0,0-1.491.528-2.2.032a3.523,3.523,0,0,1-2.121-.747s-1.359-.41-1.865-.123-3.36,5.119-3.36,5.119Z" transform="translate(-550.942 -223.653)"/><g transform="translate(3.487 2.213)"><path class="d" d="M561.461,231.674l-2.537,2.007a.066.066,0,0,0-.011.094.067.067,0,0,0,.076.022.077.077,0,0,0,.019-.01l2.537-2.007a.068.068,0,0,0,.011-.095A.067.067,0,0,0,561.461,231.674Z" transform="translate(-546.455 -228.385)"/><path class="d" d="M566.591,227.066a2.608,2.608,0,0,0-2.6.47,1.191,1.191,0,0,0-.956-.508c-.6,0-1.656.459-3.271,2.653a2.694,2.694,0,0,1-1.536.82.069.069,0,0,0-.056.077.068.068,0,0,0,.077.056,3.293,3.293,0,0,0,.543-.145,2.283,2.283,0,0,0,1.081-.728c1.583-2.15,2.594-2.6,3.163-2.6a1.062,1.062,0,0,1,.847.452,14.738,14.738,0,0,0-2.2,2.575c-.3.4-.552.748-.727.947a13.46,13.46,0,0,1-1.968,1.583.067.067,0,0,0,.075.112,13.272,13.272,0,0,0,1.994-1.607c.179-.2.437-.552.735-.956a13.983,13.983,0,0,1,2.229-2.588,2.55,2.55,0,0,1,2.512-.5.034.034,0,0,1,.018.031c.057.536-3.178,3.571-5.367,5.48a.067.067,0,0,0,.066.114.064.064,0,0,0,.022-.012c.563-.491,5.495-4.817,5.412-5.6A.164.164,0,0,0,566.591,227.066Z" transform="translate(-551.062 -226.882)"/><path class="d" d="M578.924,233.5c-1.4.278-4.034-1.082-4.061-1.1a.067.067,0,1,0-.062.119c.109.058,2.7,1.4,4.149,1.108l.01,0a.067.067,0,0,0-.036-.129Z" transform="translate(-574.764 -228.618)"/><path class="d" d="M573.423,230.216a.067.067,0,0,0,.084.036h.005a.068.068,0,0,0,.034-.089.952.952,0,0,0-.94-.479,8.525,8.525,0,0,0-2.65-2.145.068.068,0,0,0-.092.027.067.067,0,0,0,.027.091,8.391,8.391,0,0,1,2.618,2.128.066.066,0,0,0,.067.035C572.582,229.818,573.215,229.753,573.423,230.216Z" transform="translate(-565.947 -227.086)"/></g></g><path class="l" d="M593.642,193.111s-11.006,4.478-13.828,6.454-9.915,43.292-9.915,45.41,4.834,8.356,7.374,7.65a39.617,39.617,0,0,1,5.5-1.019l-1.215,8.775A1.245,1.245,0,0,0,582.8,261.8h39.146a1.246,1.246,0,0,0,1.242-1.334l-1.6-22.426s4.922,10.858,8.168,9.446S655.311,223.7,655.311,223.7l-8.834-6.993-16.231,11.01s-8.945-26.877-10.638-28.43-14.2-5.292-14.2-5.292-.688,10.8-1.041,11.572S593.642,193.111,593.642,193.111Z" transform="translate(-569.899 -193.111)"/><g transform="translate(8.286 0.001)"><path class="m" d="M663.139,237.1l.028-25.822-3.121,27.912-3.01,5.435,17.4-12.856Z" transform="translate(-657.036 -198.827)"/><path class="m" d="M614.9,209.549l3.712,33.66,2.881,5.274Z" transform="translate(-575.215 -198.283)"/><path class="m" d="M639.594,270.029l-.906,6.546,3-6.283,14.883-16.053,8.405-2.564-9.411,1.4Z" transform="translate(-635.002 -211.535)"/><path class="m" d="M644.6,193.113s-3.472,19.373,10.73,12.45C655.327,205.563,645.614,197.956,644.6,193.113Z" transform="translate(-629.144 -193.113)"/><path class="m" d="M638.318,205.966s8.366,2.287,1.041-11.572C639.36,194.394,640.812,203.359,638.318,205.966Z" transform="translate(-612.135 -193.516)"/></g><g transform="translate(23.131 0.001)"><path class="a" d="M655.561,205.563l-10.73-12.45C641.125,209.256,655.561,205.563,655.561,205.563Z" transform="translate(-644.223 -193.113)"/><path class="a" d="M638.533,194.394l-1.041,11.572S647.139,205.856,638.533,194.394Z" transform="translate(-626.153 -193.516)"/></g><path class="e" d="M639.329,238.947a20.117,20.117,0,0,0,5.814-3.283c2.98-2.426-6.251,1.314-9.468,2.685s-2.833-1.077-1.982-2.807,2.13-4.328-2.4.079a14.247,14.247,0,0,0-2.431,3.04l3.165,8.6c4.2.866,10.067-1.448,11.743-2.522,2.47-1.584-3.237-.922-3.237-.922s5.305-2.369,6.8-3.828c1.2-1.169-4.244.219-6.455.818a21.061,21.061,0,0,0,6.836-3.289C650.356,235.338,640.855,238.44,639.329,238.947Z" transform="translate(-603.175 -205.719)"/></g><g transform="translate(10.961 101.566)"><path class="n" d="M623.277,295.26c0,.007,0,.013,0,.02.75,6.418-3.143,9.024-3.309,9.132a.335.335,0,0,0,.363.563c.18-.117,4.4-2.919,3.612-9.751l34.083-1.9H619.517l.1,2.141Z" transform="translate(-617.582 -293.322)"/><path class="n" d="M671.826,362.01l-5.017,38.238,8.027-38.74-4.318-22.4Z" transform="translate(-666.809 -307.725)"/></g></g></g></svg>