<svg xmlns="http://www.w3.org/2000/svg" width="169.053" height="170.716" viewBox="0 0 169.053 170.716"><defs><style>.a{fill:#cae1f9;}.b{fill:#9bc1f9;opacity:0.2;}.c{fill:#3c8f7c;}.d{fill:#50bfa5;}.e{fill:#96d9c9;}.f{fill:#256653;}.g{fill:#327f6b;}.h{fill:#b75742;}.i{fill:#f47458;}.j{fill:#fcf5eb;}.k{fill:#184655;}.l{fill:#12353d;}.m{fill:#f7a491;}.n{fill:#f7cc7f;}.o{fill:#e25a44;}.p{fill:#355389;}.q{fill:#466eb6;}.r{fill:#fff;}.s{fill:#f79c8d;}.t{fill:#f48c7f;}.u{fill:#3cb4c5;}.v{fill:#f8a492;}.w{fill:#fe875e;}.x{fill:#13375b;}.y{fill:#0e2e35;}.z{fill:#eab765;}</style></defs><g transform="translate(-96.594 -98.707)"><g transform="translate(96.594 98.707)"><path class="a" d="M401.476,299.072c-1.253-.833-2.536-1.623-3.771-2.481a1.09,1.09,0,0,1-.4-.83c.15-1.736.4-3.464.538-5.2a.922.922,0,0,1,.637-.964c1.7-.679,3.388-1.4,5.078-2.114.274-.115.544-.24,1.017-.449l-2.483-7.8c-2.18.448-4.168.823-6.137,1.279a1.208,1.208,0,0,1-1.526-.559c-.924-1.312-2.03-2.494-3.023-3.758a.988.988,0,0,1-.134-.815c.659-1.74,1.315-3.483,2.078-5.179a1.049,1.049,0,0,0-.551-1.621,5.072,5.072,0,0,1-.761-.586l-3.776-2a2.575,2.575,0,0,1-.472-.095c-1.534-.616-1.239-.6-2.1.678-1.048,1.563-2.07,3.144-2.967,4.51l-6.8-.59-2.7-6.42a26.134,26.134,0,0,0-7.772,2.474c.445,2.143.873,4.234,1.317,6.322a.723.723,0,0,1-.308.879c-1.432,1.086-2.839,2.211-4.193,3.393a.851.851,0,0,1-1.066.169c-1.746-.72-3.508-1.4-5.257-2.113a.732.732,0,0,0-1.033.264,23.3,23.3,0,0,0-3.183,6.272c-.156.441.057.631.391.844,1.545.989,3.066,2.016,4.617,2.995a.919.919,0,0,1,.5,1.1c-.294,1.989-.472,4-.712,6.157l-6.161,2.586a24.359,24.359,0,0,0,2.421,7.884l6.668-1.417c1.3,1.473,2.464,2.874,3.719,4.193a1.168,1.168,0,0,1,.289,1.5c-.722,1.656-1.38,3.339-2.047,5.019-.132.332-.393.719.126.988q3.164,1.643,6.327,3.288c.448.233.729.08,1-.342,1-1.573,2.06-3.1,3.029-4.691.374-.613.78-.639,1.414-.558a42.812,42.812,0,0,0,4.72.395,1.027,1.027,0,0,1,1.162.789c.75,1.935,1.575,3.841,2.355,5.718a23.355,23.355,0,0,0,7.9-2.517c-.446-2.062-.876-4.153-1.365-6.229a.886.886,0,0,1,.427-1.06c1.277-1.019,2.483-2.128,3.75-3.16a1.079,1.079,0,0,1,.893-.177c1.559.6,3.1,1.251,4.634,1.9.859.365,1.2.515,1.532.292l3.545-6.7C402.864,300,402.49,299.746,401.476,299.072ZM388.12,296.82a12.268,12.268,0,0,1-16.581,5.107h0a12.268,12.268,0,0,1-5.107-16.581h0a12.268,12.268,0,0,1,16.581-5.107h0a12.268,12.268,0,0,1,5.107,16.581Z" transform="translate(-329.403 -250.426)"/><path class="b" d="M1369.364,441.416c-.46-.306-.931-.6-1.384-.911a.4.4,0,0,1-.148-.3c.055-.637.147-1.272.2-1.909a.339.339,0,0,1,.234-.354c.625-.249,1.244-.515,1.864-.776.1-.042.2-.088.373-.165l-.912-2.862c-.8.164-1.53.3-2.253.47a.444.444,0,0,1-.56-.205c-.339-.481-.745-.915-1.11-1.38a.363.363,0,0,1-.049-.3c.242-.639.483-1.279.763-1.9a.385.385,0,0,0-.2-.595,1.862,1.862,0,0,1-.28-.215l-1.386-.733a.941.941,0,0,1-.173-.035c-.563-.226-.455-.222-.771.249-.385.574-.76,1.154-1.089,1.656l-2.5-.216-.99-2.357a9.6,9.6,0,0,0-2.853.908c.163.787.32,1.554.483,2.32a.266.266,0,0,1-.113.323c-.526.4-1.042.812-1.539,1.245a.312.312,0,0,1-.391.062c-.641-.264-1.288-.514-1.93-.776a.269.269,0,0,0-.379.1,8.551,8.551,0,0,0-1.168,2.3c-.057.162.021.231.143.31.567.363,1.125.74,1.695,1.1a.337.337,0,0,1,.183.4c-.108.73-.173,1.467-.261,2.26l-2.261.949a8.944,8.944,0,0,0,.889,2.894l2.448-.52c.476.541.9,1.055,1.365,1.539a.429.429,0,0,1,.106.55c-.265.608-.507,1.226-.751,1.842-.048.122-.144.264.046.363l2.323,1.207c.165.085.268.03.366-.126.365-.577.756-1.139,1.112-1.722.137-.225.286-.235.519-.2a15.726,15.726,0,0,0,1.733.145.377.377,0,0,1,.427.289c.275.71.578,1.41.864,2.1a8.575,8.575,0,0,0,2.9-.924c-.164-.757-.322-1.524-.5-2.287a.325.325,0,0,1,.157-.389c.469-.374.911-.781,1.377-1.16a.4.4,0,0,1,.328-.065c.572.219,1.137.459,1.7.7.315.134.442.189.563.107l1.3-2.46C1369.874,441.757,1369.736,441.664,1369.364,441.416Zm-4.9-.826a4.5,4.5,0,0,1-6.087,1.875h0a4.5,4.5,0,0,1-1.875-6.087h0a4.5,4.5,0,0,1,6.087-1.874h0a4.5,4.5,0,0,1,1.874,6.087Z" transform="translate(-1247.031 -401.329)"/><g transform="translate(7.836 69.528)"><path class="c" d="M226.319,996.33s-23.533-11.6-27.581-17.656,1.9-6.395,1.9-6.395-10.5-10.214-9.024-14.513,6.918-.356,6.918-.356-6.753-15.032-3.569-16.543c5.931-2.815,14.25,13.359,14.25,13.359s-1.788-7.026,2.3-6.8c6.159.344,5.9,16.237,5.9,16.237s.7-6.094,4.408-4.114C228.484,963.1,226.319,996.33,226.319,996.33Z" transform="translate(-191.474 -940.538)"/><path class="d" d="M261.947,957.093c-2.9-1.608-5.786,3.093-5.786,3.093s.292-12.413-5.866-12.758c-4.084-.228-2.3,6.8-2.3,6.8s-8.32-16.173-14.25-13.359l31.381,55.2C265.352,992.217,267.689,960.28,261.947,957.093Z" transform="translate(-230.257 -940.538)"/></g><g transform="translate(0 98.894)"><g transform="translate(0 1.81)"><path class="c" d="M138.667,1342.782s-19.247,2.39-24.231.26-1.412-4.762-1.412-4.762-10.7-2.1-11.526-5.386,4.111-3.021,4.111-3.021-10.261-6.645-8.889-8.881c2.555-4.165,14.316,2.542,14.316,2.542s-3.97-3.656-1.33-5.173c3.981-2.288,10.281,7.729,10.281,7.729s-.391-2.469,2.728-2.743C128.313,1322.857,138.667,1342.782,138.667,1342.782Z" transform="translate(-96.594 -1318.023)"/></g><path class="d" d="M124.245,1301.451c-3.12.274-2.855,4.536-2.855,4.536s-6.413-11.873-10.395-9.586c-2.64,1.517.483,6.5.483,6.5s-10.8-6.177-13.356-2.011l42.005,21.682C138.7,1320.077,129.473,1300.992,124.245,1301.451Z" transform="translate(-97.997 -1296.109)"/></g><path class="d" d="M1820.462,1224.928l1.034-2.5a3.529,3.529,0,0,1,4.584-1.96h0a8.893,8.893,0,0,1,4.233,11.83l-1.478,3.385a4.251,4.251,0,0,0,.451,4.265,3.754,3.754,0,0,1,.373,3.757l-.779,1.785a7.1,7.1,0,0,1-4.431,3.954,4.305,4.305,0,0,0-2.675,2.418l-1.1,2.527a5.365,5.365,0,0,1-6.971,2.98l-1.5-.655a5.365,5.365,0,0,1-2.554-7.138h0c1.972-3.341,1.815-5.834,1.116-7.525a10.117,10.117,0,0,1,.1-7.894l.156-.357a10.046,10.046,0,0,1,6.137-5.554A5.478,5.478,0,0,0,1820.462,1224.928Z" transform="translate(-1667.715 -1127.573)"/><path class="e" d="M292.61,1483.618c-2.794-3.622-18.113-23.027-28.1-26.261-11.026-3.569-.634,10.608-.634,10.608s-19.56-21.389-26.738-19.46c-6.58,1.768,0,15.025,0,15.025s-7.411-7.341-16.4-7.341c-8.746,0,6.111,26.036,6.912,27.43Z" transform="translate(-207.963 -1336.91)"/><g transform="translate(135.281 61.732)"><path class="f" d="M1820.742,934.4a48.311,48.311,0,0,1-4.48,5.069c-1.66,1.429-3.243,2.8-5.36,7.341s-2.056,5.065-2.618,6.236-3.516,5.755-3.739,6.669-5.046,5.3-6.538,7.524-3.941,5.337-4.263,7.136l.436-.009a19.627,19.627,0,0,1,5.125-7.589c3.826-3.524,3.6-4.409,7.341-5.807s7.213-6.853,7.213-6.853,4.8-5.688,5.423-9.078S1821.487,938.822,1820.742,934.4Z" transform="translate(-1788.856 -927.109)"/><path class="f" d="M1809.819,846.151a12.337,12.337,0,0,1-1.965,4.042c-1.234,1.39-2.2,2.183-2.759,3.867s-2.131,5.995-5.043,7.6-4.729,8.024-7.018,9.561-2.857,2.892-3.3,6.338-.38,8.379-4.455,13.852l-.249-1.655s3.068-4.568,3.289-7.609-.35-7.847.731-9.837-1-2.912,1.058-5.823,1.781-4.153,4.216-6.518c0,0,.214-.088,1.231-2.331s5.81-5.674,7.9-6.739S1808.605,848.062,1809.819,846.151Z" transform="translate(-1780.86 -846.151)"/><path class="c" d="M1799.076,986.628s-2.924,3.094-3.49,5.392-.752,4.23-2.544,7.14-.156,5.393-1.166,7a16.812,16.812,0,0,0-1.882,5.223c-.345,1.569-3.963,6.185-4.94,8.721s-.51,2.654-.51,2.654a23.439,23.439,0,0,1,2.027-4.383,59.628,59.628,0,0,0,4.177-6c.75-1.435,2.047-2.166,3.571-4.537s3.342-4.243,4.095-7.935S1801.542,992.673,1799.076,986.628Z" transform="translate(-1780.313 -975.026)"/><path class="c" d="M1805.8,1252.924s2.032-4.318,6.25-3.815,6.445,1.877,10.122-.767,6.59-7.521,7.729-8.212c0,0-1.285-1.09-4.239.614s-5.059,3.029-6.772,4.023-2.653-.132-4.338.394a15.013,15.013,0,0,0-4.476,3.117,5.132,5.132,0,0,1-1.043.787c-.346.2-.76.44-1.033.627a27.7,27.7,0,0,0-2.521,3.174Z" transform="translate(-1799.62 -1207.276)"/><path class="c" d="M1739.48,1105.571s2.742-5.22,2.4-8.166-2.91-5.665-2.39-7.344,3.544-5.844,2.753-9.651c0,0-1.317,2.926-2.072,3.469s-5.487,2.342-5.606,6.144,3.662,5.576,4.393,6.873,2.054,1.6,1.9,2.317a28.2,28.2,0,0,1-1.533,5.808Z" transform="translate(-1734.565 -1061.062)"/><path class="g" d="M1787.681,1016.184l3.4-5.392s2.293-4.439,3.9-8.212,4.1-15.952,4.1-15.952-2.924,3.094-3.49,5.392-.752,4.23-2.544,7.14-.156,5.393-1.166,7a16.815,16.815,0,0,0-1.883,5.223c-.345,1.569-3.963,6.185-4.94,8.721a6.66,6.66,0,0,0-.619,2.368C1784.644,1020.1,1787.681,1016.184,1787.681,1016.184Z" transform="translate(-1780.316 -975.026)"/><path class="g" d="M1817.827,1251.089c-1.9-.06-3.5-.561-6.026.542a18.527,18.527,0,0,0-4.2,2.523s-1.372,1.507-1.985,2.327l-.143.2.322.058s2.032-4.318,6.25-3.815,6.445,1.877,10.122-.767,6.59-7.52,7.729-8.212a47.752,47.752,0,0,0-6.053,3.369C1821.442,1249,1819.728,1251.148,1817.827,1251.089Z" transform="translate(-1799.62 -1211.092)"/><path class="g" d="M1740.174,1083.879c-.755.543-5.487,2.342-5.606,6.144s3.662,5.576,4.393,6.873,2.054,1.6,1.9,2.317a28.208,28.208,0,0,1-1.533,5.808l.068.24a33.447,33.447,0,0,0,1.462-3.522,7.689,7.689,0,0,0,.221-4.332c-.249-1.655-3.266-5.608-3.824-7.448s2.812-3.914,3.725-5.082,1.27-4.467,1.27-4.467S1740.929,1083.336,1740.174,1083.879Z" transform="translate(-1734.565 -1061.062)"/></g><path class="e" d="M1189.887,1483.618c2.794-3.622,18.113-23.027,28.1-26.261,11.026-3.569.634,10.608.634,10.608s19.56-21.389,26.738-19.46c6.58,1.768,0,15.025,0,15.025s7.411-7.341,16.4-7.341c8.747,0-6.111,26.036-6.912,27.43Z" transform="translate(-1099.591 -1336.91)"/><g transform="translate(5.093 95.091)"><g transform="translate(3.134 18.352)"><path class="f" d="M229.124,1505.411a161.061,161.061,0,0,0-32.7-33.13c-.129-.1-.3.127-.173.227a160.894,160.894,0,0,1,32.192,33.085Z" transform="translate(-196.207 -1472.257)"/></g><path class="f" d="M257.9,1574.383a5.679,5.679,0,0,1,2.1-1.266,4.386,4.386,0,0,1,2.17-.082,4.732,4.732,0,0,0-2.125-1.173,4.64,4.64,0,0,0-3.556.441c-1.284.869-1.386,2.345-.75,2.618C256.373,1575.212,257.218,1574.81,257.9,1574.383Z" transform="translate(-247.34 -1545.135)"/><path class="f" d="M194.235,1518.3a5.683,5.683,0,0,1,2.1-1.266,4.378,4.378,0,0,1,2.17-.082,4.73,4.73,0,0,0-2.125-1.173,4.638,4.638,0,0,0-3.556.441c-1.284.869-1.386,2.344-.75,2.618C192.71,1519.126,193.555,1518.725,194.235,1518.3Z" transform="translate(-188.935 -1493.682)"/><path class="f" d="M358.832,1552.174a4.042,4.042,0,0,0-1.732,1.32,3.087,3.087,0,0,0-.486,1.851,5.117,5.117,0,0,1-.855-2.313,3.145,3.145,0,0,1,1.122-2.91c1.159-.767,2.745-.266,2.919.4C359.993,1551.182,359.411,1551.755,358.832,1552.174Z" transform="translate(-339.425 -1524.984)"/><g transform="translate(11.177)"><g transform="translate(2.812 3.367)"><path class="f" d="M334.41,1298.091a128.9,128.9,0,0,1,17.159,41.077l.548-.147a129.715,129.715,0,0,0-17.093-40.73c-1.854-2.9-3.857-6.335-7.328-7.466-.067-.022-.092.08-.028.1C330.838,1292.124,332.675,1295.382,334.41,1298.091Z" transform="translate(-327.63 -1290.822)"/></g><path class="f" d="M371.27,1256.974a5.683,5.683,0,0,0-1.225,2.128,4.383,4.383,0,0,0-.039,2.172,4.733,4.733,0,0,1-1.215-2.1,4.638,4.638,0,0,1,.371-3.564c.843-1.3,2.317-1.432,2.6-.8C372.069,1255.433,371.684,1256.286,371.27,1256.974Z" transform="translate(-362.409 -1254.078)"/><path class="f" d="M349.535,1390.212a5.683,5.683,0,0,1,2.1-1.266,4.382,4.382,0,0,1,2.17-.082,4.731,4.731,0,0,0-2.125-1.173,4.638,4.638,0,0,0-3.556.441c-1.284.869-1.386,2.344-.75,2.618C348.011,1391.041,348.855,1390.639,349.535,1390.212Z" transform="translate(-342.586 -1376.175)"/><path class="f" d="M384.47,1449.333a5.683,5.683,0,0,1,2.1-1.266,4.383,4.383,0,0,1,2.17-.082,4.734,4.734,0,0,0-2.125-1.173,4.639,4.639,0,0,0-3.556.441c-1.284.869-1.386,2.344-.75,2.618C382.945,1450.162,383.79,1449.76,384.47,1449.333Z" transform="translate(-374.636 -1430.414)"/><path class="f" d="M418.291,1323.605a5.684,5.684,0,0,0-1.545,1.909,4.386,4.386,0,0,0-.381,2.138,4.734,4.734,0,0,1-.868-2.267,4.639,4.639,0,0,1,.928-3.461c1.038-1.151,2.514-1.049,2.7-.381C419.323,1322.21,418.808,1322.991,418.291,1323.605Z" transform="translate(-405.393 -1315.185)"/><path class="f" d="M458.482,1385.235a4.955,4.955,0,0,0-2.232,1.466,3.786,3.786,0,0,0-.753,2.223,6.278,6.278,0,0,1-.848-2.9c-.088-1.531.821-3.162,1.622-3.464,1.483-.839,3.381-.091,3.537.733C459.988,1384.122,459.227,1384.772,458.482,1385.235Z" transform="translate(-441.342 -1371.277)"/><path class="f" d="M510.93,1485.328a4.957,4.957,0,0,0-2.447,1.07,3.787,3.787,0,0,0-1.116,2.064,6.277,6.277,0,0,1-.348-3c.17-1.524,1.341-2.979,2.181-3.142,1.6-.577,3.348.479,3.363,1.318C512.6,1484.483,511.741,1485,510.93,1485.328Z" transform="translate(-489.324 -1462.982)"/><path class="f" d="M295.1,1290.725a3.37,3.37,0,0,1,1.189-.841,2.6,2.6,0,0,1,1.28-.143,2.81,2.81,0,0,0-1.308-.6,2.752,2.752,0,0,0-2.084.416c-.721.57-.718,1.448-.329,1.582S294.718,1291.007,295.1,1290.725Z" transform="translate(-293.589 -1285.865)"/><path class="f" d="M314.691,1251.347a3.371,3.371,0,0,0,.06,1.455,2.6,2.6,0,0,0,.668,1.1,2.806,2.806,0,0,1-1.275-.669,2.752,2.752,0,0,1-.943-1.9c.011-.919.708-1.452,1.052-1.226S314.68,1250.87,314.691,1251.347Z" transform="translate(-311.576 -1250.051)"/></g><path class="f" d="M159.772,1472.8a3.37,3.37,0,0,1,1.189-.841,2.6,2.6,0,0,1,1.28-.143,2.807,2.807,0,0,0-1.308-.6,2.752,2.752,0,0,0-2.084.416c-.721.57-.717,1.448-.329,1.582S159.389,1473.083,159.772,1472.8Z" transform="translate(-158.259 -1452.903)"/><path class="f" d="M183.314,1432.521a3.372,3.372,0,0,0-.06,1.455,2.6,2.6,0,0,0,.576,1.152,2.808,2.808,0,0,1-1.215-.772,2.752,2.752,0,0,1-.783-1.976c.086-.915.825-1.389,1.149-1.136S183.342,1432.045,183.314,1432.521Z" transform="translate(-179.868 -1416.218)"/></g><g transform="translate(10.229 135.305)"><path class="f" d="M220.471,1737.028c8.16.895,15.761,4.5,23.077,8.009,4.934,2.369,4.685,3.044,5.69,3.4a.2.2,0,0,0,.246-.276,5.527,5.527,0,0,0-2.106-1.724,27.35,27.35,0,0,0-2.549-1.388c-1.862-.9-3.773-1.718-5.671-2.543a82.241,82.241,0,0,0-11.866-4.324,41.707,41.707,0,0,0-6.816-1.216.033.033,0,0,0-.005.066Z" transform="translate(-220.441 -1736.961)"/></g><path class="f" d="M275.343,1682.178a5.263,5.263,0,0,0-.187,2.267,4.059,4.059,0,0,0,.824,1.835,4.382,4.382,0,0,1-1.847-1.282,4.3,4.3,0,0,1-1.1-3.133c.194-1.423,1.377-2.115,1.865-1.7S275.418,1681.438,275.343,1682.178Z" transform="translate(-258.428 -1549.442)"/><path class="f" d="M362.388,1713.344a5.267,5.267,0,0,0-.187,2.267,4.06,4.06,0,0,0,.824,1.835,4.383,4.383,0,0,1-1.847-1.282,4.3,4.3,0,0,1-1.1-3.133c.194-1.423,1.377-2.115,1.865-1.7S362.463,1712.6,362.388,1713.344Z" transform="translate(-338.284 -1578.034)"/><path class="f" d="M450.833,1752.768a5.264,5.264,0,0,0-.187,2.267,4.061,4.061,0,0,0,.824,1.836,4.384,4.384,0,0,1-1.847-1.282,4.3,4.3,0,0,1-1.1-3.133c.194-1.423,1.377-2.114,1.865-1.7S450.909,1752.027,450.833,1752.768Z" transform="translate(-419.425 -1614.202)"/><path class="f" d="M251.149,1755.44a4.866,4.866,0,0,1,1.128-1.775,3.754,3.754,0,0,1,1.632-.893,4.05,4.05,0,0,0-2.077-.086,3.972,3.972,0,0,0-2.556,1.7c-.651,1.157-.166,2.327.426,2.293C250.3,1756.659,250.791,1756.028,251.149,1755.44Z" transform="translate(-236.381 -1615.988)"/><path class="f" d="M341.69,1787.487a4.867,4.867,0,0,1,1.128-1.775,3.755,3.755,0,0,1,1.632-.893,4.053,4.053,0,0,0-2.077-.086,3.972,3.972,0,0,0-2.556,1.7c-.651,1.156-.166,2.326.426,2.293C340.839,1788.706,341.332,1788.075,341.69,1787.487Z" transform="translate(-319.444 -1645.388)"/><path class="f" d="M190.819,1735.96a3.122,3.122,0,0,1,.943-.966,2.409,2.409,0,0,1,1.142-.345,2.6,2.6,0,0,0-1.293-.328,2.548,2.548,0,0,0-1.829.728c-.562.64-.411,1.439-.035,1.5S190.517,1736.281,190.819,1735.96Z" transform="translate(-181.746 -1599.232)"/><path class="f" d="M201.533,1699.6a3.125,3.125,0,0,0,.3,1.316,2.408,2.408,0,0,0,.793.892,2.6,2.6,0,0,1-1.273-.4,2.549,2.549,0,0,1-1.178-1.578c-.144-.839.4-1.442.753-1.293S201.444,1699.167,201.533,1699.6Z" transform="translate(-191.597 -1566.387)"/><circle class="h" cx="57.779" cy="57.779" r="57.779" transform="translate(5.628 89.003) rotate(-45)"/><circle class="i" cx="52.69" cy="52.69" r="52.69" transform="translate(12.826 89.003) rotate(-45)"/><circle class="j" cx="44.307" cy="44.307" r="44.307" transform="translate(24.681 89.003) rotate(-45)"/><circle class="i" cx="33.305" cy="33.305" r="33.305" transform="translate(40.24 89.003) rotate(-45)"/><circle class="j" cx="23.651" cy="23.651" r="23.651" transform="translate(53.894 89.003) rotate(-45)"/><path class="h" d="M1093.144,1109.356a6.031,6.031,0,1,1-6.031-6.031A6.031,6.031,0,0,1,1093.144,1109.356Z" transform="translate(-999.772 -1020.353)"/><g transform="translate(86.7 44.774)"><path class="k" d="M1595.307,655.123l-.214-3.918,13.264-10.375-.694,5.673-13,10.167Z" transform="translate(-1557.638 -640.83)"/><path class="l" d="M1595.912,719.712l3.751,1.152,13.264-10.375-5.673-.693-13,10.167Z" transform="translate(-1557.262 -704.099)"/><path class="k" d="M1146.534,843.9h0a.886.886,0,0,0,1.244.152l37.37-29.23-1.092-1.4-37.37,29.23A.886.886,0,0,0,1146.534,843.9Z" transform="translate(-1146.346 -799.171)"/></g><path class="m" d="M1823.754,1306.268c0,.375.14.678.313.678s.313-.3.313-.678-.14-.678-.313-.678S1823.754,1305.894,1823.754,1306.268Z" transform="translate(-1681.106 -1205.912)"/><path class="m" d="M1758.562,1818.287a19.34,19.34,0,0,0,.1-2.516h2.045c-.213,1.466-.379,2.606-.379,2.606l.051.464v1.368h-4.474a20.134,20.134,0,0,0,2.278-1.266A.916.916,0,0,0,1758.562,1818.287Z" transform="translate(-1618.861 -1673.957)"/><path class="m" d="M1887.073,1823.148l-.595-1.7h1.557c.081,1.094.111,1.831.111,1.831l.4,1.12.4,1.331a3.51,3.51,0,0,1-2.019-.042l.077-1.325Z" transform="translate(-1738.65 -1679.162)"/><path class="n" d="M1788.285,1361.841a16.978,16.978,0,0,1,3.015-2.871,17.614,17.614,0,0,1,3.552.249l-.022,4.07c-.075.342-1.71,5.662-1.615,6.827l-.011.011a3.275,3.275,0,0,1-4.783-.23h0a26.909,26.909,0,0,0-.187-3.086C1787.93,1364.5,1786.944,1363.674,1788.285,1361.841Z" transform="translate(-1647.937 -1254.884)"/><path class="m" d="M1822.715,1325.246a11.95,11.95,0,0,0,.072,2.071c.135.569.315.612-.843.785-.455.068-.893.17-.893.17s.119-.836.137-1.189c.03-.581-.134-2.376-.134-2.376Z" transform="translate(-1678.627 -1223.451)"/><path class="i" d="M1821.865,1325.993a2.076,2.076,0,0,1-.666.236c-.039-.709-.114-1.522-.114-1.522l1.584.514A2.08,2.08,0,0,1,1821.865,1325.993Z" transform="translate(-1678.659 -1223.451)"/><path class="o" d="M1891.968,1856.678a2.217,2.217,0,0,0,1.533.021l.088.237.337,1.123a3.6,3.6,0,0,1-2.035-.051Z" transform="translate(-1743.615 -1711.486)"/><path class="o" d="M1756.973,1854.616h-4.651c-.172-.015-.214-.156-.154-.243a5.644,5.644,0,0,1,1.275-.594,7.458,7.458,0,0,0,3.483-.874A5.216,5.216,0,0,1,1756.973,1854.616Z" transform="translate(-1615.409 -1708.025)"/><path class="p" d="M1814.9,1493.995l2.726,19.39,2.482,8.94h2.7s-.627-7.2-1.97-9.754c0,0-.587-6.838-1.174-11.019-.088-.625.347-2.247.233-2.667a38.665,38.665,0,0,0-1.637-4.968Z" transform="translate(-1672.981 -1378.685)"/><path class="q" d="M1778.358,1499.943l-.631,7.448a29.265,29.265,0,0,1,.2,7.081c-.443,2.824-1.029,5.417-1.029,5.417h-2.482l-.493-14.066s-.954-7.643-.624-9.715a18.028,18.028,0,0,1,1.938-4.846l3.9.179s1.059,3.794.88,5.067A16.116,16.116,0,0,1,1778.358,1499.943Z" transform="translate(-1634.757 -1376.25)"/><path class="k" d="M1818.561,1288.936c2.951-.886,2.161-3.487,2.144-3.388.009-.08.287-.408.424-.688a2.5,2.5,0,0,0-1.049-3.057,2.759,2.759,0,0,0-1.077-3.5,4.343,4.343,0,0,1-1.374-1.217,4.217,4.217,0,0,0-4.1-1.833c-1.772.453.6,1.479.365,3.183-.119.864.223.74.757,1.435a4.139,4.139,0,0,0,.854,4.645C1814.929,1286.949,1815.549,1289.84,1818.561,1288.936Z" transform="translate(-1671.12 -1178.018)"/><path class="k" d="M1803.469,1277.517c.349,1.438-1.538,2.482-3.032,2.52-.971.025-1.417-.075-1.574-1.1a2.636,2.636,0,0,1,1.387-3.09A2.6,2.6,0,0,1,1803.469,1277.517Z" transform="translate(-1658.222 -1178.492)"/><path class="m" d="M1803.062,1285.264a1.963,1.963,0,0,1,1.007.884,3.011,3.011,0,0,1-1.281,3.487c-1.457.7-2.126-.89-2.021-2.064S1801.3,1284.862,1803.062,1285.264Z" transform="translate(-1660.009 -1187.205)"/><path class="r" d="M1806.166,1325.4l-1.034-.016a.457.457,0,0,0,.472.421C1806.158,1325.825,1806.166,1325.4,1806.166,1325.4Z" transform="translate(-1664.022 -1224.068)"/><path class="k" d="M1814.353,1284.951c.216-1.1.131-1.929-.649-2.331s-1.446-.8-2.144-.078l-.158.089s1.317.364,1.39,1.063.774,1.531.666,1.874-.232,1.029-.232,1.029l.289-.237A1.94,1.94,0,0,0,1814.353,1284.951Z" transform="translate(-1669.775 -1184.401)"/><path class="m" d="M1830.159,1306.253c-.109.3-.026.607.184.68s.469-.115.578-.418.027-.607-.184-.68S1830.268,1305.95,1830.159,1306.253Z" transform="translate(-1686.938 -1206.123)"/><path class="n" d="M438.439,577.97h13.413l-3.2,20.365h1.384l18.054-114.859H466.7l-.272,1.731H452.992l.272-1.731H451.88L433.808,598.335h1.384Zm23.01-61.057L459.235,531H445.808l2.21-14.087ZM448.2,515.735l2.21-14.087h13.436l-2.214,14.087Zm10.847,16.442-2.214,14.087H443.413l2.21-14.087Zm-2.4,15.264-2.214,14.087H441.018l2.21-14.087Zm9.6-61.057-2.214,14.087H450.6l2.21-14.087Zm-27.624,90.409,2.21-14.087h13.417l-2.214,14.087Z" transform="translate(-405.957 -451.698)"/><g transform="translate(70.198 0)"><path class="s" d="M1165.635,196.4c-.015.052-.126.4-.3.931l1.794.362c.019-.294.037-.539.058-.717.148-1.244.732-1.582,1.033-2.273s1.468-1.129,1.324-1.363-1.231.715-1.492.613.93-1.53.787-1.72c-.264-.351-1.4,1.5-1.529,1.345s.943-2.1.512-2.127-.908,2.111-1.135,2.017.626-1.968.193-2.247c-.232-.149-1.054,3.334-1.42,3.535s-.883-1.172-1.233-1.056S1165.7,196.186,1165.635,196.4Z" transform="translate(-1146.21 -183.576)"/><path class="s" d="M953.536,104.127c-.008.053-.052.421-.113.971l-1.783-.41c.1-.275.189-.506.243-.677a5.615,5.615,0,0,0,0-2.5c.011-.754-.871-1.634-.644-1.788s.827,1.159,1.107,1.174-.216-1.777-.007-1.891c.385-.21.654,1.94.838,1.856s.008-2.3.411-2.149-.043,2.3.2,2.305.241-2.051.751-2.127c.273-.041-.415,3.472-.164,3.806s1.288-.7,1.559-.453S953.569,103.905,953.536,104.127Z" transform="translate(-950.813 -98.707)"/><path class="n" d="M1102.443,259.054a9.239,9.239,0,0,0-2.158-.34,42.993,42.993,0,0,1-.727,5.158c-.259.133-3.693-3.006-4.3-3.219a2.552,2.552,0,0,0-.917-.076c-.728.021-.872.024-.872.024l-.027,0,0,.685c.82.738,2.7,11.92,2.857,11.912.177-.008,3.889.926,3.824.613a11.03,11.03,0,0,1-3.228-5.062c-.239-.994-.356-2.064-.486-3,.825.414,4.047,2,4.557,1.79C1102.555,266.89,1102.443,259.054,1102.443,259.054Z" transform="translate(-1081.306 -245.466)"/><path class="m" d="M1279.874,490.185s3.454,2.706,3.569,3.185c.166.691,3.329-.217,2.566-.358-.176-.032-.737-.175-.783-.2-.247-.132-3.32-3.836-3.32-3.836Z" transform="translate(-1252.344 -456.744)"/><path class="n" d="M1325.76,535.839l-2.205-.18a3.126,3.126,0,0,1-1.842.546,2.826,2.826,0,0,0-.1,1.2c.016.112.035.449.147.441.407-.028,1.493-.3,2.73-.545a10.657,10.657,0,0,0,2.622-.926C1328.071,535.8,1325.76,535.839,1325.76,535.839Z" transform="translate(-1290.611 -499.571)"/><path class="p" d="M1082.782,406.884a15.1,15.1,0,0,0,5.327-.229c3.237-.757,6.816-1.457,7.865-.848.844.491,6.115,8.456,6.115,8.456l-2.036,1.485-5.8-6.5s-7.405,2.732-9.068,2.429C1081.394,410.988,1081.34,407.964,1082.782,406.884Z" transform="translate(-1070.729 -380.23)"/><path class="m" d="M1185.434,568.3s-.154,4.178-.249,4.885,1.773,2.826,1.534,2.088c-.055-.17-.2-.732-.2-.784,0-.28.693-5.046.693-5.046Z" transform="translate(-1165.473 -529.521)"/><path class="n" d="M1168.2,631.129l-1.379-2.243a3.126,3.126,0,0,1-1.356-1.361,2.826,2.826,0,0,0-1.1.481c-.091.067-.708.519-.665.623a11.863,11.863,0,0,0,1.919,2.1,24.793,24.793,0,0,0,2.265,1.624C1168.839,632.927,1168.2,631.129,1168.2,631.129Z" transform="translate(-1145.756 -583.849)"/><path class="q" d="M1077.765,400.54c-.885-1.18-8.023-2.3-8.023-2.3l-1.99-3.826-4.4,2.714a39.858,39.858,0,0,0,.77,4.438c.44,1.247,3.4,1.311,5.2,1.292,1.662-.017,4.7.322,4.7.322l-1.027,9.06a14.186,14.186,0,0,0,2.586.385C1075.646,412.618,1078.865,402.008,1077.765,400.54Z" transform="translate(-1053.703 -369.992)"/><path class="k" d="M1064.343,282.058l-2.483.139s-.057.017-.074.021c-.2.037-.018,7.274.162,9.977a18.075,18.075,0,0,0,.546,3.838,40.444,40.444,0,0,0,4.4-1,7.591,7.591,0,0,0,1.467-1.464,10.89,10.89,0,0,1-1.595-3.742c-.412-1.786-.92-4.953-1.211-5.614A9.431,9.431,0,0,0,1064.343,282.058Z" transform="translate(-1052.187 -266.915)"/><path class="m" d="M1063.74,253.419l-.071,2.193s1.608,2.77,2.433,2.384c.693-.324.078-2.431.078-2.431s-.12-.483-.286-1.038a4.022,4.022,0,0,1-.206-1.116C1065.7,252.661,1063.74,253.419,1063.74,253.419Z" transform="translate(-1053.996 -240.33)"/><path class="i" d="M1066.394,253.41c.017-.749-1.948.009-1.948.009l-.007.214a1.113,1.113,0,0,0,.219.249,2.705,2.705,0,0,0,1.914.551A3.769,3.769,0,0,1,1066.394,253.41Z" transform="translate(-1054.702 -240.33)"/><g transform="translate(7.088 6.908)"><path class="n" d="M1066.589,196.643a5.725,5.725,0,0,1,.88,2.274,5.4,5.4,0,0,1-.159,1.748l-2.629-3.142Z" transform="translate(-1062.013 -195.463)"/><path class="t" d="M1093.156,214.7c.037.364-.1.676-.316.7s-.413-.256-.45-.62.1-.676.316-.7S1093.119,214.34,1093.156,214.7Z" transform="translate(-1087.427 -211.462)"/><path class="m" d="M1054.142,201.765c-.06-.013-.054,3.012.822,3.724s2.4.774,2.849.057c.493-.793.024-3.981-1.28-4.658S1054.142,201.765,1054.142,201.765Z" transform="translate(-1052.323 -199.201)"/><path class="n" d="M1033.959,183.04a4.857,4.857,0,0,0-1.446,2.059c-.557,1.283.548,2.612,1.474,3.14a1.784,1.784,0,0,1,1,1.167l.038-.394a.985.985,0,0,0-.012-.362,1.689,1.689,0,0,0-.132-.319c-.079-.169-.332-.746-.431-.9-.261-.4-.312-.489-.183-.871.1-.294-.016-.943.138-1.427l1.247-.269a2.611,2.611,0,0,0,1.175-.642C1037.961,182.917,1035.724,181.462,1033.959,183.04Z" transform="translate(-1032.363 -182.352)"/><path class="m" d="M1050.218,232.206c.154.332.122.674-.071.763s-.474-.107-.627-.439-.122-.674.071-.763S1050.064,231.874,1050.218,232.206Z" transform="translate(-1048.013 -227.666)"/></g><path class="n" d="M956.22,171.331a15.631,15.631,0,0,1-3.1-.4c-.385-.174-3.549-2.723-3.549-2.723l.036-6.825-2.225-.169s-1.154,7.544-.754,8.37c.413.853,5.043,4.363,5.969,5.887.533.878,1.646,12.813,1.814,12.921,1.2.623,4.9,1.246,4.811.868A137.188,137.188,0,0,1,956.22,171.331Z" transform="translate(-946.547 -156.05)"/><path class="r" d="M1076.386,241.809l1.433-.455a.657.657,0,0,1-.485.773C1076.573,242.393,1076.386,241.809,1076.386,241.809Z" transform="translate(-1065.662 -229.573)"/></g><path class="n" d="M1790.844,482.834a.3.3,0,0,0,.183-.428c-.151-.247-.3-.5-.448-.745-.329-.549-.359-.56-.332-.623.064-.149.345-.081.446-.047a3.475,3.475,0,0,0,.67.242c.466.059.8-.3.6-.748-.19-.413-.4-.818-.621-1.221.5.1,1,.219,1.5.314a.2.2,0,0,0,.228-.289l-.785-1.8c-.04-.092-.278-.5-.2-.578s.416.025.495.036c.434.063.589.079,2.006.253a.236.236,0,0,0,.21-.351c-.99-1.383-.817-1.509-1.17-1.7a.111.111,0,0,0-.166.092c-.032.208-.025.26.349.92q.145.256.3.5c-1.717-.243-2.144-.345-2.377.04-.161.268-.083.34.813,2.386-.518-.134-1.041-.237-1.566-.349a.229.229,0,0,0-.26.329c.687,1.476.765,1.487.79,1.633,0,0,.091.025-.044.013-.228-.021-.648-.352-1.085-.3a.691.691,0,0,0-.663.778,4.867,4.867,0,0,0,.6,1.142,5.948,5.948,0,0,0-1.338.438.924.924,0,0,0-.433.351.246.246,0,0,0,.2.37C1789.257,483.459,1789.478,483.065,1790.844,482.834Z" transform="translate(-1648.772 -444.039)"/><path class="i" d="M1871.726,580.726a7.366,7.366,0,0,1-.083-1.3c0-.086-.013-.245.074-.3.208-.129.52.229,1.322.4.348.076,1.06.264,1.212-.2a2.636,2.636,0,0,0,.026-.79c0-.188.006-.377.009-.565,1.3.367,1.227.443,1.521.315a.166.166,0,0,0,.071-.222c-.169-.267-.135-.191-1.771-.671a.257.257,0,0,0-.332.229c0,.255.068,1.411.054,1.554-.013-.009-.076,0-.089,0a4.226,4.226,0,0,1-1.493-.419c-.4-.167-.952-.17-1.079.347a5.132,5.132,0,0,0,0,1.3c-.792-.253-1.583-.513-2.376-.761a.282.282,0,0,0-.366.253c.035.517.053,1.033.066,1.55a4.786,4.786,0,0,1-1.3-.667c-.294-.212-.668.2.11.684a4.627,4.627,0,0,0,1.4.626.284.284,0,0,0,.367-.253c0-.512-.02-1.025-.052-1.537.792.243,1.587.477,2.379.72A.262.262,0,0,0,1871.726,580.726Z" transform="translate(-1720.631 -537.849)"/><path class="u" d="M1885.052,685.842a.283.283,0,0,0,.252.285,6.239,6.239,0,0,0,2.178.074c.38-.065.244-.631-.127-.59a7.578,7.578,0,0,1-1.772.021,6.033,6.033,0,0,1,.178-1.292.292.292,0,0,0-.254-.372c-.47.013-2.246.116-2.262.135a.092.092,0,0,0,0-.047c-.035-.189.1-.831.09-1.124-.016-.329-.454-.449-.719-.474-.538-.052-1.134.336-1.658.128-.5-.2.063-.991-.343-1.608-.313-.476-.852-.333-1.7-.169a.635.635,0,0,0-.517.287.144.144,0,0,0,.016.169c.256.238.563.13,1.339,0,.1-.016.266-.075.354,0,.293.243-.136.912.211,1.476a1.252,1.252,0,0,0,1.271.465c.36-.043.8-.253,1.169-.123-.02.313-.049.628-.045.94a.549.549,0,0,0,.522.607,9.14,9.14,0,0,0,1.153-.038c.255-.012.51-.022.765-.036A6.858,6.858,0,0,0,1885.052,685.842Z" transform="translate(-1731.218 -632.588)"/><path class="u" d="M1662.349,476.594c-2.032-1.666-3.067-.167-2.483.525a.565.565,0,0,0,.92-.015c.1-.154-.049-.407-.24-.348-.158.05-.2-.13-.028-.2.226-.094.5.072.7.176.455.241,1.049.547,1.126,1.118.115.852-.751,1.753-2.034,1.256a2.294,2.294,0,0,1,.2-4.248,2.78,2.78,0,0,1,2.871,1.059c.128.172.357-.029.288-.2a2.775,2.775,0,0,0-3.451-1.359,2.82,2.82,0,0,0-1.747,3.138,2.687,2.687,0,0,0,2.83,2.387A1.848,1.848,0,0,0,1662.349,476.594Z" transform="translate(-1529.441 -443.186)"/><path class="c" d="M1905.855,782.1c-.332-.232-1.015-.374-1.238.077a.375.375,0,0,0,.2.548c.239.078.461-.05.645.171a.5.5,0,0,1-.081.631c-.439.517-1.377.359-1.9.072a1.273,1.273,0,0,1-.08-2.221,2.864,2.864,0,0,1,.927-.292c.176-.041.26-.319.075-.413a1.7,1.7,0,0,0-2.019.71,2.038,2.038,0,0,0-.015,2.2,2.621,2.621,0,0,0,2.223,1.078C1906.324,784.632,1906.929,782.846,1905.855,782.1Z" transform="translate(-1752.938 -724.228)"/><g transform="translate(105.065 95.305)"><path class="v" d="M1506.689,1438.6a1.428,1.428,0,0,1-.151.367,13.939,13.939,0,0,1-1.448,1.927l-.783-1.764s.128-.554.349-1.345A4.529,4.529,0,0,1,1506.689,1438.6Z" transform="translate(-1493.108 -1422.497)"/><path class="q" d="M1478.814,1360.65s4.366,1.88,4.507,1.844a11.6,11.6,0,0,0,1.809-5.544,2.492,2.492,0,0,0-2.707-2.428c-.721.148-.71.349-1.776,1.9A17.862,17.862,0,0,0,1478.814,1360.65Z" transform="translate(-1469.72 -1346.073)"/><path class="m" d="M1405.229,1837.243s.1,1.715.1,1.718a9.42,9.42,0,0,1,.188.953c0,.743-3.53-.631-2.739-.961.072-.03.447-.255.47-.508.036-.39.128-1.179.128-1.179Z" transform="translate(-1399.862 -1788.96)"/><path class="c" d="M1371.639,1857.534s.829.227,1.253.284.984-.422,1.284-.293c.331.142.318,1.424.318,1.424s-4.444.365-5.694-.013C1368.305,1858.787,1369.945,1858.064,1371.639,1857.534Z" transform="translate(-1368.711 -1807.548)"/><path class="m" d="M1492.665,1837.243s.1,1.715.1,1.718a9.388,9.388,0,0,1,.188.953c0,.743-3.53-.631-2.739-.961.072-.03.558-.424.582-.677.036-.39.017-1.01.017-1.01Z" transform="translate(-1480.077 -1788.96)"/><path class="c" d="M1459.1,1857.534s.829.227,1.253.284.984-.422,1.284-.293c.33.142.344,1.424.344,1.424s-4.465.425-5.72-.013C1455.772,1858.767,1457.4,1858.064,1459.1,1857.534Z" transform="translate(-1448.949 -1807.548)"/><g transform="translate(9.644)"><path class="m" d="M1490.287,1319.423l.4,2.531s-1.525,1.224-2.414.966c-.746-.217-.234-1.192-.234-1.192a6.334,6.334,0,0,0,.275-2.06C1488.193,1318.961,1490.287,1319.423,1490.287,1319.423Z" transform="translate(-1487.67 -1313.772)"/><path class="w" d="M1494.508,1320.191a6.231,6.231,0,0,1-1.726.486,3.353,3.353,0,0,0,.041-1.006c-.056-.327.36-.4.824-.393.607.052,1.149.147,1.149.147l.077.486A1.255,1.255,0,0,1,1494.508,1320.191Z" transform="translate(-1492.179 -1313.774)"/><path class="m" d="M1490.017,1270.606c.063,0-.6,2.828-1.633,3.314s-2.567.233-2.855-.529c-.319-.842.844-3.727,2.294-4.094S1490.017,1270.606,1490.017,1270.606Z" transform="translate(-1485.476 -1267.875)"/><path class="x" d="M1507.644,1252.777a3.244,3.244,0,0,1,1.328,1.467,2.087,2.087,0,0,1,1.078,1.648,2.317,2.317,0,0,1-1.745,2.631,1.581,1.581,0,0,0-1.2.993l-.118-.74a2.93,2.93,0,0,1,.579-.967c.348-.323-.165-.793-.21-1.177-.035-.3.183-.869.136-1.354a3.347,3.347,0,0,0-1.147-1.092C1505.373,1253.817,1506.588,1252.168,1507.644,1252.777Z" transform="translate(-1504.295 -1252.643)"/><path class="m" d="M1519.906,1301.627c-.135.327-.08.651.123.724s.476-.132.611-.458.08-.651-.123-.724S1520.041,1301.3,1519.906,1301.627Z" transform="translate(-1516.995 -1297.147)"/></g><path class="v" d="M1407.639,1430.067l-6-.978s.682-1.718.926-1.718,4.535,1.873,4.535,1.873l.341.685Z" transform="translate(-1398.922 -1412.94)"/><path class="k" d="M1460,1506.751a19.749,19.749,0,0,1,.354,5.085c-.244,2.193-.263,9.983-.263,9.983l.93,12.465-2.207.048s-2.618-12.458-2.569-12.139-.878-8.772-.878-8.772l3.121-6.945Z" transform="translate(-1448.206 -1485.513)"/><path class="x" d="M1407.413,1497.479a9.774,9.774,0,0,1-.1,3.746c-.488,1.142-4.182,12.349-4.231,13.263s-1.277,11.013-1.277,11.013l-2.567-.072-.555-11.229,1.163-14.113,1.129-3.568Z" transform="translate(-1396.209 -1476.378)"/><path class="m" d="M1492.588,1342.618a2.3,2.3,0,0,1-1.223.367,4.065,4.065,0,0,1-1.425-.593l.116-.393s1.527-.222,1.566-.2S1492.588,1342.618,1492.588,1342.618Z" transform="translate(-1479.927 -1334.436)"/><path class="v" d="M1394.795,1402.77s-2.269,2.141-3.292,1.775-1.448-1.615,1.051-3.443C1394.789,1399.467,1394.795,1402.77,1394.795,1402.77Z" transform="translate(-1388.88 -1388.424)"/><path class="d" d="M1413.045,1357.559c.337-1.833,2.779-7.539,2.974-8.589.095-.511,1.412-.522,2.667-.456,1.325.07,2.642.238,2.642.238a4.033,4.033,0,0,1,1.69.676c.516.484.653,1.822-.089,4.361-.586,2-1.312,3.105-1.672,4.566-.073.49-.135.973-.218,1.538-.132,2.183,0,5.068,0,5.068s-6.388,1.325-8.777-.685C1412.265,1364.275,1412.7,1359.437,1413.045,1357.559Z" transform="translate(-1408.668 -1340.569)"/><path class="q" d="M1401.991,1354.43s2.506,2.069,2.653,2.069c.094,0,3.577-2.562,4.38-4.666a1.84,1.84,0,0,0-1.552-2.461c-.738,0-1.066.193-2.529,1.427A18.672,18.672,0,0,0,1401.991,1354.43Z" transform="translate(-1399.242 -1341.383)"/><path class="r" d="M1487.658,1304.639l.94.516a.508.508,0,0,1-.667.183A.5.5,0,0,1,1487.658,1304.639Z" transform="translate(-1477.783 -1300.345)"/></g><g transform="translate(55.008 90.457)"><path class="m" d="M762.982,1403.9c-.074-.211.953-.382,1.007-.6s-1.3-.23-1.344-.418c-.089-.345,1.48-.073,1.449-.234s-1.635-.522-1.462-.8,1.625.548,1.668.36-1.418-.646-1.392-1.058c.014-.22,2.4,1.1,2.677.979s-.3-1.156-.077-1.309.853,2.105,1,2.181a34.261,34.261,0,0,0,4.523,2.208c.139-.384,1.782-2.763,1.9-3.126.644.458,1.3.521,1.968.938a22.992,22.992,0,0,1-3.025,4.705c-1.021.461-4.969-2.813-5.757-3.374s-1.24-.379-1.774-.556S763.056,1404.113,762.982,1403.9Z" transform="translate(-762.619 -1383.733)"/><path class="k" d="M915.3,1288.915a3.376,3.376,0,0,0-3.742-2.233,3.527,3.527,0,0,0-2.211-1.579c-1.765-.378-4.152.319-4.088,2.188a3.4,3.4,0,0,0,.337,4.006c-.365,1.688,1.217,3.321,3.272,3.261a3.634,3.634,0,0,0,3.436,1.778,8.218,8.218,0,0,1,.9-.1c-.1-.019,2.178,1.73,4.112-.96C919.3,1292.531,917.911,1289.208,915.3,1288.915Z" transform="translate(-893.036 -1277.483)"/><g transform="translate(6.823 26.614)"><path class="m" d="M869.677,1516.19a9.554,9.554,0,0,1-1.589,1.86,6.944,6.944,0,0,0-1.481,2.857c-.322,1.614-.054,9.587-.334,10.155-2.4,2.351-4.146,8.252-4.635,10.052a1.925,1.925,0,0,1-.556.913h0l.107,2.034,1.195,1.1a6.1,6.1,0,0,1,.266-2.887s6.055-9.17,6.414-9.871c.687-2,3.187-12.223,3.187-12.223l.58-2.351Z" transform="translate(-859.773 -1516.19)"/><path class="p" d="M845.233,1829.309a7.23,7.23,0,0,1,.821,1.62c.065.454.467,1.484.913,1.549.1.015,1.834.142,1.821-.075-.01-.166-.637-.4-.928-.6-.5-.348-1.285-3.179-1.285-3.179S845.266,1828.946,845.233,1829.309Z" transform="translate(-845.233 -1802.817)"/></g><path class="s" d="M968.213,1208.107s2.534-4.557,3.15-5.526,2.222-4.818,2.28-4.97-1.106-1.973-.846-2.036.547.96.824.838,1.086-2.585,1.244-2.462c.3.229-.436,1.527-.279,1.609s.635-1.429.944-1.385-.588,1.385-.5,1.5,1.018-1.145,1.187-.875c.091.146-.857,1.1-.674,1.192s1.026-.528,1.115-.35-.78.422-1.04.9-.7.687-.887,1.576-.459,4.1-1.4,5.709-3.013,5.155-3.013,5.155Z" transform="translate(-951.233 -1193.947)"/><path class="m" d="M987.06,1539.333s3.9,8.339,3.925,9.8c.021,1.257-.682,8.307-.486,14.179.007.212.276.494.667.673.22.1,1.282.575,1.282.575l.146.38-3.658-.26-.052-1s-1.456-8.784-1.307-11.268c.023-.39.213-2.727.213-2.727l-4.4-8.492,2.766-3.635Z" transform="translate(-965.157 -1509.185)"/><g transform="translate(9.774 12.631)"><path class="i" d="M919.573,1680.256s0,0,0,0Z" transform="translate(-916.384 -1652.723)"/><path class="c" d="M889.728,1350.883a18.578,18.578,0,0,1,1.254-2.639s-1.15-1.462-2.084-1.351c0,0-1.255,2.08-1.968,2.15a19.842,19.842,0,0,0-3.663.446,25.56,25.56,0,0,0-2.306,3.133s1.677,1.713,2.352,1.709a7.075,7.075,0,0,1,.5-.86,49.851,49.851,0,0,1,1.662,6.538l.012.01a3.282,3.282,0,0,0,4.719-.607h0a26.083,26.083,0,0,1-.057-3.034C890.267,1354.1,890.729,1352.885,889.728,1350.883Z" transform="translate(-880.96 -1346.887)"/><path class="n" d="M928.6,1509.59l-7.655-11.059a7.516,7.516,0,0,1-1.423.455,14.773,14.773,0,0,1-3.308.142.8.8,0,0,1-.006.109c-.128.912-1.337,2.323-1.586,5.09a67.677,67.677,0,0,0-.016,8.953C919.7,1512.661,927.158,1511.105,928.6,1509.59Z" transform="translate(-911.701 -1486.007)"/></g><path class="m" d="M937.6,1342.272a11.58,11.58,0,0,1,.215,2.022c-.054.572.205,2.415,1.368,2.421s.221-2.343.111-2.9a22.31,22.31,0,0,1-.135-2.3Z" transform="translate(-923.15 -1329.328)"/><path class="i" d="M939.185,1342.386c-.018-.475-.024-.87-.024-.87l-1.559.756s.055.3.11.674A1.336,1.336,0,0,0,939.185,1342.386Z" transform="translate(-923.15 -1329.328)"/><path class="m" d="M920.827,1300.094a1.991,1.991,0,0,0-.82,1.1c-.22.752.03,2.693,1.582,3.161s2.224-1.068,1.9-2.27S922.478,1299.362,920.827,1300.094Z" transform="translate(-906.944 -1291.152)"/><path class="m" d="M958.022,1313.811c-.03.323-.2.569-.382.551s-.3-.3-.272-.618.2-.569.382-.551S958.052,1313.488,958.022,1313.811Z" transform="translate(-941.28 -1303.344)"/><path class="m" d="M917.3,1332.088c.182.282.182.615,0,.743s-.479,0-.662-.278-.182-.615,0-.743S917.118,1331.806,917.3,1332.088Z" transform="translate(-903.792 -1320.377)"/><path class="p" d="M1049.337,1855.7h4.621c.171-.015.213-.153.153-.238a5.638,5.638,0,0,0-1.267-.583,7.886,7.886,0,0,1-3.545-.859A4.5,4.5,0,0,0,1049.337,1855.7Z" transform="translate(-1025.571 -1799.505)"/><path class="r" d="M940.282,1336.385l.992-.292a.457.457,0,0,1-.343.532C940.4,1336.8,940.282,1336.385,940.282,1336.385Z" transform="translate(-925.609 -1324.353)"/></g><g transform="translate(34.165 71.132)"><path class="c" d="M621.848,1062.442c.129.005.483.124,1,1.1a36.657,36.657,0,0,1,1.627,5.022l-2.883,1.074-.37-.787-.61-6.063S621.812,1062.441,621.848,1062.442Z" transform="translate(-611.497 -1053.979)"/><path class="e" d="M532.635,1055.857a17.62,17.62,0,0,1,3.811.544s.7,5.978-.626,10.521a16.315,16.315,0,0,0,.245,4.215l-8.543-.113s1.012-7.732.631-8.981a34.828,34.828,0,0,1-.39-5.6l1.919-.331A19.348,19.348,0,0,1,532.635,1055.857Z" transform="translate(-526.096 -1047.937)"/><path class="m" d="M550.41,1375.212a11.505,11.505,0,0,0,.536,2.785c.348.6-.018,1.631-.036,1.772s-.732.342-1.865.221-1.116-.383-1.024-.805.695-.967.731-1.369a10.5,10.5,0,0,0-.347-1.852Z" transform="translate(-544.866 -1340.917)"/><path class="p" d="M533.483,1217.581s5.9-.327,7.214.47-.936,4.712-.936,4.712-4.1-.189-12.141.275c-1.9.11-2.067-4.963-1.712-5.383S533.483,1217.581,533.483,1217.581Z" transform="translate(-524.478 -1196.181)"/><path class="x" d="M548.131,1412.558c-1.168-.124-1.023-.7-.929-1.134a3.862,3.862,0,0,1,.594-.9,1.949,1.949,0,0,0,.781.38,2.922,2.922,0,0,0,1.708-.345,5.644,5.644,0,0,1,.156,1.506A3.394,3.394,0,0,1,548.131,1412.558Z" transform="translate(-544.094 -1373.314)"/><path class="q" d="M517.3,1222.45c.236,1.783,1.4,10.658,1.4,10.658l-2.707.336s-3.329-11.585-3.158-13.357,1.417-1.921,1.417-1.921S516.674,1217.73,517.3,1222.45Z" transform="translate(-512.616 -1196.832)"/><path class="m" d="M514.51,1070.877c.8-.3,1.189,6.9,1.3,9.86a34.817,34.817,0,0,0,4.494-.045c.289-.022.954-.266,1.242-.3a2.869,2.869,0,0,1,.706-.033,13.274,13.274,0,0,1,1.654.744c.156.164.579.578.508.756s-.813-.5-.813-.5l-.363-.2c.451.441,1.312,1.022,1.188,1.233s-.9-.383-1.451-.785c.475.429,1.065,1.2.929,1.316s-.793-.781-1.51-1.036c-.266-.095-.531.168-.74.2a1.505,1.505,0,0,1-.541.03l-.776-.22c-.265.024-.271.18-.538.237-.31.066-.819.135-1.213.232a21.006,21.006,0,0,1-3.728.813C512.745,1083.172,512.623,1071.585,514.51,1070.877Z" transform="translate(-512.937 -1061.709)"/><path class="c" d="M510.312,1070.164c-.15-3.034-.128-6.774,1.573-7.412.671-.252,1.854,1.262,1.642,7.474A12.791,12.791,0,0,1,510.312,1070.164Z" transform="translate(-510.254 -1054.239)"/><path class="m" d="M649.654,1397.8a1.474,1.474,0,0,0,.187,1.258c.423.5,2.18.992,2.411,1.263a.76.76,0,0,1,.213.5l-4.932-.136.054-1.49.227-1.07Z" transform="translate(-636.195 -1361.643)"/><path class="x" d="M647.082,1414.8s-1.267.513-1.88.209-.594-.388-.771-.274-.24,1.51-.24,1.51l5.546.163c.386-.009.581-.293.268-.536a4.506,4.506,0,0,0-.6-.359A17.325,17.325,0,0,0,647.082,1414.8Z" transform="translate(-633.129 -1377.13)"/><path class="q" d="M650.524,1220.326a2.044,2.044,0,0,1,2.774-1.218c1.455.6,1.846,2.075,1.386,3.585s-3.481,10.386-3.587,11.607l-2.413.016s.439-7.029.546-8.728A16.452,16.452,0,0,1,650.524,1220.326Z" transform="translate(-637.252 -1197.529)"/><path class="l" d="M543.9,1137h-8.066a.526.526,0,0,0-.487.328l-2.484,6.078h-4.447a.225.225,0,0,0-.225.226h0a.225.225,0,0,0,.225.226h12.656a.884.884,0,0,0,.806-.523l2.5-5.59A.528.528,0,0,0,543.9,1137Z" transform="translate(-526.711 -1122.382)"/><path class="r" d="M656.094,1173.319a.444.444,0,1,1-.333-.581A.475.475,0,0,1,656.094,1173.319Z" transform="translate(-643.247 -1155.158)"/><g transform="translate(3.967)"><path class="y" d="M562.774,960.586a6.164,6.164,0,0,1-.714-.286,3.583,3.583,0,0,0-.814-.306,1.961,1.961,0,0,0-1.651.44c-.532.577-1.477.1-1.287,3.127.216,3.421,2.118,3.046,2.164,2.988s1.7-2.189,1.7-2.189.577,1.262.577,1.216S565.694,961.57,562.774,960.586Z" transform="translate(-558.284 -959.968)"/><path class="m" d="M573.453,1021.322l.164,1.223s.368,1.761-.105,2.1-2.013-2.151-2.013-2.151l.163-3.1Z" transform="translate(-570.408 -1014.489)"/><path class="i" d="M572.832,1020.4a3.507,3.507,0,0,0,1.983,1.958l-.139-1.036-1.791-1.925Z" transform="translate(-571.63 -1014.489)"/><path class="m" d="M571.02,978.348A1.63,1.63,0,0,1,572.9,980a12.369,12.369,0,0,1-.137,1.568c-.218,1.411-1.181,2.654-1.818,2.543a3.059,3.059,0,0,1-1.956-3.337A2.7,2.7,0,0,1,571.02,978.348Z" transform="translate(-568.071 -976.811)"/><path class="m" d="M564.412,1003.627a.475.475,0,1,1-.361-.642A.525.525,0,0,1,564.412,1003.627Z" transform="translate(-563.057 -999.428)"/><path class="y" d="M567.634,975.167s.77.191,1.055-.3a2.325,2.325,0,0,1,2.606-1.121c1.3.443-1.143-1.077-1.247-1.077l-1.35-.009s-.961.791-1,.877-.312,1.034-.312,1.034Z" transform="translate(-566.639 -971.609)"/></g><path class="r" d="M587.327,1028.06l1.4.268a.624.624,0,0,1-.753.428C587.22,1028.634,587.327,1028.06,587.327,1028.06Z" transform="translate(-580.957 -1022.436)"/></g><path class="l" d="M428.794,1873.23H282.739a.518.518,0,0,0-.518.518h0a.518.518,0,0,0,.518.518H428.794a.518.518,0,0,0,.518-.518h0A.518.518,0,0,0,428.794,1873.23Z" transform="translate(-266.89 -1726.671)"/><path class="m" d="M1690.936,1383.49c-.073-.211.953-.382,1.007-.595s-1.3-.23-1.344-.417c-.089-.346,1.48-.073,1.449-.234s-1.635-.522-1.462-.8,1.625.548,1.668.36-1.418-.646-1.392-1.058c.014-.22,2.4,1.1,2.677.979s-.3-1.156-.077-1.309.853,2.105,1,2.181a34.265,34.265,0,0,0,4.523,2.208c.139-.384.44-.9.563-1.266.644.458,1.122.688,1.786,1.105a7.694,7.694,0,0,1-1.5,2.678c-1.021.461-4.969-2.813-5.757-3.374s-1.24-.379-1.773-.556S1691.01,1383.7,1690.936,1383.49Z" transform="translate(-1558.925 -1274.551)"/><path class="z" d="M1794.22,1377.575c.305,1.256-1.322,4.056-1.322,4.056a15.714,15.714,0,0,1-2.725-1.565s1.574-2.717,1.677-2.882a1.424,1.424,0,0,1,1.515-.7C1793.7,1376.523,1794.22,1377.575,1794.22,1377.575Z" transform="translate(-1650.3 -1270.935)"/></g></g></svg>