<svg xmlns="http://www.w3.org/2000/svg" width="225.441" height="180.248" viewBox="0 0 225.441 180.248"><defs><style>.a{fill:#cee0ff;}.b{fill:#303030;}.c{fill:#ffbd95;}.d{fill:#27547c;}.e{fill:#ffa47c;}.f{fill:#8d3b26;}.g{fill:#abc4ff;}.h{fill:#b8d1ff;}.i{fill:#e0f2ff;}.j{fill:#002d56;}.k{fill:#585555;}.l{fill:#88bd4f;}.m{fill:#74a940;}.n{fill:#ffc400;}.o{fill:#191919;}.p{fill:#fff;}.q{fill:#b00000;}.r{fill:#860000;}.s{fill:#c3c2c1;mix-blend-mode:soft-light;isolation:isolate;}.t{fill:#db0000;}</style></defs><g transform="translate(-24.927 -266.623)"><g transform="translate(24.927 266.623)"><g transform="translate(132.508)"><path class="a" d="M159.214,285.676c-2.192-.736-6.079,5.506-8.354,12.786-3.954,12.651-7.852,14.731-3.55,17.041,5.334,2.864,5.463-2.775,10.285-13.091C161.365,294.347,163.752,287.2,159.214,285.676Z" transform="translate(-144.88 -256.858)"/><path class="b" d="M165.918,376.654a1.872,1.872,0,0,1,1.106,1.568c.036.859.124,6.235.124,6.235a7.994,7.994,0,0,0-2.5,1.587c-1.112,1-2.126,3.162-3.623,3.782a7.7,7.7,0,0,1-4.791.478c-.679-.283-.442-1.8.537-3.367,1.48-2.366,3.262-5.223,3.262-5.223Z" transform="translate(-140.314 -216.947)"/><path class="c" d="M160.322,376.188a22.566,22.566,0,0,1-.547,3.195,39.535,39.535,0,0,1-2.113,6.388c-.7,1.365-.578,2.363,1.575,1.733s5.577-6.152,6.221-8.477c.291-1.052-.342-2.161-.472-2.839C164.683,374.6,160.322,376.188,160.322,376.188Z" transform="translate(-139.685 -217.461)"/><path class="b" d="M186.211,380.11a7.746,7.746,0,0,1,1.631,3c.2,1.348-.163,4.671-1.168,4.986s-3.491-1.473-3.842-1.785c-2.186-1.938-3.2-6.635-3.2-6.635Z" transform="translate(-129.887 -215.622)"/><path class="c" d="M183.661,376.279s2.947,5.522,3.083,6.218-.1,3.513-1.082,3.7c-2.745.532-5.8-3.869-5.987-5.557s-.426-3.51-.426-3.51Z" transform="translate(-130.054 -217.111)"/><path class="c" d="M153.834,321.285c-1.608,2.933-1.533,8.213-.734,15.082,1.089,9.364,4.163,24.279,4.542,25.608,1.736,6.066,7.711,5.811,8.625.991.252-1.329,2.3-28.24,1.962-31.232a32.446,32.446,0,0,0-4.127-11.8C162.495,317.46,156.232,316.912,153.834,321.285Z" transform="translate(-141.76 -242.646)"/><path class="c" d="M166.356,356.715c-.249-9.3-2.825-11.133-6.152-11.132-5.321,0-4.433,9.938-4.35,12.96.081,2.954,4.107,26.937,5.139,30.752h4.665C166.273,382.785,166.56,364.337,166.356,356.715Z" transform="translate(-140.357 -230.568)"/><path class="c" d="M188.216,388.822c-.2-3.065-5.24-26.921-6.25-29.774s-3.372-13.74-10.551-10.956c-3.1,1.2-3.576,3.431-.459,12.212,2.535,7.143,9.683,23.87,12.757,29.779A19.689,19.689,0,0,0,188.216,388.822Z" transform="translate(-134.616 -229.666)"/><path class="c" d="M176.4,321.191c2.153,2.559,3.12,7.752,3.688,14.643a246.584,246.584,0,0,1,.293,24.9c-.508,6.29-7.566,7.343-9.411,2.8-.508-1.254-6.817-27.174-7.078-30.173s-1.017-8.441.447-12.124C165.431,318.5,173.192,317.376,176.4,321.191Z" transform="translate(-136.974 -242.338)"/><path class="d" d="M154.595,317.275c-1.083,2.825-1.91,5.456-1.533,6.919,1.1,4.261,13.682,7.872,13.682,7.872h.831V318.252C162.726,318.252,159.443,317.275,154.595,317.275Z" transform="translate(-141.575 -242.979)"/><path class="a" d="M183.558,289.267c-.859-1.935-5.3-2.79-7.336-3.4-2.078-.618-8.226-.83-8.226-.83s-9.727.971-11.834.893c-.89-.033-1.545,3.175-1.889,4.089-1.926,5.134-4.215,11.109.608,15.274,1.1.951,2.063,11.785,2.063,16.8a26.855,26.855,0,0,1-1.929,9.307c4.849,0,8.131.977,12.98.977h14.545a82.387,82.387,0,0,1-3.492-10.283C176.222,306.659,184.855,292.192,183.558,289.267Z" transform="translate(-141.996 -257.111)"/><path class="d" d="M163.123,317.954v13.814h.831s14.148-2.635,15.247-6.9c.377-1.463-.45-4.094-1.533-6.919Z" transform="translate(-137.124 -242.681)"/><path class="c" d="M169.868,285.2c-.624-1.62-.561-7.729-.561-7.729h-7.77s.063,6.109-.561,7.729-3.1,3.58-3.1,3.58l5.713,2.648,8.249-3.07A12.412,12.412,0,0,1,169.868,285.2Z" transform="translate(-139.423 -260.429)"/><path class="a" d="M173.576,287.489c2.159-.829,6.3,5.249,8.878,12.426,4.476,12.477,7.762,15.874,4.074,17.69-3.346,1.647-5.393-3.356-10.638-13.462C171.788,296.242,169.1,289.2,173.576,287.489Z" transform="translate(-133.556 -256.07)"/><path class="e" d="M180.04,315.575c-1.677-1.217-.757-6.355,2.9-11.358,4.212-5.765,10.108-14.141,11.552-12.987,1.972,1.575-2.591,9.178-5.312,15.912C186.421,313.964,183.511,318.095,180.04,315.575Z" transform="translate(-130.061 -254.444)"/><path class="e" d="M169.554,280.493c-.053-1.63-.039-3.022-.039-3.022h-7.77s.063,6.109-.561,7.729-3.78,3.989-3.78,3.989l12.15-8.692Z" transform="translate(-139.631 -260.429)"/><path class="c" d="M159.268,278.612c1.2,5.987,7.3,9.813,10.354,9.2,2.975-.594,6.027-6.292,5.39-12.449-.629-6.072-5.014-9.233-9.538-8.33S158.074,272.626,159.268,278.612Z" transform="translate(-138.933 -265.071)"/><path class="f" d="M170.953,271.585c-.594,1.712-2.224,2.8-5.877,3.241-2.615.315-4.169,4.019-4.081,5.46.033.551.767,3.18.767,3.18s-7.727-6.4-2.946-13.535,12.592-3.7,13.065-1.715C172.007,268.743,171.241,270.759,170.953,271.585Z" transform="translate(-139.696 -265.623)"/><path class="f" d="M165.709,269.847s.059,2.795,2.267,2.946c3.392.234,4.194,4.219,4.194,4.219s1.415-9.219-2.865-10.316S165.709,269.847,165.709,269.847Z" transform="translate(-136.007 -265.233)"/><path class="g" d="M172.109,303.823c-1.289-.6-4.114-.345-10.765-.689s-7.576-3.7-8.561-5.167c-.957-1.421-.056-6.2,0-6.467-1.146,3.933-1.413,7.93,2.1,10.965,1.1.951,2.063,11.785,2.063,16.8a26.855,26.855,0,0,1-1.929,9.307,68.593,68.593,0,0,1,8.134.679s-.427-3.649-.859-5.522a20.61,20.61,0,0,1,1.591-10.439c1.591-3.1,8.741-5.511,9.517-6.543S173.4,304.426,172.109,303.823Z" transform="translate(-141.995 -254.279)"/><path class="h" d="M162.275,285.759l.688,2.034-3.648-1.517Z" transform="translate(-138.793 -256.795)"/><path class="h" d="M161.851,287.794l.749-2.034,2.156,1.017Z" transform="translate(-137.681 -256.795)"/><path class="d" d="M155.155,317.275a18.23,18.23,0,0,0-3.442,10.021c-.43,6.469,5.079,36.172,5.079,36.172l12.832.725,17.009-1.326s-.4-27.163-1.171-35.278-3.08-10.115-3.08-10.115l-15.431.621Z" transform="translate(-142.136 -242.979)"/><path class="i" d="M162.372,286.832l2.35,3.519,6.956-3.724-2.515-3.314Z" transform="translate(-137.453 -257.868)"/><path class="i" d="M156.689,286.471l3.1-2.8,3.641,3.006-2.619,3.217Z" transform="translate(-139.944 -257.712)"/><path class="j" d="M166.243,344.813c-.9,1.033-.5,9.143-1.894,10.719-1.483,1.679-3.659,1.42-4.924-1.421s-4.581-22.969-1.9-30.018a9.97,9.97,0,0,1,5.761-6.139l-.489-.147-7.645-.532a18.23,18.23,0,0,0-3.442,10.021c-.43,6.469,5.079,36.172,5.079,36.172l12.832.725,2.739-.155s-3.022-.627-3.492-3.426C167.928,355,167.019,343.924,166.243,344.813Z" transform="translate(-142.136 -242.979)"/><path class="j" d="M163.322,287c-.253-.4-2.189-.295-2.411.039a3.956,3.956,0,0,0,.1,2.182,1.8,1.8,0,0,0,1.715.037C163.015,288.974,163.627,287.475,163.322,287Z" transform="translate(-138.143 -256.365)"/><path class="j" d="M162.153,288.465,158.2,299.619l2.345,5.267,3.5-4.659-.179-11.725Z" transform="translate(-139.281 -255.609)"/><g transform="translate(60.835 30.645)"><path class="e" d="M187.341,295.649a44.11,44.11,0,0,1,.826-5.3,27.588,27.588,0,0,1,2.6-3.416s.473,1.48,1.205,1.776,2.693.889,2.693.889a19.605,19.605,0,0,1-1.551,4.053C192.347,294.808,191,296.5,191,296.5Z" transform="translate(-187.341 -286.928)"/></g><g transform="translate(47.81 23.953)"><path class="k" d="M211.06,296.671l-31.531.059a1.187,1.187,0,0,1-1.224-.9,1.046,1.046,0,0,1,.692-1.167l16.714-6.854.2.082,15.7,6.722a1.045,1.045,0,0,1,.67,1.164A1.191,1.191,0,0,1,211.06,296.671ZM195.7,288.9,179.381,295.6c-.078.058-.012.122.147.122l31.531-.06c.155,0,.221-.065.229-.086Z" transform="translate(-178.286 -279.85)"/><path class="k" d="M191.37,291.352a.569.569,0,0,1-.57-.568l0-1.864a3.671,3.671,0,0,1-2.614-3.41,3.223,3.223,0,0,1,3.218-3.234,3.11,3.11,0,0,1,3.136,2.983.569.569,0,1,1-1.138,0c0-1.712-1.976-1.845-2-1.845a2.142,2.142,0,0,0-2.081,2.091c0,1.922,2.08,2.409,2.166,2.428l.444.1.007,2.749A.569.569,0,0,1,191.37,291.352Z" transform="translate(-173.947 -282.276)"/></g><g transform="translate(38.957 36.043)"><path class="l" d="M216.655,338.387c-2.061-7.986-6.27-11.811-6.3-15.457-.016-1.743.585-12.137.875-13.554.472-2.31,2.989-10.49,2.989-10.49s-12.79-3.288-16.576-3.354c-3.971-.069-13.878,2.723-13.878,2.723s1.558,7.731,2.349,10.351c1,3.294,2.008,13,1.986,15.274-.033,3.646-4.452,6.522-6.513,14.508s-9.452,50.491-9.452,50.491a99.224,99.224,0,0,0,26.989,4.036c12.38,0,26.987-4.036,26.987-4.036S218.717,346.373,216.655,338.387Z" transform="translate(-172.131 -288.555)"/><g transform="translate(0 9.404)"><path class="m" d="M181.583,337.647c-2.061,7.986-9.452,50.491-9.452,50.491s2.081.663,5.485,1.448c1.65-11.707,6.164-43.559,7.228-49.375,1.309-7.153,7.612-14.4,7.612-14.4a44.116,44.116,0,0,0,0-5.062c-.18-1.717,2.756-6.355,4.542-7.9s8.784-2.207,8.784-2.207l-3.567-.984a45.863,45.863,0,0,0-7.69-.034c-2.92.381-5.667-2.444-7.424-3.507s-2.258-8.9-2.258-8.9c-.672.178-1.085.295-1.085.295s1.358,7.137,2.35,10.351c.781,2.526,2.008,13,1.986,15.274C188.063,326.785,183.644,329.661,181.583,337.647Z" transform="translate(-172.131 -297.219)"/><path class="m" d="M196.977,339.319l4.4,33.247q1.055-.162,2.066-.337Z" transform="translate(-161.238 -278.762)"/><path class="m" d="M191.341,375.843c.347,0,.7-.014,1.051-.02l-2.336-41.354-.183,41.35C190.363,375.828,190.848,375.843,191.341,375.843Z" transform="translate(-164.352 -280.888)"/><path class="m" d="M184.551,374.805l-.882-39.5-2.51,39.027C182.248,374.5,183.376,374.663,184.551,374.805Z" transform="translate(-168.173 -280.522)"/><path class="m" d="M202.527,332.986l6.962,40.3c.794-.187,1.471-.352,1.994-.485Z" transform="translate(-158.805 -281.538)"/></g><path class="b" d="M183.361,315.661s9.869,1.713,12.123,1.631,10.377-1.631,10.377-1.631l.677,1.634s-10.131,1.946-11.054,1.833-12.662-1.73-12.662-1.73Z" transform="translate(-167.444 -279.729)"/><path class="l" d="M181.436,300.085l-1.534-8.308,4.534-1.1,2.175,8.129Z" transform="translate(-168.724 -290.681)"/><path class="l" d="M201.683,300.935l1.175-8.963-4.534-1.271-1.817,8.756Z" transform="translate(-161.444 -290.672)"/></g><path class="c" d="M192.98,288.2h0a.642.642,0,0,0-.87.234l-1.368,2.363a.641.641,0,0,0,.234.875h0a.641.641,0,0,0,.87-.234l1.368-2.363A.641.641,0,0,0,192.98,288.2Z" transform="translate(-125.054 -255.762)"/><path class="c" d="M192.3,287.718h0a.642.642,0,0,0-.87.234l-1.368,2.363a.639.639,0,0,0,.234.873l0,0a.641.641,0,0,0,.87-.234l1.368-2.363A.641.641,0,0,0,192.3,287.718Z" transform="translate(-125.352 -255.974)"/><path class="c" d="M191.61,287.288l0,0a.641.641,0,0,0-.87.234l-1.368,2.363a.641.641,0,0,0,.234.875h0a.64.64,0,0,0,.87-.234l1.368-2.363A.639.639,0,0,0,191.61,287.288Z" transform="translate(-125.655 -256.163)"/><path class="c" d="M190.905,286.935h0a.64.64,0,0,0-.87.234l-1.368,2.363a.64.64,0,0,0,.234.873h0a.641.641,0,0,0,.87-.233l1.368-2.365A.64.64,0,0,0,190.905,286.935Z" transform="translate(-125.964 -256.318)"/><path class="c" d="M145.146,306.16c-.666,2.2,2.043,5.075,8.724,6.969,7.7,2.183,18.686,5.5,19.19,3.52.686-2.708-8.583-6.257-15.611-10.293C150.327,302.266,146.527,301.613,145.146,306.16Z" transform="translate(-145.048 -249.232)"/><path class="c" d="M162.266,312.8s3.045,5.214,3.022,5.534,9.606,3.8,9.519,3.219-.916-1.482-2.312-2.132-4.029-6.668-6.45-8S162.266,312.8,162.266,312.8Z" transform="translate(-137.499 -245.707)"/><rect class="n" width="7.967" height="4.737" transform="translate(27.076 38.281)"/></g><g transform="translate(0 3.838)"><g transform="translate(0 6.413)"><rect class="a" width="46.674" height="71.269" transform="translate(3.795)"/><g transform="translate(0 71.352)"><rect class="b" width="46.674" height="91.063" transform="translate(3.795 2.601)"/><rect class="b" width="54.643" height="5.202"/><path class="o" d="M74.239,326.972H27.565v25.282l46.674-12.641Z" transform="translate(-23.77 -321.77)"/></g><g transform="translate(10.66 21.275)"><g transform="translate(0)"><path class="b" d="M65.1,298.516c-1.095-2.721-7.946-2.94-9.964-4.892-.656-.636-1.179-3.085-1.41-4.338a.854.854,0,0,0-.806-.745H44.7a.854.854,0,0,0-.806.745c-.23,1.253-.754,3.7-1.41,4.338-2.018,1.952-8.869,2.171-9.962,4.892-1.411,3.51,5.647,12.409,7.313,19.232.621,2.543,1.24,10.657,1.24,10.657H56.543s.617-8.114,1.238-10.657C59.448,310.926,66.506,302.026,65.1,298.516Z" transform="translate(-32.338 -288.541)"/><path class="o" d="M41.076,325.5H56.543s.617-8.114,1.238-10.657c1.109-4.543,4.6-10,6.4-14.181l-14.61,22.372s-3.458-7.209-6.4-12.048-10.385-15.774-10.405-15.805a2.091,2.091,0,0,0-.242.432c-1.411,3.51,5.647,12.409,7.313,19.232C40.458,317.382,41.076,325.5,41.076,325.5Z" transform="translate(-32.338 -285.632)"/><g transform="translate(8.466 4.972)"><g transform="translate(0.137 0.065)"><path class="p" d="M38.7,292.862a.41.41,0,1,1,.439-.378A.409.409,0,0,1,38.7,292.862Z" transform="translate(-38.319 -292.043)"/></g><g transform="translate(0.081 0.882)"><path class="p" d="M38.671,293.431a.41.41,0,1,1,.43-.385A.411.411,0,0,1,38.671,293.431Z" transform="translate(-38.281 -292.611)"/></g><g transform="translate(0.04 1.701)"><path class="p" d="M38.649,294a.41.41,0,1,1,.424-.393A.411.411,0,0,1,38.649,294Z" transform="translate(-38.252 -293.181)"/></g><g transform="translate(0.013 2.52)"><path class="p" d="M38.636,294.569a.409.409,0,1,1,.417-.4A.41.41,0,0,1,38.636,294.569Z" transform="translate(-38.233 -293.75)"/></g><g transform="translate(0 3.339)"><path class="p" d="M38.635,295.139a.41.41,0,1,1,.41-.407A.41.41,0,0,1,38.635,295.139Z" transform="translate(-38.224 -294.319)"/></g><g transform="translate(0.003 4.159)"><path class="p" d="M38.645,295.709a.41.41,0,1,1-.01-.82.41.41,0,0,1,.01.82Z" transform="translate(-38.226 -294.889)"/></g><g transform="translate(0.023 4.978)"><path class="p" d="M38.666,296.278a.409.409,0,1,1-.027-.818.411.411,0,0,1,.423.4A.415.415,0,0,1,38.666,296.278Z" transform="translate(-38.24 -295.459)"/></g><g transform="translate(0.06 5.797)"><path class="p" d="M38.7,296.847a.41.41,0,1,1-.045-.818.41.41,0,1,1,.045.818Z" transform="translate(-38.266 -296.028)"/></g><g transform="translate(0.117 6.615)"><path class="p" d="M38.751,297.414a.41.41,0,1,1-.069-.817.41.41,0,1,1,.069.817Z" transform="translate(-38.305 -296.596)"/></g><g transform="translate(0.194 7.431)"><path class="p" d="M38.817,297.98a.407.407,0,0,1-.455-.362.4.4,0,0,1,.365-.452.418.418,0,0,1,.452.362A.413.413,0,0,1,38.817,297.98Z" transform="translate(-38.359 -297.164)"/></g><g transform="translate(0.293 8.244)"><path class="p" d="M38.9,298.543a.411.411,0,0,1-.469-.348.407.407,0,0,1,.354-.463.415.415,0,0,1,.46.35A.41.41,0,0,1,38.9,298.543Z" transform="translate(-38.427 -297.729)"/></g><g transform="translate(0.42 9.053)"><path class="p" d="M39,299.1a.41.41,0,1,1,.327-.472A.4.4,0,0,1,39,299.1Z" transform="translate(-38.516 -298.292)"/></g><g transform="translate(0.576 9.857)"><path class="p" d="M39.127,299.659a.41.41,0,0,1-.495-.314.414.414,0,0,1,.324-.488.41.41,0,0,1,.171.8Z" transform="translate(-38.625 -298.851)"/></g><g transform="translate(0.766 10.655)"><path class="p" d="M39.275,300.21a.405.405,0,0,1-.506-.292.411.411,0,0,1,.8-.207A.419.419,0,0,1,39.275,300.21Z" transform="translate(-38.757 -299.405)"/></g><g transform="translate(0.992 11.444)"><path class="p" d="M39.449,300.751a.4.4,0,0,1-.518-.266.411.411,0,0,1,.784-.246A.42.42,0,0,1,39.449,300.751Z" transform="translate(-38.914 -299.954)"/></g><g transform="translate(1.259 12.219)"><path class="p" d="M39.656,301.283a.4.4,0,0,1-.529-.237.4.4,0,0,1,.242-.531.417.417,0,0,1,.526.24A.425.425,0,0,1,39.656,301.283Z" transform="translate(-39.099 -300.492)"/></g><g transform="translate(1.572 12.977)"><path class="p" d="M39.9,301.8a.41.41,0,1,1-.338-.747.41.41,0,1,1,.338.747Z" transform="translate(-39.317 -301.02)"/></g><g transform="translate(1.939 13.71)"><path class="p" d="M40.185,302.291a.41.41,0,1,1-.4-.716.41.41,0,1,1,.4.716Z" transform="translate(-39.572 -301.529)"/></g><g transform="translate(2.366 14.409)"><path class="p" d="M40.516,302.756a.41.41,0,1,1-.462-.678.41.41,0,0,1,.462.678Z" transform="translate(-39.869 -302.015)"/></g><g transform="translate(2.86 15.061)"><path class="p" d="M40.9,303.181a.409.409,0,1,1-.529-.624.409.409,0,1,1,.529.624Z" transform="translate(-40.212 -302.469)"/></g><g transform="translate(3.425 15.65)"><path class="p" d="M41.327,303.555a.41.41,0,1,1-.6-.554.41.41,0,0,1,.6.554Z" transform="translate(-40.605 -302.878)"/></g><g transform="translate(4.063 16.159)"><path class="p" d="M41.806,303.866a.385.385,0,0,1-.572.106.391.391,0,0,1-.1-.573.432.432,0,0,1,.57-.1A.439.439,0,0,1,41.806,303.866Z" transform="translate(-41.048 -303.232)"/></g><g transform="translate(4.766 16.575)"><path class="p" d="M42.324,304.108a.386.386,0,0,1-.552.187.393.393,0,0,1-.18-.555.434.434,0,0,1,.549-.178A.441.441,0,0,1,42.324,304.108Z" transform="translate(-41.537 -303.521)"/></g><g transform="translate(5.522 16.886)"><path class="p" d="M42.87,304.275a.385.385,0,0,1-.521.26.391.391,0,0,1-.256-.522.432.432,0,0,1,.518-.256A.442.442,0,0,1,42.87,304.275Z" transform="translate(-42.063 -303.738)"/></g><g transform="translate(6.315 17.092)"><path class="p" d="M43.432,304.369a.41.41,0,1,1-.8-.157.41.41,0,1,1,.8.157Z" transform="translate(-42.614 -303.88)"/></g><g transform="translate(7.129 17.197)"><path class="p" d="M44,304.39a.4.4,0,0,1-.439.384.388.388,0,0,1-.378-.437.438.438,0,0,1,.439-.383A.425.425,0,0,1,44,304.39Z" transform="translate(-43.18 -303.954)"/></g><g transform="translate(7.95 17.213)"><path class="p" d="M44.569,304.352a.4.4,0,0,1-.394.434.4.4,0,0,1-.3-.1.42.42,0,0,1-.119-.3.445.445,0,0,1,.394-.42A.418.418,0,0,1,44.569,304.352Z" transform="translate(-43.751 -303.965)"/></g><g transform="translate(8.767 17.144)"><path class="p" d="M45.129,304.251a.411.411,0,0,1-.341.485.361.361,0,0,1-.316-.082.41.41,0,0,1-.062-.577.473.473,0,0,1,.257-.154A.408.408,0,0,1,45.129,304.251Z" transform="translate(-44.319 -303.916)"/></g><g transform="translate(9.568 16.975)"><path class="p" d="M45.673,304.082a.416.416,0,0,1-.278.528.411.411,0,0,1-.222-.791A.405.405,0,0,1,45.673,304.082Z" transform="translate(-44.876 -303.799)"/></g><g transform="translate(10.341 16.703)"><path class="p" d="M46.187,303.84a.409.409,0,1,1-.749.325.409.409,0,0,1,.749-.325Z" transform="translate(-45.413 -303.61)"/></g><g transform="translate(11.067 16.325)"><path class="p" d="M46.663,303.527a.416.416,0,0,1-.122.585.411.411,0,1,1,.122-.585Z" transform="translate(-45.918 -303.347)"/></g><g transform="translate(11.733 15.85)"><path class="p" d="M47.092,303.152a.414.414,0,0,1-.042.594.407.407,0,0,1-.59-.075.409.409,0,0,1,.631-.519Z" transform="translate(-46.381 -303.017)"/></g><g transform="translate(12.33 15.29)"><path class="p" d="M47.471,302.727a.413.413,0,0,1,.032.593.4.4,0,0,1-.593,0,.417.417,0,0,1-.006-.565A.407.407,0,0,1,47.471,302.727Z" transform="translate(-46.796 -302.628)"/></g><g transform="translate(12.855 14.663)"><path class="p" d="M47.8,302.264a.412.412,0,0,1,.1.583.4.4,0,0,1-.587.072.416.416,0,0,1-.072-.562A.408.408,0,0,1,47.8,302.264Z" transform="translate(-47.161 -302.191)"/></g><g transform="translate(13.311 13.982)"><path class="p" d="M48.085,301.77a.414.414,0,0,1,.152.571.406.406,0,0,1-.575.131.416.416,0,0,1-.128-.555A.408.408,0,0,1,48.085,301.77Z" transform="translate(-47.478 -301.718)"/></g><g transform="translate(13.701 13.263)"><path class="p" d="M48.329,301.255a.416.416,0,0,1,.2.555.411.411,0,1,1-.2-.555Z" transform="translate(-47.749 -301.219)"/></g><g transform="translate(14.035 12.516)"><path class="p" d="M48.536,300.725a.41.41,0,1,1-.309.758.409.409,0,0,1,.309-.758Z" transform="translate(-47.981 -300.699)"/></g><g transform="translate(14.318 11.747)"><path class="p" d="M48.712,300.183a.41.41,0,1,1-.262.777.41.41,0,0,1,.262-.777Z" transform="translate(-48.178 -300.164)"/></g><g transform="translate(14.557 10.964)"><path class="p" d="M48.859,299.633a.406.406,0,0,1,.293.506.412.412,0,0,1-.514.282.408.408,0,0,1-.278-.5A.413.413,0,0,1,48.859,299.633Z" transform="translate(-48.344 -299.62)"/></g><g transform="translate(14.757 10.17)"><path class="p" d="M48.983,299.077a.4.4,0,0,1,.312.492.411.411,0,0,1-.8-.184A.418.418,0,0,1,48.983,299.077Z" transform="translate(-48.483 -299.068)"/></g><g transform="translate(14.924 9.367)"><path class="p" d="M49.085,298.516a.4.4,0,0,1,.328.479.406.406,0,0,1-.48.327.415.415,0,0,1-.327-.478A.42.42,0,0,1,49.085,298.516Z" transform="translate(-48.599 -298.51)"/></g><g transform="translate(15.06 8.559)"><path class="p" d="M49.164,297.952a.409.409,0,1,1-.121.81.409.409,0,1,1,.121-.81Z" transform="translate(-48.694 -297.948)"/></g><g transform="translate(15.169 7.747)"><path class="p" d="M49.225,297.386a.41.41,0,1,1-.093.814.419.419,0,0,1-.36-.456A.412.412,0,0,1,49.225,297.386Z" transform="translate(-48.769 -297.383)"/></g><g transform="translate(15.253 6.931)"><path class="p" d="M49.271,296.817a.41.41,0,1,1-.072.817.417.417,0,0,1-.37-.444A.411.411,0,0,1,49.271,296.817Z" transform="translate(-48.828 -296.816)"/></g><g transform="translate(15.316 6.113)"><path class="p" d="M49.3,296.248a.41.41,0,1,1-.432.384A.413.413,0,0,1,49.3,296.248Z" transform="translate(-48.872 -296.248)"/></g><g transform="translate(15.357 5.295)"><path class="p" d="M49.323,295.679a.41.41,0,1,1-.032.818.41.41,0,0,1,.032-.818Z" transform="translate(-48.901 -295.679)"/></g><g transform="translate(15.378 4.477)"><path class="p" d="M49.331,295.11a.409.409,0,1,1-.014.818.41.41,0,0,1-.4-.416A.414.414,0,0,1,49.331,295.11Z" transform="translate(-48.915 -295.11)"/></g><g transform="translate(15.384 3.657)"><path class="p" d="M49.326,294.54a.41.41,0,1,1-.407.411A.412.412,0,0,1,49.326,294.54Z" transform="translate(-48.919 -294.54)"/></g><g transform="translate(15.372 2.837)"><path class="p" d="M49.311,293.97a.41.41,0,1,1,.019.82.41.41,0,0,1-.019-.82Z" transform="translate(-48.911 -293.97)"/></g><g transform="translate(15.346 2.018)"><path class="p" d="M49.286,293.4a.41.41,0,1,1-.393.426A.414.414,0,0,1,49.286,293.4Z" transform="translate(-48.893 -293.401)"/></g><g transform="translate(15.306 1.199)"><path class="p" d="M49.251,292.832a.41.41,0,1,1,.047.818.41.41,0,0,1-.047-.818Z" transform="translate(-48.865 -292.831)"/></g><g transform="translate(15.252 0.381)"><path class="p" d="M49.205,292.264a.41.41,0,1,1-.377.44A.414.414,0,0,1,49.205,292.264Z" transform="translate(-48.827 -292.263)"/></g><g transform="translate(14.327 0.332)"><path class="p" d="M48.511,293.049a.415.415,0,1,1,.488-.325A.413.413,0,0,1,48.511,293.049Z" transform="translate(-48.184 -292.229)"/></g><g transform="translate(14.154 1.144)"><path class="p" d="M48.386,293.613a.415.415,0,0,1,.177-.811.415.415,0,0,1-.177.811Z" transform="translate(-48.064 -292.793)"/></g><g transform="translate(13.97 1.953)"><path class="p" d="M48.248,294.173a.415.415,0,0,1,.194-.807.415.415,0,0,1-.194.807Z" transform="translate(-47.936 -293.356)"/></g><g transform="translate(13.77 2.758)"><path class="p" d="M48.1,294.73a.415.415,0,1,1,.5-.3A.416.416,0,0,1,48.1,294.73Z" transform="translate(-47.797 -293.915)"/></g><g transform="translate(13.552 3.559)"><path class="p" d="M47.941,295.285a.415.415,0,1,1,.512-.288A.413.413,0,0,1,47.941,295.285Z" transform="translate(-47.646 -294.472)"/></g><g transform="translate(13.317 4.354)"><path class="p" d="M47.768,295.835a.415.415,0,0,1,.245-.793.415.415,0,0,1-.245.793Z" transform="translate(-47.482 -295.025)"/></g><g transform="translate(13.061 5.144)"><path class="p" d="M47.579,296.379a.415.415,0,0,1,.268-.785.415.415,0,0,1-.268.785Z" transform="translate(-47.304 -295.574)"/></g><g transform="translate(12.782 5.925)"><path class="p" d="M47.37,296.917a.415.415,0,0,1,.293-.775.414.414,0,1,1-.293.775Z" transform="translate(-47.11 -296.117)"/></g><g transform="translate(12.475 6.695)"><path class="p" d="M47.142,297.446a.415.415,0,1,1,.545-.22A.412.412,0,0,1,47.142,297.446Z" transform="translate(-46.897 -296.653)"/></g><g transform="translate(12.136 7.453)"><path class="p" d="M46.888,297.964a.415.415,0,1,1,.555-.194A.413.413,0,0,1,46.888,297.964Z" transform="translate(-46.661 -297.179)"/></g><g transform="translate(11.759 8.194)"><path class="p" d="M46.606,298.466a.415.415,0,0,1,.4-.728.415.415,0,1,1-.4.728Z" transform="translate(-46.399 -297.694)"/></g><g transform="translate(11.338 8.907)"><path class="p" d="M46.28,298.943a.415.415,0,0,1,.455-.695.415.415,0,1,1-.455.695Z" transform="translate(-46.106 -298.19)"/></g><g transform="translate(10.855 9.583)"><path class="p" d="M45.914,299.388a.415.415,0,0,1,.514-.65.414.414,0,1,1-.514.65Z" transform="translate(-45.771 -298.66)"/></g><g transform="translate(10.304 10.202)"><path class="p" d="M45.483,299.772a.414.414,0,0,1,.6-.573.414.414,0,1,1-.6.573Z" transform="translate(-45.387 -299.09)"/></g><g transform="translate(9.665 10.726)"><path class="p" d="M44.99,300.072a.44.44,0,0,1,.128-.555.434.434,0,0,1,.56.095.4.4,0,0,1-.105.59A.394.394,0,0,1,44.99,300.072Z" transform="translate(-44.944 -299.455)"/></g><g transform="translate(8.924 11.095)"><path class="p" d="M44.435,300.233a.415.415,0,0,1,.781-.273.415.415,0,1,1-.781.273Z" transform="translate(-44.428 -299.711)"/></g><g transform="translate(8.105 11.253)"><path class="p" d="M43.861,300.224a.452.452,0,0,1,.135-.281.377.377,0,0,1,.118-.076.39.39,0,0,1,.138-.045.36.36,0,0,1,.269.1.467.467,0,0,1,.164.263.372.372,0,0,1-.073.311.477.477,0,0,1-.316.148.457.457,0,0,1-.184-.02.449.449,0,0,1-.144-.1A.373.373,0,0,1,43.861,300.224Z" transform="translate(-43.859 -299.821)"/></g><g transform="translate(7.277 11.179)"><path class="p" d="M43.309,300.058a.43.43,0,0,1,.207-.227.374.374,0,0,1,.285-.05.451.451,0,0,1,.312.466.388.388,0,0,1-.5.332.45.45,0,0,1-.283-.2A.4.4,0,0,1,43.309,300.058Z" transform="translate(-43.283 -299.77)"/></g><g transform="translate(6.505 10.885)"><path class="p" d="M42.812,299.762a.415.415,0,0,1,.732.385.414.414,0,1,1-.732-.385Z" transform="translate(-42.746 -299.565)"/></g><g transform="translate(5.823 10.425)"><path class="p" d="M42.381,299.374a.415.415,0,0,1,.639.528.414.414,0,1,1-.639-.528Z" transform="translate(-42.272 -299.245)"/></g><g transform="translate(5.225 9.85)"><path class="p" d="M42,298.944a.414.414,0,0,1,.565.606.414.414,0,1,1-.565-.606Z" transform="translate(-41.857 -298.846)"/></g><g transform="translate(4.699 9.209)"><path class="p" d="M41.667,298.472a.415.415,0,0,1,.492.667.415.415,0,1,1-.492-.667Z" transform="translate(-41.49 -298.4)"/></g><g transform="translate(4.234 8.522)"><path class="p" d="M41.365,297.979a.415.415,0,1,1-.135.575A.41.41,0,0,1,41.365,297.979Z" transform="translate(-41.167 -297.922)"/></g><g transform="translate(3.815 7.807)"><path class="p" d="M41.093,297.471a.415.415,0,0,1,.4.726.415.415,0,1,1-.4-.726Z" transform="translate(-40.876 -297.425)"/></g><g transform="translate(3.434 7.07)"><path class="p" d="M40.845,296.95a.415.415,0,0,1,.364.745.415.415,0,0,1-.364-.745Z" transform="translate(-40.611 -296.913)"/></g><g transform="translate(3.086 6.315)"><path class="p" d="M40.621,296.419a.415.415,0,0,1,.331.761.415.415,0,0,1-.331-.761Z" transform="translate(-40.369 -296.388)"/></g><g transform="translate(2.767 5.549)"><path class="p" d="M40.41,295.882a.415.415,0,1,1-.232.539A.414.414,0,0,1,40.41,295.882Z" transform="translate(-40.148 -295.855)"/></g><g transform="translate(2.472 4.774)"><path class="p" d="M40.215,295.34a.414.414,0,1,1-.247.532A.413.413,0,0,1,40.215,295.34Z" transform="translate(-39.943 -295.317)"/></g><g transform="translate(2.198 3.991)"><path class="p" d="M40.032,294.793a.415.415,0,1,1-.259.524A.415.415,0,0,1,40.032,294.793Z" transform="translate(-39.752 -294.773)"/></g><g transform="translate(1.942 3.202)"><path class="p" d="M39.863,294.241a.415.415,0,0,1,.247.793.415.415,0,0,1-.247-.793Z" transform="translate(-39.574 -294.224)"/></g><g transform="translate(1.703 2.408)"><path class="p" d="M39.706,293.687a.415.415,0,0,1,.23.8.415.415,0,0,1-.23-.8Z" transform="translate(-39.408 -293.672)"/></g><g transform="translate(1.478 1.608)"><path class="p" d="M39.557,293.129a.415.415,0,1,1-.291.509A.417.417,0,0,1,39.557,293.129Z" transform="translate(-39.252 -293.116)"/></g><g transform="translate(1.269 0.806)"><path class="p" d="M39.418,292.57a.415.415,0,1,1-.3.5A.414.414,0,0,1,39.418,292.57Z" transform="translate(-39.106 -292.558)"/></g><g transform="translate(1.073)"><path class="p" d="M39.288,292.008a.414.414,0,1,1-.306.5A.415.415,0,0,1,39.288,292.008Z" transform="translate(-38.97 -291.998)"/></g></g></g><g transform="translate(0 39.437)"><rect class="q" width="31.625" height="10.558"/><path class="r" d="M32.338,326.516V315.958l31.625,10.558Z" transform="translate(-32.338 -315.958)"/></g></g><path class="s" d="M27.565,273.75,74.239,345.02V273.825Z" transform="translate(-23.77 -273.75)"/></g><g transform="translate(22.603)"><rect class="t" width="21.324" height="29.189" transform="translate(49.672 43.575)"/><path class="o" d="M89.624,291.664c2.04,1.3,1.555,4.722-.9,7.846s-18.1,17.336-19.378,17.352-4.665-2.4-4.157-4.177,12.356-15.095,14.82-17.311S86.967,289.965,89.624,291.664Z" transform="translate(-29.901 -259.694)"/><path class="c" d="M78.308,308.343c-.6,2.418-6.394,5.07-10.752,5.782s-17.622,1.46-17.622,1.46l-.68-4s22.236-6.279,23.462-6.54S79.334,304.177,78.308,308.343Z" transform="translate(-36.864 -253.702)"/><path class="e" d="M87.814,379.462a8.4,8.4,0,0,0,1.486,3.622c.591,1.007.574,2.755.1,3.259-1.3,1.382-2.914,1.016-4.511,2.162s-3.872,5.044-5.256,5.477-4.6.5-4.846-.158,2.963-3.333,2.963-3.333C82.4,383.96,82.757,381,82.757,381S87.783,379.2,87.814,379.462Z" transform="translate(-25.676 -221.003)"/><path class="o" d="M78,389.8s-.909.872-.741,1.11c.242.345,1.687.117,2.054-.1a39.756,39.756,0,0,0,8.485-7.2,5.255,5.255,0,0,0,.948-2.595,4.2,4.2,0,0,1,1.408,3.336,4.5,4.5,0,0,1-.5,1.306,36.55,36.55,0,0,1-3.982,2.711c-1.6,1.146-3.668,5.045-5.053,5.477s-6.154.659-6.4,0C74.027,393.324,76.5,390.992,78,389.8Z" transform="translate(-25.924 -220.313)"/><path class="o" d="M86.708,383.143s-.824,2.749-1.06,3.669a29.2,29.2,0,0,0-.472,4.33h-.619s.45-5.552-2.353-3.713C81.33,388,86.708,383.143,86.708,383.143Z" transform="translate(-22.461 -219.378)"/><path class="e" d="M90,321.57c2.293.764,2.839,14.177,1.139,23.079-1.614,8.449-2.7,20.034-3.425,20.656s-7.035,1.489-8.032.867-4.839-35.317-4.942-37.078S80.065,318.257,90,321.57Z" transform="translate(-25.691 -246.689)"/><path class="e" d="M86.29,352.508c3.8,3.725,4.626,13.43,4.419,17.157s-4.63,23.315-4.423,24.661-4.98.319-4.939-.439c.4-7.524-1.686-27.407-2-29.374S78,353.577,77.993,352.692C77.936,348.138,84.114,350.378,86.29,352.508Z" transform="translate(-24.265 -233.892)"/><path class="c" d="M95.635,279.2s-.675,10.892,0,11.455c2.1,1.753,8.3,3.367,9.732,6.418,1.73,3.7-7.481,15.379-9.109,26.875-.79,5.57,4.036,13.5,4.865,18.878s-16.1,11.89-16.722,11.89-7.916-4.954-8.95-6.714,2.307-17.75,2.307-21.27-.9-10.6-1.436-11.222-2.77-2.707-2.77-4.984c0-3.313,4.965-7.983,5.173-9.122s-.22-2.776.351-3.5c1.139-1.45,7.037-4.449,7.14-5.174s-.1-10.04-.1-10.04Z" transform="translate(-26.211 -264.947)"/><path class="e" d="M82.34,286l.016.988,6.335,3.2a4.242,4.242,0,0,0,3.419.18l.23-.086s-.4-2.4-.594-4.639a23.913,23.913,0,0,1,.134-4.834Z" transform="translate(-22.359 -264.241)"/><path class="c" d="M94.732,321.561c2.4.3,5.28,13.358,5.616,22.415.45,12.208,1.907,22.876,1.318,23.627s-7.481,2.06-8.58,1.644-8.849-30.4-9.294-32.11S84.341,320.247,94.732,321.561Z" transform="translate(-21.76 -246.412)"/><path class="o" d="M101.612,384.718s1.963,4.7,1.939,5.969-.621,4.269-1.594,4.4-3.39-2.123-3.665-2.461c-1.71-2.115-1.752-6.359-1.752-6.359Z" transform="translate(-16.134 -218.688)"/><path class="c" d="M100.612,382.865a28.009,28.009,0,0,1,1.877,6.408c.078.656-.4,3.311-1.329,3.336-2.6.066-4.727-4.442-4.642-6.02s.15-3.288.15-3.288Z" transform="translate(-16.144 -219.5)"/><path class="c" d="M93.658,351.4c-3.41.659-4.279,3.039-2.6,13.058,1.273,7.6,6.033,24.792,8.291,32.7.718,2.513.46,4.2.693,4.2.971-.012,3.877-.076,4.166-2.32.063-.489-1.044-2.155-1.049-3.508-.029-7.826-.083-27.638-.545-30.412C102.069,361.857,99.115,350.345,93.658,351.4Z" transform="translate(-18.901 -233.324)"/><path class="a" d="M99.925,331.236c-1.912-4.81-3.82-9.417-3.523-11.867.459-3.773,6.7-16.729,6.7-16.729L104.6,291.2l-6.3-2.979L83.823,300.158l-.465-9.24-3.432,2.025a3.186,3.186,0,0,0-1.394,1.71l-2.091,6.1s-2.914,3.341-2.99,5.721,1.67,3.7,2.684,4.83,1.761,8.964,1.581,12.734A56.034,56.034,0,0,1,76,332.651C84.994,335.815,92.582,333.412,99.925,331.236Z" transform="translate(-26.257 -260.994)"/><path class="b" d="M102.42,325.789a61.152,61.152,0,0,0-2.752-7.664c-7.343,2.176-14.931,4.578-23.925,1.415-.708,2.812-1.336,5.3-1.4,6.024-1.332,14.062,2.113,43.518,2.113,43.518s3.567,1.312,14.121,1.312a98.131,98.131,0,0,0,18.177-2.153S106.046,340.764,102.42,325.789Z" transform="translate(-26.001 -247.883)"/><path class="o" d="M95.589,326.931c4.619-.551,7.924,3.91,7.934,3.918-.357-1.791-.725-3.5-1.1-5.06a61.152,61.152,0,0,0-2.752-7.664c-7.343,2.176-14.931,4.578-23.925,1.415-.708,2.812-1.336,5.3-1.4,6.024-1.332,14.062,2.113,43.518,2.113,43.518s6.072,1.716,16.022,1.1c-1.295-6.712-6.6-24.644-6.139-30.779C86.9,331.819,89.358,327.673,95.589,326.931Z" transform="translate(-26.001 -247.883)"/><path class="b" d="M92.516,287.78s-7.875,12.688-8.54,16.578.821,27.2,2.038,30.037,9.682,3.451,11.648,3.167-6.6-12.413-4.176-22.091c2.7-10.815,9.866-19.975,9.43-22.081S92.516,287.78,92.516,287.78Z" transform="translate(-21.714 -261.186)"/><path class="c" d="M113.152,308.287c.608,2.286-3.015,7.134-6.328,9.712s-14.037,9.235-14.037,9.235l-2.4-3.026s15.684-15.352,16.586-16.127S112.1,304.348,113.152,308.287Z" transform="translate(-18.83 -253.073)"/><path class="b" d="M92.626,290.813c1.667-1.755,4.931-.63,7.532,2.373s12.694,21.4,12.467,22.658-2.353,3.786-4,2.95-12.475-15-14.184-17.838S90.453,293.1,92.626,290.813Z" transform="translate(-18.24 -260.222)"/><path class="c" d="M94.724,317.985a3.8,3.8,0,0,1-3.717.363,6.122,6.122,0,0,0-4.879.64,26.238,26.238,0,0,0-3,1.719c-.36.7.6.64.48.84s-.541.926.2,1.159c.759.24.56.4.6.68s.639.539,1,.46c.316-.072.4.38.823.459a2.2,2.2,0,0,0,1.339-.319,4.438,4.438,0,0,1,3.48-.44c1.559.321,4.082.711,5.22-1.6S94.724,317.985,94.724,317.985Z" transform="translate(-22.049 -247.944)"/><path class="f" d="M86.88,270.666s2.037-2.273,4.291-.972,5.69,6.013,4.259,8.324a4.621,4.621,0,0,1-2.762,1.6Z" transform="translate(-20.369 -269.292)"/><path class="c" d="M96,282.606c-1.343,6.231-7.777,10.132-10.959,9.446-3.1-.667-6.194-6.668-5.429-13.088.752-6.33,5.384-9.563,10.093-8.547S97.341,276.374,96,282.606Z" transform="translate(-23.608 -268.879)"/><path class="f" d="M83.4,274.722c.593,1.8,2.277,2.96,6.086,3.48,2.727.371,4.289,4.263,4.176,5.768-.043.575-.852,3.308-.852,3.308A9.718,9.718,0,0,0,94.122,274.4c-4.881-7.53-11.552-3.772-11.634-3.212A15.754,15.754,0,0,0,83.4,274.722Z" transform="translate(-22.297 -269.086)"/><path class="f" d="M86.385,272.971s-.14,2.637-2.414,3.042a12.392,12.392,0,0,0-4.54,2.159s-.1-6.273,4.393-7.35S86.385,272.971,86.385,272.971Z" transform="translate(-23.634 -268.717)"/><path class="c" d="M55.789,313.17s-5.794,1.7-6,1.953-9.6-3.82-9.135-4.187a3.874,3.874,0,0,1,3.146.035c1.461.483,7.506-2.089,10.181-1.4S55.789,313.17,55.789,313.17Z" transform="translate(-40.641 -251.685)"/><path class="b" d="M84.7,289.525s-6.279,8.851-7.511,11.507-1.423,3.795-.665,7.779.022,23.673-.748,24.358-1.1-22.071-2.055-23.885-.236-6.077,2.234-9.347c2.23-2.95,1.843-5.026,2.763-6.542C79.481,292.146,84.7,289.525,84.7,289.525Z" transform="translate(-26.314 -260.421)"/><path class="o" d="M78.166,308.226c-.738,3.326-6.509,5.164-10.948,5.889s-15.3,2.451-15.3,2.451l-1.374-5.6s20.68-5.839,21.926-6.1S79.113,303.961,78.166,308.226Z" transform="translate(-36.298 -253.783)"/><path class="b" d="M112.8,308.273c1.238,3.428-2.28,7.657-5.591,10.233s-12.143,8.714-12.143,8.714l-3.869-5s14.525-13.383,15.427-14.158S111.413,304.439,112.8,308.273Z" transform="translate(-18.477 -253.059)"/><rect class="n" width="7.883" height="4.364" transform="translate(62.412 36.705) rotate(7.405)"/></g></g></g></g></svg>