<svg xmlns="http://www.w3.org/2000/svg" width="192.414" height="197" viewBox="0 0 192.414 197"><defs><style>.a{fill:#12111c;}.b{fill:#27253d;}.c{fill:#f9a048;}.d{fill:#5ecdea;}.e{fill:#10abc4;}.f{fill:#b9cadb;}.g{fill:#fff;}.h{fill:#35b5d3;}.i{fill:#ffa364;}.j{fill:#28253d;}.k{fill:#a7c7d3;}.l{fill:#d0e2ea;}</style></defs><g transform="translate(-349.47 -109.692)"><g transform="translate(349.47 109.692)"><g transform="translate(73.915 147.784)"><path class="a" d="M537.344,416.7h-48.7l.407-12.578a6.345,6.345,0,0,1,6.34-6.135H530.6a6.338,6.338,0,0,1,6.336,6.135Z" transform="translate(-488.332 -392.009)"/><path class="b" d="M537.381,442.83a6.338,6.338,0,0,1-6.336,6.542H494.4a6.345,6.345,0,0,1-6.341-6.542l.313-9.755h48.7Z" transform="translate(-488.055 -408.381)"/><rect class="c" width="6.977" height="6.977" transform="translate(21.372 21.206)"/><path class="a" d="M534.621,389.226l.972,3.53h-2.946l-.954-2.988H518.867l-.953,2.988h-2.946l.973-3.53a3.333,3.333,0,0,1,3.212-2.45H531.4A3.34,3.34,0,0,1,534.621,389.226Z" transform="translate(-500.613 -386.776)"/></g><g transform="translate(117.213 0)"><g transform="translate(7.14 55.118)"><rect class="d" width="63.814" height="12.807" rx="6.404" transform="translate(0 55.912)"/><rect class="e" width="51.903" height="50.466" rx="12" transform="translate(5.102)"/><rect class="f" width="53.926" height="3.967" transform="translate(5.611 68.72)"/><rect class="f" width="3.191" height="58.711" transform="translate(8.634 72.686)"/><rect class="f" width="3.191" height="58.711" transform="translate(53.606 72.632)"/></g><g transform="translate(9.02 96.971)"><path class="g" d="M666.785,424.75l-.8,4.6-10.072-1.492.07-.664.379-3.526Z" transform="translate(-618.702 -353.179)"/><path class="g" d="M618.251,427.118l.07.664-10.072,1.492-.823-4.685,10.437-1.085Z" transform="translate(-596.078 -353.101)"/><path class="b" d="M644.266,317.373c-1.52,17.722-7.888,45.928-7.888,45.928l-2.146-.225L623.8,362l-2.417-.253,2.114-44.805H607.382l2.114,44.805-1.562.164L597.5,362.992l-2.992.309s-6.369-28.206-7.884-45.928c-1.31-15.262-.028-23.422,5.522-25.386a8.873,8.873,0,0,1,3.025-.482,14.16,14.16,0,0,1,11.713,5.569H624a14.169,14.169,0,0,1,11.713-5.569,8.991,8.991,0,0,1,2.89.43C644.266,293.825,645.581,301.989,644.266,317.373Z" transform="translate(-586.149 -291.505)"/><path class="b" d="M667.683,443.55s2.016,1.464,0,6.369c0,0-10.727,1.464-13.13-2.081s-6.855-8.824-6.7-10.049,4.362-7.51,4.362-7.51l-.07.664,10.072,1.492Z" transform="translate(-614.943 -356.264)"/><path class="a" d="M653.776,319.367l-.5,10.572h-3.32Z" transform="translate(-615.924 -304.507)"/><path class="b" d="M617.767,437.79c.164,1.225-4.288,6.509-6.691,10.049s-13.131,2.081-13.131,2.081c-2.015-4.905,0-6.369,0-6.369l5.462-11.115,10.072-1.492-.07-.664S617.608,436.564,617.767,437.79Z" transform="translate(-591.236 -356.264)"/><path class="a" d="M625.022,319.367l3.82,10.572h-3.32Z" transform="translate(-604.289 -304.507)"/></g><g transform="translate(0 36.201)"><path class="d" d="M644.24,233.645c-1.108,3.787-9.357,4.489-14.047,4.583l.519,1.566a8.989,8.989,0,0,0-2.89-.43,14.169,14.169,0,0,0-11.713,5.569H598.99a14.16,14.16,0,0,0-11.714-5.569,8.873,8.873,0,0,0-3.025.482L584.84,238c-4.475-.552-15.683-2.521-15.6-8.324.1-7.248,6.177-40.255,8.842-41.705,1.88-1.024,11.508-4.522,17.016-6.5l-1.852,5.289,2.946,3.334-2.731,2.427,13.673,39.171L621.5,194.17l-3.353-3.409,3.956-3.147-3.02-7.846c5.546,2.1,16.492,6.546,17.367,9.16C637.614,192.435,645.8,228.314,644.24,233.645Z" transform="translate(-569.236 -178.594)"/><path class="h" d="M652.233,179.138l3.02,7.846-3.956,3.147,3.353,3.409-3.774,15.945-10.591,21.58,6.555-42.444a13.873,13.873,0,0,1,1.137,1.15,17.3,17.3,0,0,0,2.329-11.353c.514.187,1.169.43,1.926.715Z" transform="translate(-602.391 -177.964)"/><path class="g" d="M641.269,194.986v0l-.36,20.13-6.2,22.314-5.742-21.579v-.3l-.627-20.481c.7-.524,1.59-1.164,2.478-1.716a7.261,7.261,0,0,1,3.044-1.286h3.053a17.2,17.2,0,0,1,2.642,1.553v0A16.523,16.523,0,0,1,641.269,194.986Z" transform="translate(-596.819 -184.334)"/><path class="h" d="M628.135,232.448l-10.007-21.579-3.666-17.591,2.731-2.427-2.946-3.334,1.852-5.289c.931-.332,1.744-.622,2.38-.846,0,0-1.566,3.268,1.922,9.773,0,0,.556-.458,1.365-1.07Z" transform="translate(-590.24 -179.347)"/><path class="g" d="M641.359,250.452l-.089,2.6-.014.327a46.687,46.687,0,0,0-7.3.678c-2.048.585-.552,2.343-.552,2.343s-1.071.257-.529,1.459c0,0-.856,1.057.463,2.441.837.879,4.629,2.193,7.561,3.109v3.423H619.531V262.6c3.166-1.061,6.443-2.436,6.593-2.993a2.631,2.631,0,0,0,0-1.529s.7-.388-.066-1.3c0,0,1.09-2-.066-2.5a58.694,58.694,0,0,0-7.608-1.234l-.159-2.324-.973-14.056h24.568Z" transform="translate(-591.643 -205.146)"/><path class="i" d="M654.686,265.435l.014-.328.089-2.6c.954.108,7.29,1.754,7.29,1.754l.547,9.614s-3.7,2.876-4.807,2.6c-.4-.1-1.8-.491-3.488-1.015-2.932-.916-6.724-2.23-7.561-3.109-1.319-1.384-.463-2.441-.463-2.441-.542-1.2.529-1.459.529-1.459s-1.5-1.758.552-2.342A46.68,46.68,0,0,1,654.686,265.435Z" transform="translate(-605.073 -217.206)"/><path class="i" d="M611.762,265.345a58.707,58.707,0,0,1,7.608,1.234c1.155.505.066,2.5.066,2.5.762.912.066,1.3.066,1.3a2.631,2.631,0,0,1,0,1.529c-.15.556-3.428,1.931-6.593,2.993a31.651,31.651,0,0,1-5.041,1.361c-2.768.351-4.746-3.9-4.807-4.031v0l.987-7.6,7.365-1.59.191-.014Z" transform="translate(-585.02 -217.444)"/><path class="g" d="M649.909,189.374a13.853,13.853,0,0,0-1.137-1.15v0a16.5,16.5,0,0,0-1.707-1.361v0a17.186,17.186,0,0,0-2.642-1.553l6.565-7.734s.463.164,1.249.454A17.3,17.3,0,0,1,649.909,189.374Z" transform="translate(-604.322 -177.567)"/><path class="b" d="M643.078,221.6v.734H632.991v-.477l2.656-15.73,4.461-.173Z" transform="translate(-598.987 -190.814)"/><path class="a" d="M641.73,193.621v0l-1.622,5.849-4.461.173-2.656-6.294a7.26,7.26,0,0,1,3.044-1.286h3.053A17.185,17.185,0,0,1,641.73,193.621Z" transform="translate(-598.987 -184.334)"/><path class="g" d="M630.685,186.611a7.26,7.26,0,0,0-3.044,1.286c-.888.552-1.781,1.193-2.478,1.716-.809.612-1.365,1.07-1.365,1.07-3.488-6.5-1.922-9.773-1.922-9.773l1.515-.538-.051.519Z" transform="translate(-593.636 -178.876)"/><path class="b" d="M686.384,241.674c-2.762.1-5.519.388-8.271.676q-1.256-8.135-2.874-16.209-.467-2.325-.964-4.644c-.063-.294-.514-.17-.451.124q1.744,8.144,3.118,16.361.368,2.206.708,4.416-1.16.122-2.32.238a.145.145,0,0,0-.019.005.216.216,0,0,0-.233.225q.142,7,.284,14.006a.234.234,0,0,0,.467,0q-.139-6.9-.28-13.792c3.6-.358,7.215-.8,10.835-.939C686.684,242.131,686.686,241.663,686.384,241.674Z" transform="translate(-618.039 -197.988)"/><path class="b" d="M680.976,262.856q-.745,6.668-1.324,13.354c-.026.3.442.3.468,0q.578-6.685,1.324-13.354C681.478,262.557,681.01,262.559,680.976,262.856Z" transform="translate(-620.761 -217.262)"/><path class="a" d="M595.766,243.954a.188.188,0,0,0-.141-.09l-3.087-.463q1.661-7.975,2.863-16.036.336-2.258.635-4.521c.04-.3-.428-.294-.467,0q-1.067,8.038-2.595,16.005-.43,2.245-.9,4.482l-7.569-1.135c-.294-.044-.421.406-.124.451l11.046,1.657q-1.133,6.611-2.127,13.246c-.044.294.407.421.451.124q1.009-6.739,2.162-13.455A.24.24,0,0,0,595.766,243.954Z" transform="translate(-576.225 -198.592)"/><path class="a" d="M599.967,263.522l-.273,12.966a.234.234,0,0,0,.468,0l.272-12.966A.234.234,0,0,0,599.967,263.522Z" transform="translate(-583.449 -217.572)"/><path class="a" d="M625.6,271.974q-3.791-.091-7.571-.422c-.3-.026-.3.441,0,.468q3.778.331,7.571.422A.234.234,0,0,0,625.6,271.974Z" transform="translate(-591.902 -221.424)"/><path class="a" d="M625.8,276.927l-7.345.326c-.3.013-.3.481,0,.468l7.345-.326C626.1,277.381,626.1,276.913,625.8,276.927Z" transform="translate(-592.1 -223.933)"/><path class="a" d="M656.172,272.959l-7.8-.043a.234.234,0,0,0,0,.468l7.8.043A.234.234,0,0,0,656.172,272.959Z" transform="translate(-606.059 -222.061)"/><path class="a" d="M655.992,276.514l-8.352-.71c-.3-.026-.3.442,0,.467l8.352.711C656.292,277.007,656.29,276.539,655.992,276.514Z" transform="translate(-605.718 -223.408)"/><path class="a" d="M625.767,280.327l-6.536,1.609c-.292.072-.168.523.124.451l6.536-1.609C626.183,280.706,626.06,280.255,625.767,280.327Z" transform="translate(-592.488 -225.516)"/><path class="a" d="M659.262,282.9,652.275,282c-.3-.038-.3.429,0,.468l6.987.907C659.559,283.408,659.557,282.94,659.262,282.9Z" transform="translate(-607.882 -226.297)"/><path class="a" d="M632.714,191.975a23.3,23.3,0,0,0-4.927,2.763c-.24.176-.007.582.236.4a22.831,22.831,0,0,1,4.815-2.716C633.113,192.312,632.993,191.86,632.714,191.975Z" transform="translate(-596.512 -184.282)"/><path class="a" d="M649.593,195.572a12.926,12.926,0,0,0-4.42-3.258c-.273-.122-.51.281-.236.4a12.6,12.6,0,0,1,4.326,3.185C649.461,196.129,649.791,195.8,649.593,195.572Z" transform="translate(-604.505 -184.438)"/></g><g transform="translate(17.69)"><path class="i" d="M633.624,146.339l.014.061-1.763.439a10.862,10.862,0,0,1-8.235,7.439,9.58,9.58,0,0,1-4.2-.224,9.421,9.421,0,0,1-5.742-4.368c-1.529-2.745-1.515-6.083-1.094-9.2.393-2.9,1.1-5.789,1.08-8.711,5.593,1.609,17.077-.37,17.077-.37l1.043,7.786a3.347,3.347,0,0,1,.94-1.772,2.02,2.02,0,0,1,1.88-.519,1.83,1.83,0,0,1,.786.472,3.494,3.494,0,0,1,.808,1.361A6.731,6.731,0,0,1,633.624,146.339Z" transform="translate(-607.051 -119.826)"/><path class="i" d="M639.5,159.516l-1.763.439s-1.066,9.979-12.733,10.343l-.028.341-.051.519,7.346,5.719h3.053l6.565-7.734Z" transform="translate(-612.914 -132.942)"/><path class="b" d="M609.039,121.644a6.871,6.871,0,0,1-1.576-.645c-4.583-2.7-6.041-5.882-4.419-8.968a7.326,7.326,0,0,0,3.446,1.754s.52-3.638,1.754-4.092c0,0,1.3,3.053,2.923,3.834,0,0,.617-2.927,1.43-3.184,0,0,.393,4.451,4.162,3.769s15.141-2.861,13.584,4.353c0,0,7.089.285.421,8.777a1.826,1.826,0,0,0-.786-.472,2.02,2.02,0,0,0-1.88.519,3.346,3.346,0,0,0-.94,1.772l-1.043-7.786S614.631,123.253,609.039,121.644Z" transform="translate(-602.404 -109.692)"/><path class="b" d="M629.573,167.779a10.862,10.862,0,0,0,8.234-7.439s-1.066,9.979-12.733,10.343l.3-3.128A9.58,9.58,0,0,0,629.573,167.779Z" transform="translate(-612.983 -133.327)"/><path class="g" d="M649.094,121.785a4.051,4.051,0,0,0-3.447-3.139c-.127-.017-.233.119-.234.234a.239.239,0,0,0,.234.234,3.577,3.577,0,0,1,3,2.8C648.707,122.2,649.158,122.078,649.094,121.785Z" transform="translate(-622.474 -113.87)"/><path class="g" d="M612.563,126.889a7.871,7.871,0,0,1-4.823-2.731c-.193-.231-.522.1-.331.331a8.26,8.26,0,0,0,5.029,2.851C612.733,127.386,612.86,126.936,612.563,126.889Z" transform="translate(-604.713 -116.406)"/><path class="g" d="M622.206,130.192a11.22,11.22,0,0,1-3.145-.285c-.293-.069-.418.382-.124.451a11.686,11.686,0,0,0,3.27.3C622.506,130.644,622.507,130.177,622.206,130.192Z" transform="translate(-610.041 -119.122)"/></g></g><g transform="translate(0 8.409)"><g transform="translate(10.112 46.709)"><rect class="d" width="63.814" height="12.807" rx="6.404" transform="translate(0 55.912)"/><rect class="e" width="51.903" height="50.466" rx="12" transform="translate(5.102)"/><rect class="f" width="53.926" height="3.967" transform="translate(5.611 68.72)"/><rect class="f" width="3.191" height="58.711" transform="translate(8.634 72.686)"/><rect class="f" width="3.191" height="58.711" transform="translate(53.606 72.632)"/></g><g transform="translate(0 142.336)"><path class="a" d="M360.692,392.327c2.427,0,2.207,4.737,2.179,5.261a3.7,3.7,0,0,0-1.071-.154s.126-4.064-1.034-4.064-.842,4.064-.842,4.064a3.673,3.673,0,0,0-1.225.206v0S358.125,392.327,360.692,392.327Z" transform="translate(-353.752 -392.327)"/><path class="a" d="M364.662,402.055a3.812,3.812,0,0,1,2.7,3.044l3.848,23.286a3.824,3.824,0,0,1-3.773,4.451h-4.956V401.9h1.108A3.7,3.7,0,0,1,364.662,402.055Z" transform="translate(-355.543 -396.795)"/><path class="b" d="M356.411,401.9v30.936H353.3a3.828,3.828,0,0,1-3.806-4.213l2.347-23.282a3.816,3.816,0,0,1,2.581-3.235,3.673,3.673,0,0,1,1.225-.206Z" transform="translate(-349.47 -396.795)"/></g><g transform="translate(18.948)"><g transform="translate(2.929 88.281)"><path class="b" d="M436.184,302.178c.1,7.244-4.213,17.1-4.335,17.376v0A35.359,35.359,0,0,0,416,315.112c-.154,0-.3,0-.453,0a26.354,26.354,0,0,0-14.94,4.1s-3.657-4.681-6.841-13.518c-3.119-8.659,1.216-14.472,1.4-14.71.659.813,38.16.44,38.16.44S436.081,294.832,436.184,302.178Z" transform="translate(-391.493 -290.979)"/><path class="a" d="M476.585,444.36a.08.08,0,0,0,0,.024A.08.08,0,0,1,476.585,444.36Z" transform="translate(-430.664 -362.554)"/><path class="a" d="M461.178,448.3l.2.762s-.164,1-.383,2.478A24.217,24.217,0,0,1,461.178,448.3Z" transform="translate(-423.389 -364.391)"/><path class="a" d="M436.043,336.222a23.378,23.378,0,0,0-.173,3.161h-.01a18.008,18.008,0,0,0-.271-3.166C435.739,336.218,435.889,336.218,436.043,336.222Z" transform="translate(-411.534 -312.09)"/><path class="a" d="M410.708,449.471a24.226,24.226,0,0,1,.182,3.241c-.22-1.478-.384-2.478-.384-2.478Z" transform="translate(-399.829 -364.939)"/><path class="a" d="M395.634,445.535a.081.081,0,0,1,0,.023A.081.081,0,0,0,395.634,445.535Z" transform="translate(-392.887 -363.102)"/><path class="i" d="M416.924,339.382a43,43,0,0,1-1.3,10.554c-1.964,8.281-10.7,41.247-12.143,46.685l-.2.762s.164,1,.384,2.479c-.023,3.2-.739,7.552-4.48,7.075-5.7-.73-3.932-11.826-3.839-12.391a.083.083,0,0,0,0-.023s.842-50.047,6.369-54.2a26.351,26.351,0,0,1,14.94-4.1A18.016,18.016,0,0,1,416.924,339.382Z" transform="translate(-392.597 -312.088)"/><path class="i" d="M457.7,393.923c.093.566,1.861,11.662-3.839,12.391-3.741.477-4.456-3.872-4.48-7.075.22-1.477.384-2.478.384-2.478l-.2-.762c-1.445-5.439-10.18-38.4-12.148-46.686a44.307,44.307,0,0,1-1.3-9.927,23.37,23.37,0,0,1,.173-3.161,35.357,35.357,0,0,1,15.847,4.447c4.8,8.141,5.565,53.227,5.565,53.227A.08.08,0,0,0,457.7,393.923Z" transform="translate(-411.779 -312.093)"/><path class="b" d="M468.374,444.4c.144.594,2.978,12.246,2.726,15.379-.262,3.217-10.759,2.656-11.83,1.847-.781-.585.2-7.949.786-11.91.023,3.2.739,7.552,4.48,7.075C470.235,456.066,468.468,444.97,468.374,444.4Z" transform="translate(-422.449 -362.574)"/><path class="b" d="M401.548,450.9c.589,3.961,1.566,11.325.786,11.91-1.076.809-11.568,1.37-11.83-1.847-.257-3.133,2.581-14.786,2.726-15.379-.093.565-1.861,11.662,3.839,12.391C400.81,458.447,401.525,454.1,401.548,450.9Z" transform="translate(-390.487 -363.122)"/><path class="j" d="M422.606,352.313a13.544,13.544,0,0,1-4.11,3.183c-.269.135-.033.539.236.4a13.888,13.888,0,0,0,4.2-3.256C423.134,352.418,422.8,352.086,422.606,352.313Z" transform="translate(-403.502 -319.565)"/><path class="j" d="M450.284,354.408a17.623,17.623,0,0,1-4.474-1.569c-.267-.137-.5.267-.236.4a18.086,18.086,0,0,0,4.586,1.617C450.453,354.919,450.579,354.469,450.284,354.408Z" transform="translate(-416.138 -319.832)"/></g><g transform="translate(0 32.534)"><path class="k" d="M437.63,301.965l-.22,2.343H403.182l-.215-2.361h34.443Z" transform="translate(-393.382 -240.35)"/><path class="l" d="M437.965,259.9l-1.6,17.016-.514,5.429-.22-.019H401.184l-.309-3.39-1.73-19.036h38.82Z" transform="translate(-391.598 -220.729)"/><path class="d" d="M432.115,208.333c-.8,8.482-2.268,18.334-2.268,18.334h-37.3l1.73,19.036-.346.033a23.6,23.6,0,0,1-2.329-2.492,21.474,21.474,0,0,1-2.955-4.788s-4.811-41.556-3.381-44.287c.94-1.791,7.921-4.106,12.616-5.485-.524.833-1.571,3.021-1.543,7.285l4.157,2.642-3.68,4.465a48.143,48.143,0,0,0,2.123,4.878,54.873,54.873,0,0,0,10.255,14.556c7.519-10.39,9.609-18.5,9.609-18.5l-.846-4.419,4.293-1.693a54.542,54.542,0,0,0-2.469-8.15c4.339,1.768,11.246,4.831,12.414,6.79C432.877,197.685,432.644,202.712,432.115,208.333Z" transform="translate(-384.996 -187.496)"/><path class="h" d="M443.411,197.6l-4.293,1.693.846,4.419s-2.09,8.113-9.609,18.5l5.321-24.03s1.861-3.184,1.707-10.137c0,0,1.487.552,3.559,1.4v0A54.552,54.552,0,0,1,443.411,197.6Z" transform="translate(-406.163 -187.198)"/><path class="g" d="M439.139,188.044c.154,6.953-1.707,10.137-1.707,10.137a12.093,12.093,0,0,0-3.315-5.784Z" transform="translate(-407.918 -187.198)"/><path class="g" d="M430.666,201.99l-5.321,24.03-5.728-23.572,4.213-5.134,1.571,7.15,1.95-8.258A12.092,12.092,0,0,1,430.666,201.99Z" transform="translate(-401.151 -191.006)"/><path class="h" d="M413.381,197.9l5.728,23.572a57.236,57.236,0,0,1-12.378-19.434l3.68-4.465-4.157-2.642c-.028-4.264,1.019-6.453,1.543-7.285,2.455-.72,4.283-1.188,4.283-1.188C410.781,190.563,413.381,197.9,413.381,197.9Z" transform="translate(-394.916 -186.457)"/><path class="g" d="M416.861,186.457l5.513,6.308L418.16,197.9S415.561,190.563,416.861,186.457Z" transform="translate(-399.696 -186.457)"/><path class="a" d="M422.95,199.251a8.476,8.476,0,0,0-3.449,3.522c-.138.267.265.5.4.236a8.038,8.038,0,0,1,3.282-3.354C423.451,199.511,423.215,199.107,422.95,199.251Z" transform="translate(-401.084 -192.413)"/><path class="a" d="M437.4,201.743a11.822,11.822,0,0,0-3.013-4.546c-.22-.205-.552.125-.331.331a11.313,11.313,0,0,1,2.892,4.339C437.049,202.147,437.5,202.026,437.4,201.743Z" transform="translate(-407.854 -191.439)"/><path class="b" d="M430.228,212.178a.234.234,0,0,0-.468,0q.033,3.662.065,7.323a.234.234,0,0,0,.468,0Q430.26,215.84,430.228,212.178Z" transform="translate(-405.885 -198.354)"/><path class="b" d="M432.625,215.372a.5.5,0,0,0-.29-.231.54.54,0,0,0-.607.239.457.457,0,0,0-.032.38.621.621,0,0,0,.052.105.235.235,0,0,0,.011.043.43.43,0,0,0,.045.095.406.406,0,0,0,.158.143.485.485,0,0,0,.217.051.535.535,0,0,0,.366-.155A.57.57,0,0,0,432.625,215.372Z" transform="translate(-406.775 -199.833)"/><path class="b" d="M432.743,222.21a.492.492,0,0,0-.052-.144h0a.563.563,0,0,0-.084-.119.457.457,0,0,0-.323-.139.431.431,0,0,0-.159.026.629.629,0,0,0-.185.107.537.537,0,0,0-.106.122.275.275,0,0,0-.025.044.582.582,0,0,0-.04.1.47.47,0,0,0,.057.361.575.575,0,0,0,.144.148.553.553,0,0,0,.139.069.514.514,0,0,0,.155.027.483.483,0,0,0,.078-.006.394.394,0,0,0,.079-.016.5.5,0,0,0,.179-.1.393.393,0,0,0,.048-.056.386.386,0,0,0,.044-.066.5.5,0,0,0,.051-.145A.617.617,0,0,0,432.743,222.21Z" transform="translate(-406.816 -202.952)"/><path class="b" d="M451.087,227.38l-1.239,13.1q-.175,1.855-.351,3.711c-.028.3.439.3.468,0l1.239-13.1q.175-1.855.351-3.711C451.583,227.08,451.115,227.082,451.087,227.38Z" transform="translate(-415.094 -205.449)"/><path class="b" d="M407.654,231.522q.026-1.831.08-3.662c.009-.3-.459-.3-.467,0q-.188,6.422-.037,12.847.043,1.83.114,3.661c.012.3.479.3.468,0Q407.563,237.948,407.654,231.522Z" transform="translate(-395.339 -205.672)"/></g><g transform="translate(14.031)"><path class="i" d="M431.109,174.12l.126,5.775-5.022,4.353-1.95,8.258-1.571-7.15-5.513-6.308.257-.818c11.779.047,13.6-7.65,13.6-7.65l.075,3.535Z" transform="translate(-414.045 -146.514)"/><path class="b" d="M468.1,192.086a5.725,5.725,0,0,0-1.725-3.128,5.658,5.658,0,0,0-1.494-1.017,9,9,0,0,0-1.838-.527,2.232,2.232,0,0,1-1.638-1.129,5.654,5.654,0,0,1-.45-2.193,6.178,6.178,0,0,0-1.371-3.623,5.763,5.763,0,0,0-3.378-1.928,15.683,15.683,0,0,0-4.521.055,9.927,9.927,0,0,1-5.145-.367,4.87,4.87,0,0,1-1.128-.725,5.688,5.688,0,0,1-1.239-3.092c-.113.128-.217.261-.315.4a.21.21,0,0,0-.19.219c0,.02,0,.038,0,.058a3.743,3.743,0,0,0-.379.817v0l.126,5.775s1.487.552,3.559,1.4v0c4.339,1.768,11.246,4.831,12.414,6.79.688,1.15.454,6.177-.075,11.8a7.817,7.817,0,0,0,4.741-1.712,7.732,7.732,0,0,0,2.049-2.588A5.734,5.734,0,0,0,468.1,192.086Zm-1.927-.73c-1.309-1.866-4.1-2.076-5.649-3.755-1.276-1.384-1.445-3.46-2.413-5.078a5.806,5.806,0,0,0-3.483-2.609c-2.058-.538-4.288.093-6.341-.468a5.257,5.257,0,0,1-1.316-.571,7.711,7.711,0,0,0,2.086.333c2.9.087,6.187-1.142,8.867.453a5.272,5.272,0,0,1,2.306,2.916c.42,1.337.106,2.857.857,4.1a2.5,2.5,0,0,0,1.47,1.1c.634.19,1.3.245,1.913.5a5.351,5.351,0,0,1,2.654,2.427,5.106,5.106,0,0,1-.555,5.515,7.543,7.543,0,0,0,.332-1.74A4.829,4.829,0,0,0,466.176,191.357Z" transform="translate(-426.232 -148.302)"/><path class="b" d="M428.018,174.036a10.9,10.9,0,0,0,3.241-3.456s-1.819,7.7-13.6,7.65l1.043-3.287a8.845,8.845,0,0,0,2,.641A9.933,9.933,0,0,0,428.018,174.036Z" transform="translate(-414.27 -146.514)"/><path class="i" d="M434.365,148.387a6.033,6.033,0,0,1-.978,2.584,8.624,8.624,0,0,1-2.058,2.394,5.105,5.105,0,0,1-2.451,1.053,10.52,10.52,0,0,1-3.73,4.579,9.4,9.4,0,0,1-6.919,1.464,8.371,8.371,0,0,1-1.894-.606,8.244,8.244,0,0,1-3.831-3.468,10.258,10.258,0,0,1-1.168-4.911,24.022,24.022,0,0,1,.624-5.048c.292-1.406.628-2.809.96-4.207.172-.73.349-1.455.517-2.186.186-.77.372-1.544.553-2.314a2.659,2.659,0,0,0,.239.265,12.016,12.016,0,0,0,5.756,2.81c2.111.491,4.274.7,6.371,1.23a5.694,5.694,0,0,1,2.827,1.4,5.819,5.819,0,0,1,1.243,2.739,2.3,2.3,0,0,1,2.973-.266A2.855,2.855,0,0,1,434.365,148.387Z" transform="translate(-411.318 -131.18)"/><path class="b" d="M413.976,132c-.181.77-.367,1.544-.553,2.314a5.471,5.471,0,0,1-1.645-2.517,10.779,10.779,0,0,1-.474-3.189c-.009-.509.058-1.12.513-1.349a1.651,1.651,0,0,1,1.221.115c2.066.664,4.3.013,6.348-.7s4.194-1.5,6.327-1.106a8.014,8.014,0,0,1,2.809,1.181,10.47,10.47,0,0,1,3.46,3.5,8.206,8.206,0,0,1,1,2.752,4.611,4.611,0,0,1,3.123,1.738,7.156,7.156,0,0,1,1.438,3.482,10.707,10.707,0,0,1-1.712,7.375,18.954,18.954,0,0,1-4.7,4.6,12.385,12.385,0,0,0-2.031,1.743,6.453,6.453,0,0,0-.717,1.963L428.2,150a10.408,10.408,0,0,0,.664-1.31,5.105,5.105,0,0,0,2.451-1.053,8.623,8.623,0,0,0,2.058-2.394,6.032,6.032,0,0,0,.978-2.584,2.855,2.855,0,0,0-.965-2.491,2.3,2.3,0,0,0-2.973.266,5.819,5.819,0,0,0-1.243-2.739,5.7,5.7,0,0,0-2.827-1.4c-2.1-.526-4.26-.739-6.371-1.23a12.016,12.016,0,0,1-5.756-2.81A2.719,2.719,0,0,1,413.976,132Z" transform="translate(-411.303 -125.459)"/><path class="g" d="M455.031,142.909c-.17-.225-.554,0-.382.223a8.38,8.38,0,0,1,1.668,4.295c.026.281.468.284.443,0A8.8,8.8,0,0,0,455.031,142.909Z" transform="translate(-431.51 -133.558)"/><path class="g" d="M457.464,154.049a.223.223,0,0,0-.273.154,7.2,7.2,0,0,1-.782,2.344c-.136.251.246.474.382.223a7.527,7.527,0,0,0,.827-2.449A.228.228,0,0,0,457.464,154.049Z" transform="translate(-432.338 -138.797)"/><path class="g" d="M413.126,132.481a3.415,3.415,0,0,1-.185-1.913.226.226,0,0,0-.154-.272.223.223,0,0,0-.272.154,3.832,3.832,0,0,0,.185,2.148.229.229,0,0,0,.273.155A.223.223,0,0,0,413.126,132.481Z" transform="translate(-411.833 -127.712)"/></g></g></g></g></g></svg>