<svg xmlns="http://www.w3.org/2000/svg" width="167.556" height="104.669" viewBox="0 0 167.556 104.669"><defs><style>.a{fill:#fff;}.b{fill:#6d9bff;}.c{fill:#a5a5a5;}.d{fill:#fdd2bb;}.e{fill:#2c5cff;}.f{fill:#f6c1aa;}.g,.i{fill:#eb9271;}.g{opacity:0.28;}.h{fill:#5c3000;}.j{fill:#e9ebee;}.k{fill:none;}.l{fill:#d5d5d7;}.m{fill:#fafcff;}.n{fill:#6b6b6b;}.o{mix-blend-mode:multiply;isolation:isolate;}.p{fill:#4bbd6d;}.q{fill:#44ab63;}</style></defs><g transform="translate(-674.6 -398.882)"><rect class="a" width="167.556" height="15.973" transform="translate(674.6 487.579)"/><g transform="translate(698.36 439.937)"><path class="b" d="M822.462,524.359s-2.288,2.351-4.6,4.956c-.968,1.087-1.94,2.217-2.75,3.237-2.755,3.462-5.342,4.434-8.4,7.828-1.871,2.079-4.343,3.679-8.963,4.418s-21.47,1.94-21.47,1.94a8.657,8.657,0,0,1-.127-2.944c.079-.19-.118-.628-.391-1.174-.735-1.482-1.991-3.75.391-4.023,3.26-.375,19.068-4.2,19.826-5.359s5.031-6.437,7.335-11.262,5.758-10.7,9.279-16.424c3.1-5.041,3.968-5.311,5.639-6.766l1.944,11.757Z" transform="translate(-757.363 -498.787)"/><path class="c" d="M743.648,605.557h-11.23v-.481a5.615,5.615,0,0,1,5.615-5.615h0a5.615,5.615,0,0,1,5.615,5.615Z" transform="translate(-732.418 -558.09)"/><path class="d" d="M745.005,596.394c-.915-.346-3.656-1.63-5.138-1.63s-3.952,2.519-5.335,3.754.541,2.375,1.63,1.811c1.136-.588,2.209-2.005,3.3-1.961s1.546.989,2.138,1.187c.3.1.457.889-.1,1.284s-1.83.4-2.175.618c-.692.445-.247,1.652.939,1.652a16.768,16.768,0,0,0,3.608-.145c1.416-.268,3.151.115,4.243-.326s4.184.638,4.184.638l-2.2-6.042A22.279,22.279,0,0,1,745.005,596.394Z" transform="translate(-733.38 -555.323)"/><path class="e" d="M762.631,596.922c.23.9.81,1.517,1.284,2.9,1.038,3.016-.28,3.589-.28,3.589s5.758.394,6.765,0c0,0,1.4-1.551,0-4.65l-1.4-3.1a29.76,29.76,0,0,0-3.409.373A7.774,7.774,0,0,0,762.631,596.922Z" transform="translate(-750.215 -555.851)"/></g><g transform="translate(758.811 398.882)"><g transform="translate(9.076)"><path class="f" d="M924.9,449.443a26.089,26.089,0,0,0-1.264,6.293c-.107,2.914-.109,6.938.743,8.493s9.87,6.813,9.87,6.813a89.01,89.01,0,0,1-20.352,1.52c-10.124-.6-12.293-4.91-12.293-4.91s7.688-3.017,7.9-3.781,1.7-6.59,1.7-6.59Z" transform="translate(-901.607 -428.665)"/><path class="g" d="M924.167,463.727c-.634-1.8-.626-5.349-.529-7.991a26.089,26.089,0,0,1,1.264-6.293l-13.7,7.839s-1.494,5.826-1.7,6.59-7.9,3.781-7.9,3.781a2.925,2.925,0,0,0,.27.406C909.34,466.782,916.76,465.288,924.167,463.727Z" transform="translate(-901.607 -428.665)"/><g transform="translate(4.221)"><path class="d" d="M914.737,425.7c.313-2.443.4-11.244.4-11.244l11.783-4.151,10.3,5.742s-2.47,7.81-2.51,10.273-.208,5.76-1.747,8.114a29.09,29.09,0,0,1-6.5,6.444c-2.834,1.3-4.69.42-6.824-.833-.9-.527-2.137-3.187-3.324-5.738A17.794,17.794,0,0,1,914.737,425.7Z" transform="translate(-913.518 -405.61)"/><path class="h" d="M931.6,412.864a17.436,17.436,0,0,0,.866,5.227,9.851,9.851,0,0,1-.139,3.126q.631-.711,1.289-1.4c.851-.891,1.641-1.816,2.39-2.769a29.4,29.4,0,0,0,1.193-5.618c-.084-4.22-.079-6.586-7.821-10.363-1.469-.717-4.464-2.652-5.994-2.079-2.282.854-2.965,1.685-4.765,3.219,0,0-2.425-.487-5.448,2.78-1.785,1.929-1.239,4.715-1.134,6.815.212,4.27,1.343,4.039,1.343,4.039.176-2.172-.194-3.078.452-6.355.219-1.108,1.866-1.476,2.988-1.713,1.079-.228,1.451-.645,5.026,2.9C923.965,412.773,925.123,412.594,931.6,412.864Z" transform="translate(-911.878 -398.882)"/><g transform="translate(19.84 16.982)"><path class="d" d="M960.316,443.848c.569-2.129,1.484-3.715,2.448-3.638s1.94,1.851.744,3.868a38.719,38.719,0,0,1-2.61,4.044C960.255,448.931,959.946,445.231,960.316,443.848Z" transform="translate(-960.157 -440.207)"/><path class="i" d="M961.908,446.13c.343-1.16.849-2.6,1.708-2.493s1,1.036-.191,2.653a9.88,9.88,0,0,0-1.451,2.464A11.06,11.06,0,0,1,961.908,446.13Z" transform="translate(-961.148 -442.225)"/></g></g></g><path class="b" d="M903.075,512.448c-1.288,7.477-1.865,25.853-5.011,24.47-1.723-.763-7.086-.735-11.575-.561-3.691.146-6.793.395-6.793.395s-.214-8.3-.131-16.783c.036-4.05.142-8.141.371-11.385q.113-1.6.154-3.071c.289-9.472-1.288-14.981-.154-16.072,1.253-1.205,15.574-4.821,16.266-6.52l1.059,5.07c2.624,4.181,6.03,2.928,6.03,2.928S904.359,504.975,903.075,512.448Z" transform="translate(-879.521 -448.385)"/><path class="e" d="M921.845,499.3c-.692,4.145-.881,7.387-2.071,15.349s-.631,11.251-1.149,16.262-1.517,12.434-1.517,12.434l8.59,1.255s.289-14.384.737-24.509a154.745,154.745,0,0,1,2.123-19.108l1.15-6.147s-3.176,3.377-6.458,3.029S921.845,499.3,921.845,499.3Z" transform="translate(-901.662 -455.406)"/><path class="b" d="M953.268,499.078c-.316,3.074,1.118,6.9.45,11.2-.446,2.865-1.035,6.359-1.644,9.879-.861,4.963-.387,17.554-.387,17.554s-19.616-.68-22.928.241-1.245-17.348-1.447-24.932,2.869-21.34,2.869-21.34,2.549-.012,6.457-3.031a7.62,7.62,0,0,0,2.829-4.315c.443,1.778,13.792,5.8,14.859,7.176a2.456,2.456,0,0,1,.372,1.154,0,0,0,0,1,0,0C954.888,493.992,953.561,496.205,953.268,499.078Z" transform="translate(-907.407 -449.218)"/><path class="e" d="M934.939,489.729c1.189-.33,5.175-2.539,6.649-4.513a11.431,11.431,0,0,0,1.9-4.194,12.094,12.094,0,0,1,1.551,3.694c.147,1.425-3.186,8.423-3.826,10.374a7.745,7.745,0,0,1-3.025-1.9A23.8,23.8,0,0,1,934.939,489.729Z" transform="translate(-912.165 -447.267)"/><path class="e" d="M918.2,482.336s-.659.98.83,3.417a20.5,20.5,0,0,0,4.733,4.751l-5.277,5.111a58.362,58.362,0,0,1-1.977-5.664c-.726-2.632-.636-5.424-.245-6.227S918.2,482.336,918.2,482.336Z" transform="translate(-900.989 -448.041)"/><path class="e" d="M934.833,527.56a1.383,1.383,0,1,1-1.28-1.479A1.383,1.383,0,0,1,934.833,527.56Z" transform="translate(-910.476 -473.808)"/><path class="e" d="M932.243,563.523a1.383,1.383,0,1,1-1.28-1.479A1.383,1.383,0,0,1,932.243,563.523Z" transform="translate(-908.95 -494.992)"/><path class="e" d="M929.652,599.485a1.383,1.383,0,1,1-1.28-1.479A1.383,1.383,0,0,1,929.652,599.485Z" transform="translate(-907.424 -516.176)"/><path class="e" d="M949.952,542.914a80.606,80.606,0,0,0,8.585.548v2.166s-3.428-.371-6.391-.371h-4.289l.373-2.343S948.184,542.765,949.952,542.914Z" transform="translate(-919.775 -483.686)"/></g><g transform="translate(743.363 484.294)"><g transform="translate(0 0.917)"><rect class="j" width="18.803" height="2.197"/><rect class="k" width="18.803" height="2.197"/></g><g transform="translate(18.803 0.917)"><rect class="j" width="24.238" height="2.197"/><rect class="k" width="24.238" height="2.197"/></g><g transform="translate(3.169 0)"><path class="l" d="M890.83,606.725v.917h3.384v-.917H890.83Z" transform="translate(-873.903 -606.725)"/><path class="l" d="M880.532,606.725v.917h3.384v-.917h-3.384Z" transform="translate(-867.837 -606.725)"/><path class="l" d="M870.234,606.725v.917h3.384v-.917h-3.384Z" transform="translate(-861.771 -606.725)"/><path class="l" d="M859.937,606.725v.917h3.384v-.917h-3.384Z" transform="translate(-855.705 -606.725)"/><path class="l" d="M933.839,606.725h-1.177v.917h3.384v-.917Z" transform="translate(-898.544 -606.725)"/><path class="l" d="M922.364,606.725v.917h3.384v-.917h-3.384Z" transform="translate(-892.478 -606.725)"/><path class="l" d="M912.066,606.725v.917h3.384v-.917h-3.384Z" transform="translate(-886.412 -606.725)"/><path class="l" d="M901.768,606.725v.917h3.384v-.917h-3.384Z" transform="translate(-880.346 -606.725)"/><path class="l" d="M849.639,606.725v.917h3.384v-.917h-3.384Z" transform="translate(-849.639 -606.725)"/></g><g transform="translate(3.169 0)"><path class="k" d="M890.83,606.725v.917h3.384v-.917H890.83Z" transform="translate(-873.903 -606.725)"/><path class="k" d="M880.532,606.725v.917h3.384v-.917h-3.384Z" transform="translate(-867.837 -606.725)"/><path class="k" d="M870.234,606.725v.917h3.384v-.917h-3.384Z" transform="translate(-861.771 -606.725)"/><path class="k" d="M859.937,606.725v.917h3.384v-.917h-3.384Z" transform="translate(-855.705 -606.725)"/><path class="k" d="M933.839,606.725h-1.177v.917h3.384v-.917Z" transform="translate(-898.544 -606.725)"/><path class="k" d="M922.364,606.725v.917h3.384v-.917h-3.384Z" transform="translate(-892.478 -606.725)"/><path class="k" d="M912.066,606.725v.917h3.384v-.917h-3.384Z" transform="translate(-886.412 -606.725)"/><path class="k" d="M901.768,606.725v.917h3.384v-.917h-3.384Z" transform="translate(-880.346 -606.725)"/><path class="k" d="M849.639,606.725v.917h3.384v-.917h-3.384Z" transform="translate(-849.639 -606.725)"/></g></g><g transform="translate(679.999 425.8)"><g transform="translate(1.257 0)"><path class="m" d="M759,464.384H692.569a1.741,1.741,0,0,0-1.764,1.967l4.654,44.992a2.234,2.234,0,0,0,2.171,1.967h66.431a1.741,1.741,0,0,0,1.764-1.967l-4.654-44.992A2.234,2.234,0,0,0,759,464.384Z" transform="translate(-690.795 -464.384)"/></g><g transform="translate(1.257 0)"><path class="n" d="M759,464.384H692.569a1.741,1.741,0,0,0-1.764,1.967l4.654,44.992a2.234,2.234,0,0,0,2.171,1.967h66.431a1.741,1.741,0,0,0,1.764-1.967l-4.654-44.992A2.234,2.234,0,0,0,759,464.384Z" transform="translate(-690.795 -464.384)"/></g><path class="l" d="M755.967,464.384H689.537a1.77,1.77,0,0,0-1.792,1.967l4,44.992a2.195,2.195,0,0,0,2.143,1.967h66.43a1.771,1.771,0,0,0,1.792-1.967l-4-44.992A2.194,2.194,0,0,0,755.967,464.384Z" transform="translate(-687.737 -464.384)"/><g class="o" transform="translate(55.88 40.048)"><path class="j" d="M824.9,567.087h0a.867.867,0,0,1-.847-.777l-.329-3.694a.7.7,0,0,1,.708-.777h0a.867.867,0,0,1,.847.777l.328,3.694A.7.7,0,0,1,824.9,567.087Z" transform="translate(-823.717 -561.838)"/><path class="j" d="M830.888,567.087h0a.867.867,0,0,1-.847-.777l-.329-3.694a.7.7,0,0,1,.708-.777h0a.867.867,0,0,1,.847.777l.328,3.694A.7.7,0,0,1,830.888,567.087Z" transform="translate(-827.247 -561.838)"/><path class="j" d="M836.88,567.087h0a.867.867,0,0,1-.847-.777l-.329-3.694a.7.7,0,0,1,.708-.777h0a.867.867,0,0,1,.847.777l.328,3.694A.7.7,0,0,1,836.88,567.087Z" transform="translate(-830.777 -561.838)"/><path class="j" d="M842.873,567.087h0a.867.867,0,0,1-.847-.777l-.328-3.694a.7.7,0,0,1,.708-.777h0a.867.867,0,0,1,.847.777l.329,3.694A.7.7,0,0,1,842.873,567.087Z" transform="translate(-834.307 -561.838)"/><path class="j" d="M848.865,567.087h0a.867.867,0,0,1-.847-.777l-.328-3.694a.7.7,0,0,1,.708-.777h0a.867.867,0,0,1,.846.777l.329,3.694A.7.7,0,0,1,848.865,567.087Z" transform="translate(-837.836 -561.838)"/></g><g transform="translate(26.057 24.463)"><path class="n" d="M802.627,610.443h-9.261v1.739l9.261.286Z" transform="translate(-776.016 -574.885)"/><path class="n" d="M767.2,551.664l2.363-27.75h-10.2l-4.418,27.471c-.6,3.176.382,6.541,2.358,8.072l2.265,1.755h12.553l-.225-1.739A7.15,7.15,0,0,1,767.2,551.664Z" transform="translate(-753.28 -523.914)"/><path class="c" d="M763.573,551.664l2.363-27.75h-10.2l-4.417,27.471c-.6,3.176.382,6.541,2.358,8.072l2.265,1.755H768.5l-2.49-1.93C764.134,557.832,763.141,554.722,763.573,551.664Z" transform="translate(-751.145 -523.914)"/><path class="n" d="M764.176,601H751.807a6.868,6.868,0,0,0,2.261,3.865l2.265,1.755h12.553l-2.49-1.93A6.781,6.781,0,0,1,764.176,601Z" transform="translate(-751.535 -569.321)"/></g></g><g transform="translate(770.559 440.183)"><path class="b" d="M1001.979,540.562s-3.841-2.107-6.9-3.493-7.556,1.106-7.556,1.106-.553-1.422-1.32-3.264c-.778-1.877-1.782-4.193-2.656-5.888a10.516,10.516,0,0,0-1.308-2.11c-1.549-1.628-1.407-3.581-1.838-4.529a.807.807,0,0,1-.044-.126c-.32-1.221.53-6.256,1.5-10.8,1-4.722,2.284-12.069,2.284-12.069.47.391,2,.766,2.853,1.751,0,0,5.569,8.47,7.927,14.309,4.279,10.6,4.971,12.8,5.691,16.7S1001.979,540.562,1001.979,540.562Z" transform="translate(-950.628 -499.384)"/><g transform="translate(0 30.425)"><g transform="translate(0 8.104)"><path class="d" d="M916.595,600.04c3.279-.664,5.728.947,7.773,1.076s9.394-.661,9.394-.661l-1.638-3.772s-8.372-.159-11.217.789A10.772,10.772,0,0,0,916.595,600.04Z" transform="translate(-913.108 -595.222)"/><path class="d" d="M928.793,594.152a64.917,64.917,0,0,0-6.464-.825c-3.542-.1-7.527-.085-8.336.586s-5.048,5.461-5.616,6.25-.3,1.685,1.468,1.061,4.69-3.991,6.465-4.781,5.067-.107,5.067-.107l6.528-.625Z" transform="translate(-908.109 -593.223)"/><path class="g" d="M923.676,593.626a44.431,44.431,0,0,0-14.7,6c-.285.339-.5.6-.6.738-.569.789-.3,1.685,1.468,1.061s4.69-3.991,6.465-4.781,5.067-.107,5.067-.107l6.528-.625.888-1.56S925.885,593.846,923.676,593.626Z" transform="translate(-908.109 -593.427)"/><path class="d" d="M928.162,594.872s-6.069-.418-7.662-.591-2.83,1.162-3.719,2.722-2.695,4.266-2.305,5.071,1.383.735,2.235-.157,1.975-3.181,3.175-3.616,5.209-1.383,5.209-1.383Z" transform="translate(-911.828 -593.804)"/><path class="g" d="M923.6,596.423c-2.513,1.053-4.727,6.924-3.875,6.032s1.976-3.181,3.174-3.616,5.209-1.383,5.209-1.383l3.067-2.046s-1.518-.1-3.234-.231A18.876,18.876,0,0,0,923.6,596.423Z" transform="translate(-914.843 -594.342)"/><path class="d" d="M944.3,599.639s-3.123-.222-4.212.855a4.043,4.043,0,0,1-3.267,1.434,13.369,13.369,0,0,1-3.818-1.6c-.867-.522-3.653,1.257-4.537,1.689a.921.921,0,0,1-1.257-1.282,5.315,5.315,0,0,1,2.092-2.223,33.3,33.3,0,0,1,3.912-1.167s-.021,0-.058-.008a.128.128,0,0,1-.037,0,17.669,17.669,0,0,0-2.745-.144,4.535,4.535,0,0,0-3.185,2.051c-.99,1.319-2.051,2.807-2.614,3.049a.472.472,0,0,1-.538-.148,2.063,2.063,0,0,1-.045-2.26,33.575,33.575,0,0,1,3.62-5.244c.994-1.237,2.486-1.34,3.9-1.389s4.7-.037,4.7-.037,3.633-.086,5.622-.062C943.021,593.162,944.3,599.639,944.3,599.639Z" transform="translate(-917.288 -593.141)"/><path class="g" d="M964.939,593.148c-.436-.005-.951,0-1.489,0a45.838,45.838,0,0,1-.521,7.6c.09-.081.181-.16.272-.249,1.089-1.075,4.214-.853,4.214-.853S966.135,593.162,964.939,593.148Z" transform="translate(-940.401 -593.143)"/><path class="g" d="M933.705,601.807s-.021,0-.058-.008a.126.126,0,0,1-.037,0,17.678,17.678,0,0,0-2.745-.144,4.535,4.535,0,0,0-3.185,2.051c-.99,1.319-2.051,2.807-2.614,3.049a.472.472,0,0,1-.538-.148,37.434,37.434,0,0,0,2.716-4.233c.822-1.393,3.226-1.631,3.8-1.648A11.38,11.38,0,0,1,933.705,601.807Z" transform="translate(-917.781 -597.606)"/></g><path class="b" d="M982.747,575.968a25.132,25.132,0,0,1-7.345,3.685,62.984,62.984,0,0,1-7.581,1.877s.345,3.862.463,7.894c0,0,10.274,1.623,16.967.32s8.372-1.088,9.5-4-.732-8.624-1.592-11.14S986.922,574.054,982.747,575.968Z" transform="translate(-943.283 -573.421)"/><path class="e" d="M964.9,592.3c1.1,1.47,1.08,3.7,1.347,6.766.187,2.148-.539,2.088-.539,2.088l5.621-.173a14.973,14.973,0,0,0-.256-6.245l-.888-2.993Z" transform="translate(-941.562 -584.212)"/></g></g><g transform="translate(822.175 456.243)"><g transform="translate(5.66 4.543)"><path class="p" d="M1047.507,563.865a2.285,2.285,0,0,1,1.6-1.811c.6-.171,1.333-.114,1.761-.575.475-.512.279-1.319.269-2.018a3.419,3.419,0,0,1,2.227-3.188,4.824,4.824,0,0,0,1.679-.656,3.433,3.433,0,0,0,.792-1.665,7.771,7.771,0,0,1,2.649-3.818,2.123,2.123,0,0,1,1.806-.565,1.5,1.5,0,0,1,.971,1.1,2.649,2.649,0,0,1-.141,1.51c-.673,1.862-2.565,3.156-2.977,5.092-.2.958-.015,1.968-.226,2.925a3.62,3.62,0,0,1-2.064,2.5,3.159,3.159,0,0,0-1.422.788c-.375.509-.241,1.214-.322,1.841a3.012,3.012,0,0,1-2.826,2.452,4.031,4.031,0,0,1-3.418-1.848A5.015,5.015,0,0,1,1047.507,563.865Z" transform="translate(-1047.485 -549.519)"/></g><g transform="translate(6.383 0)"><path class="q" d="M1054.837,556.011a2.084,2.084,0,0,0,.236-2.19c-.256-.512-.742-.968-.694-1.539.052-.635.717-1,1.193-1.419a3.116,3.116,0,0,0,.78-3.456c-1.04-2.446,1.2-4.619.992-7.216a1.935,1.935,0,0,0-.729-1.562,1.366,1.366,0,0,0-1.338.023,2.411,2.411,0,0,0-.93,1.022c-.682,1.295-.712,2.718-1.169,4.072-.433,1.282-1.5,1.929-2.263,3a3.3,3.3,0,0,0-.416,2.923,2.883,2.883,0,0,1,.342,1.441c-.113.565-.669.908-1.042,1.347a2.744,2.744,0,0,0,.084,3.408,3.673,3.673,0,0,0,3.342,1.167A4.576,4.576,0,0,0,1054.837,556.011Z" transform="translate(-1049.245 -538.465)"/></g><g transform="translate(0 6.795)"><path class="q" d="M1045.02,567.284a1.918,1.918,0,0,0-1.3-1.551c-.5-.156-1.115-.124-1.464-.519-.388-.439-.206-1.111-.183-1.7a2.866,2.866,0,0,0-1.8-2.719,4.033,4.033,0,0,1-1.393-.586,2.871,2.871,0,0,1-.628-1.412,6.516,6.516,0,0,0-2.139-3.255,1.78,1.78,0,0,0-1.5-.511,1.258,1.258,0,0,0-.837.9,2.221,2.221,0,0,0,.087,1.268c.525,1.575,2.083,2.7,2.388,4.331.151.807-.029,1.65.127,2.456a3.034,3.034,0,0,0,1.677,2.138,2.651,2.651,0,0,1,1.175.69c.3.435.177,1.023.231,1.55a2.525,2.525,0,0,0,2.317,2.114,3.38,3.38,0,0,0,2.9-1.477A4.208,4.208,0,0,0,1045.02,567.284Z" transform="translate(-1033.713 -555)"/></g><g transform="translate(3.208 0.385)"><path class="p" d="M1042.575,554.467a13.715,13.715,0,0,0-.84-1.554,3.8,3.8,0,0,1,.252-3.024,4.814,4.814,0,0,0,.683-2.192,6.225,6.225,0,0,0-.395-1.4,9.525,9.525,0,0,1-.2-3.448,6.383,6.383,0,0,1,.365-2.068,1.927,1.927,0,0,1,3.729.113,5.932,5.932,0,0,1,.164,2.856,7.361,7.361,0,0,0,.028,2.87,30.462,30.462,0,0,0,1.5,2.913,4.549,4.549,0,0,1-.246,3.911,9.79,9.79,0,0,0-1.017,1.769c-.431,1.367.438,2.776.614,4.2a3.278,3.278,0,0,1-.686,2.557c-1.373,1.563-3.627.482-4.124-1.271a7.685,7.685,0,0,1-.406-3C1042.153,556.631,1042.9,555.574,1042.575,554.467Z" transform="translate(-1041.518 -539.402)"/></g><path class="l" d="M1049.7,593.833h-9.055l-2.989-14.525h15.032Z" transform="translate(-1036.037 -562.524)"/></g></g></svg>