<svg xmlns="http://www.w3.org/2000/svg" xmlns:xlink="http://www.w3.org/1999/xlink" width="163.141" height="240.946" viewBox="0 0 163.141 240.946"><defs><style>.a,.y{opacity:0.95;}.a{fill:url(#a);}.b{fill:#4598e6;}.c{fill:#96bfe6;}.d{fill:#e65353;}.e{fill:#eea987;}.f{fill:#d98b52;}.g{fill:#b84343;}.h{fill:#c78d71;}.i{fill:#323657;}.j{fill:#fccca2;}.k{fill:#eea886;}.l{fill:#e55353;}.m{fill:#a77860;}.n{fill:#ebeeff;}.o{fill:#181929;}.p{fill:#22243b;}.q{fill:#292c47;}.r{fill:#cfbeb6;}.s{fill:#3a3f47;}.t{fill:#23263d;}.u{fill:#faa146;}.v{fill:#d44040;}.w{fill:#eddad3;}.x{fill:#8f5c28;}.z{fill:url(#c);}</style><linearGradient id="a" x1="0.5" y1="1.147" x2="0.5" y2="0.24" gradientUnits="objectBoundingBox"><stop offset="0" stop-color="#d1d7e0"/><stop offset="1" stop-color="#ebebff"/></linearGradient><linearGradient id="c" x1="0" y1="0.5" x2="1" y2="0.5" xlink:href="#a"/></defs><g transform="translate(-1477.847 -222.252)"><path class="a" d="M52.658,0h0a52.657,52.657,0,0,1,52.657,52.657v18.3a52.657,52.657,0,0,1-52.657,52.657h0A52.657,52.657,0,0,1,0,70.959v-18.3A52.658,52.658,0,0,1,52.658,0Z" transform="translate(1535.672 288.945)"/><g transform="translate(1583.423 361.871)"><rect class="b" width="8.353" height="1.547" transform="translate(0 0)"/></g><g transform="translate(1551.711 376.046)"><rect class="c" width="48.604" height="2.995" transform="translate(0)"/><rect class="c" width="39.304" height="2.995" transform="translate(0 14.38)"/><rect class="c" width="23.042" height="2.995" transform="translate(0 7.19)"/></g><g transform="translate(1552.548 301.272)"><path class="b" d="M2050.375,763.9v1.513h8.907v8.359h1.513V763.9Zm-60.483,9.872h1.513v-8.359h8.907V763.9h-10.419Zm69.39,43.133v8.362h-8.907v1.513h10.419v-9.875Zm-67.877,0h-1.513v9.875h10.419v-1.513H1991.4Z" transform="translate(-1989.892 -763.902)"/></g><g transform="translate(1609.828 375.827)"><g transform="translate(0 0)"><path class="b" d="M2391.428,1292.755a8.907,8.907,0,1,1,8.907-8.907A8.917,8.917,0,0,1,2391.428,1292.755Zm0-16.091a7.183,7.183,0,1,0,7.183,7.183A7.191,7.191,0,0,0,2391.428,1276.664Z" transform="translate(-2382.521 -1274.94)"/></g><g transform="translate(4.293 6.011)"><path class="b" d="M2415.991,1322.546l-4.047-4.047,1.219-1.219,2.828,2.828,3.964-3.964,1.219,1.219Z" transform="translate(-2411.944 -1316.144)"/></g></g><rect class="a" width="56.536" height="50.918" rx="25.459" transform="translate(1530.572 233.76)"/><g transform="translate(1556.383 275.048)"><rect class="b" width="4.484" height="0.831" transform="translate(0)"/></g><g transform="translate(1539.808 242.975)"><path class="b" d="M1935.036,364.3v.812h4.781V369.6h.812v-5.3Zm-32.469,5.3h.812v-4.487h4.781V364.3h-5.593Zm37.25,23.155v4.489h-4.781v.812h5.593v-5.3Zm-36.438,0h-.812v5.3h5.593v-.812h-4.781Z" transform="translate(-1902.567 -364.297)"/></g><g transform="translate(1553.178 274.233)"><g transform="translate(0 34.429)"><path class="d" d="M2061.168,853.947h-9.991c-.657-4.784-1.465-10.245-1.465-10.245s-.4,4.506-.9,10.245h-39.98a70.183,70.183,0,0,0-.962-9.1c-.23-.115-1.655,4.463-2.839,9.1h-10.823c2.784-11.991,7.975-31.229,10.977-32.381,4.273-1.643,21.7-7.013,21.7-7.013h9.943s17.669,5.041,19.313,10.522A194.027,194.027,0,0,1,2061.168,853.947Z" transform="translate(-1994.213 -814.553)"/></g><g transform="translate(26.992 2.084)"><path class="e" d="M2190.343,592.929s9.285,1.463,7.871,15.99-9.609,13.336-10.156,13.321-8.226.265-8.825-17.471C2179.232,604.769,2178.971,591.653,2190.343,592.929Z" transform="translate(-2179.232 -592.842)"/></g><g transform="translate(30.073 25.629)"><path class="e" d="M2212.713,755.805s-.255,5.975.323,7.269-7.662,5.448-12.687.818c0,0,1.214-6.493.876-8.8S2212.713,755.805,2212.713,755.805Z" transform="translate(-2200.349 -754.23)"/></g><g transform="translate(45.578 13.579)"><path class="e" d="M2307.169,672.113s1.017-1.086,1.39.013-1.577,6.012-1.45,6.232c0,0-.186.426-.43.192S2307.169,672.113,2307.169,672.113Z" transform="translate(-2306.629 -671.635)"/></g><g transform="translate(25.653 13.379)"><path class="e" d="M2171.5,670.757s-1-1.106-1.39-.013,1.46,6.041,1.329,6.259c0,0,.177.43.426.2S2171.5,670.757,2171.5,670.757Z" transform="translate(-2170.051 -670.262)"/></g><g transform="translate(25.92)"><path class="f" d="M2192.077,594.842l-1.329,1.777a35.548,35.548,0,0,0-.176-4.507c-.213-.611-.54-2.477-.718-2.917s-7.973-2.624-14.858.638c0,0,.3,2.8-.357,3.051s-.336,4.563-.336,4.563l-1.093-1.233s-1.673-11.176-1.26-12.341,1.729-8.168,15.855-4.011c0,0,4.4-.933,5.288,2.108S2192.077,594.842,2192.077,594.842Z" transform="translate(-2171.884 -578.557)"/></g><g transform="translate(30.068 34.428)"><path class="e" d="M2213.009,814.587s2.095.447-6.671,8.848c0,0-6.218-6.878-6.016-8.03S2213.009,814.587,2213.009,814.587Z" transform="translate(-2200.316 -814.542)"/></g><g transform="translate(36.089 33.218)"><path class="g" d="M2241.587,816.356l2.393,4.091,7.1-12.049L2248,806.254Z" transform="translate(-2241.587 -806.254)"/></g><g transform="translate(26.992 34.083)"><path class="g" d="M2188.329,821.416l-5.805-9.238-3.292,2.115,5.9,11.213Z" transform="translate(-2179.232 -812.179)"/></g><g transform="translate(33.884 43.287)"><path class="g" d="M2226.881,900.9c.072,1.362.1,3.033.107,4.91h-.329c0-1.869-.036-3.536-.107-4.895-.538-10.248,1.945-22.718,1.96-25.641l.321.063C2228.817,878.26,2226.343,890.694,2226.881,900.9Z" transform="translate(-2226.476 -875.274)"/></g><path class="h" d="M2212.281,780.655a6.181,6.181,0,0,0,5.322,1.71,8.972,8.972,0,0,0,4.5-2.049,5.792,5.792,0,0,1-4.833,3.367A5.13,5.13,0,0,1,2212.281,780.655Z" transform="translate(-2180.468 -750.883)"/></g><g transform="translate(1544.797 223.923)"><g transform="translate(0 26.041)"><path class="i" d="M1947.783,412.207s-2.775,10.445-3.354,12.8a19.557,19.557,0,0,1-1.435,3.332c-.005.01-.01.02-.018.032a2.663,2.663,0,0,0-.26.849c-.112.871.222,1.557-.357,2.59l-.1.434h-5.493c.641-1.9,1.455-4.327,2.106-6.279.546-1.647.978-2.958,1.093-3.337.339-1.133,1.585-4.8,2.643-7.238.369-.849,1.792-1.687,3.052-2.294C1946.785,412.559,1947.783,412.207,1947.783,412.207Z" transform="translate(-1936.762 -412.207)"/></g><g transform="translate(7.217 0)"><path class="j" d="M1986.359,244.826s-1.751-11.328,7.631-11.119,9.257,5.81,9.089,11.37-3.762,5.141.293,12.875-3.511,7.733-3.511,7.733l-5.871-8.068Z" transform="translate(-1986.23 -233.704)"/></g><g transform="translate(7.325 0.958)"><path class="k" d="M1993.6,240.4s-6.354,1-6.6,10.032,1.714,10.952,7.273,9.071,7.315-11.328,7.441-12.791S2002.167,239.314,1993.6,240.4Z" transform="translate(-1986.973 -240.269)"/></g><g transform="translate(1.446 23.024)"><path class="l" d="M1970.338,401c.022,3.107-3.549,10.54-4.1,12.836-.065.267-.135.514-.2.746h-17.34c-.09-1.071-.175-1.987-.217-2.5-.137-1.7-1.857-5.353-1.8-7.055.06-1.735.911-3.232,2.1-5.084.369-.574.758-1.158,1.145-1.727a32.841,32.841,0,0,1,3.142-4.113,10.089,10.089,0,0,1,1.265-1.008l0,0a5.843,5.843,0,0,1,1.3-.686l5.461-.874s3.4,1.233,5.363,1.69C1966.459,393.214,1970.28,393.773,1970.338,401Z" transform="translate(-1946.674 -391.524)"/></g><g transform="translate(3.018 24.584)"><path class="l" d="M1963.539,402.216l-3.165,4.989-2.922,4.6c.007-.025.2-.722.531-2.741.063-.383.13-.814.2-1.3a3.453,3.453,0,0,1,.092-.425h0c1.25-2.883,5.116-5.056,5.258-5.128Z" transform="translate(-1957.452 -402.216)"/></g><g transform="translate(10.028 15.993)"><path class="k" d="M2013.668,343.461c-.551,1.04-1.132,7.5-1.132,7.5s-7.771,2.937-6.976,1.276a6.352,6.352,0,0,0,.474-2.576,12.521,12.521,0,0,0-.086-1.568c-.02-.17-.036-.268-.036-.268S2014.219,342.42,2013.668,343.461Z" transform="translate(-2005.503 -343.328)"/></g><g transform="translate(7.346 0.805)"><path class="j" d="M1991.13,245.989s3.26,5.309,6.228,7.4,1.463,3.762,1.463,3.762,7.744-16.3.382-17.431-11.877-1.212-12.086,9.823C1987.117,249.542,1990.461,245.905,1991.13,245.989Z" transform="translate(-1987.117 -239.225)"/></g><g transform="translate(10.474 20.088)"><path class="m" d="M2012.985,371.4c-1.193,1.76-4.345,2.233-4.345,2.233h0a12.521,12.521,0,0,0-.086-1.568A8.875,8.875,0,0,0,2012.985,371.4Z" transform="translate(-2008.554 -371.402)"/></g><path class="n" d="M1961.4,407.322h0a6.515,6.515,0,0,0-.307,1.756l1.145-1.727s2.044-2.931,2.745-3.693a11.631,11.631,0,0,1,1.663-1.43S1962.625,404.16,1961.4,407.322Z" transform="translate(-1957.545 -377.642)"/><path class="l" d="M2058.828,412.7s4.988-1.956,6.463-2.07c0,0-1-8.01-5.9-7.161S2058.828,412.7,2058.828,412.7Z" transform="translate(-2039.506 -378.645)"/><path class="k" d="M1992.416,392.3s-3.662,5.631-2.422,6.123,7.949-.656,10.8-6C2000.8,392.416,1996.53,390.229,1992.416,392.3Z" transform="translate(-1982.009 -368.401)"/><path class="i" d="M2036.585,402.645c-.255,4.415-1.507,8.6-2.541,12.446-.15.557-.294,1.108-.429,1.65H2023.46c-.025-1.522-.02-2.865.027-3.986.511-12.254,4.4-18.7,4.4-18.7s1.24.417,4.809,1.428c2.446.691,3.369,3.8,3.706,5.69a.2.2,0,0,1,.005.022A13.5,13.5,0,0,1,2036.585,402.645Z" transform="translate(-2010.799 -370.664)"/><path class="i" d="M1954.859,397.529a29.4,29.4,0,0,0-1.51,3.03,32.9,32.9,0,0,0-2.833,11.937,70.275,70.275,0,0,1-.814,7.21h-2.026a32.183,32.183,0,0,0-1.116-6.279c-.277-.986-.531-1.722-.669-2.189-.646-2.2,1.42-5.126,2.112-6.174S1950.354,399.206,1954.859,397.529Z" transform="translate(-1944.454 -373.629)"/><path class="i" d="M2067.079,424.188h-5.453a7.231,7.231,0,0,0-.322-1.65c-.991-3.521-3.923-10.377-3.923-10.377s-4.388-7.17-.23-9,5.947,3.279,6.506,5.458a.16.16,0,0,1,.005.022C2063.8,409.166,2066.275,418.6,2067.079,424.188Z" transform="translate(-2038.058 -378.111)"/></g><g transform="translate(1494.643 316.067)"><g transform="translate(44.921 16.304)"><path class="k" d="M1900.919,982.039a7.4,7.4,0,0,1,.042-1.693c.235-.93-.111-2.437,1.059-3.167s4.533,2.33,4.8,3.184-.993,2.312-3.623,3.536S1900.919,982.039,1900.919,982.039Z" transform="translate(-1900.887 -977.067)"/></g><g transform="translate(45.695 10.301)"><path class="k" d="M1906.2,942.339a39.792,39.792,0,0,1,2.634-3.454c1.315-1.531,3.161-3.249,3.55-2.923.591.5-1.083,1.73-2.284,3.336-1.105,1.479-.637,1.374-.637,1.374s-.135.023,1.387-1.353c1.636-1.479,3.456-3,3.78-2.738.4.324.424.4-.08,1.032.37-.3.506-.243.648-.1.737.74-1.324,3.29-2.143,4.3.634-.774,1.183-1.273,1.341-.529.181.851-2.9,4.324-3.879,5.674C1909.443,948.435,1906.2,942.339,1906.2,942.339Z" transform="translate(-1906.196 -935.922)"/></g><g transform="translate(0 139.011)"><path class="o" d="M1599.333,1818.577s3.2,1.892,4.649,2.6,7.079.9,7.636,1.433.353,2.212-.581,2.383-7.776.791-10.06.257-6.553.365-7.5.044-.336-5.419.03-6.564S1599.333,1818.577,1599.333,1818.577Z" transform="translate(-1592.975 -1818.175)"/></g><g transform="translate(0.783 137.328)"><path class="p" d="M1604.185,1806.641l-.267,2.084s-4.279.8-5.575.141l.321-2.166Z" transform="translate(-1598.343 -1806.641)"/></g><g transform="translate(0 57.003)"><path class="q" d="M1616.766,1265.165c-.046,1.444-.308,4.576-.615,7.865-.068.731-.14,1.47-.21,2.2-.427,4.426-.858,8.52-.858,8.52-.541,3.523-1.655,9.641-2.9,14.265h0c-.36,1.335-.729,2.545-1.1,3.533a8.718,8.718,0,0,1-1.075,2.162c-2.651,3.387-8.731,33.414-8.731,33.414l-8.3-.063s1.825-20.333,3.66-25.486c2.046-5.756,5.6-13.513,4.719-19.065-.552-3.484-1.266-14.573-1.266-14.573s-.693-12.46,2.566-21.587C1603.469,1254.07,1616.766,1265.165,1616.766,1265.165Z" transform="translate(-1592.977 -1256.041)"/></g><g transform="translate(23.264 139.744)"><path class="o" d="M1758.858,1823.646s3.177,1.93,4.618,2.651,7.068.99,7.618,1.525.326,2.216-.609,2.376-7.785.7-10.062.136-6.557.286-7.5-.047-.271-5.423.109-6.563S1758.858,1823.646,1758.858,1823.646Z" transform="translate(-1752.443 -1823.196)"/></g><g transform="translate(24.102 138.105)"><path class="p" d="M1764.055,1811.971l-.292,2.081s-4.288.749-5.576.074l.347-2.162Z" transform="translate(-1758.187 -1811.964)"/></g><g transform="translate(11.669 58.023)"><path class="q" d="M1681.344,1313.347c-.216-6.641-.8-11.053-2.511-14.89-1.435-3.222-2.663-13.34-2.663-13.34s-3.889-11.857-3.1-21.516c.2-2.412,15.231,3.652,15.231,3.652a88.9,88.9,0,0,1,1.691,9.116,201.376,201.376,0,0,1,1.274,30.975c-1.163,4.142,1.775,36.727,1.775,36.727h-8.461s-2.219-11.592-2.452-18.8C1682.125,1325.27,1681.26,1314.495,1681.344,1313.347Z" transform="translate(-1672.962 -1263.033)"/></g><g transform="translate(7.062 20.78)"><path class="r" d="M1654.183,1009.375s3.943,6.463,5.095,10.07.224,14.092.428,16.2c.631,6.539,1.551,13.737,1.551,13.737l-13.216,8.442a130.652,130.652,0,0,1-4.441-12.44,58.018,58.018,0,0,1-2.216-17.261c.061-13.019,7.1-20.37,7.1-20.37Z" transform="translate(-1641.384 -1007.753)"/></g><g transform="translate(11.541 2.536)"><path class="k" d="M1685.26,885.226s2.71,2.9,1.944,3.663c-.632.63,1.859,3.52,2.213,4.006s-1.106,1.29-1.347,1.726-.1,4.985-1.353,5.452-7.588-.027-9.6-1.255-5.257-8.31-5.025-11.717S1680.494,880.169,1685.26,885.226Z" transform="translate(-1672.082 -882.695)"/></g><g transform="translate(14.924 7.458)"><path class="k" d="M1702.505,927.906s-.047.387-.108.986c-.023.251-.054.537-.081.85-.016.185-.031.383-.05.584,0,.054-.012.108-.015.162-.008.093-.016.186-.023.282-.031.437-.062.889-.085,1.337a14.089,14.089,0,0,0,.058,2.876c.332,1.685-6.927-5.427-6.927-5.427a83.1,83.1,0,0,0,.317-11.716C1695.289,911.641,1702.505,927.906,1702.505,927.906Z" transform="translate(-1695.273 -916.432)"/></g><g transform="translate(10.385 0)"><path class="s" d="M1679.05,871.016s1.282-3.024-2.672-5.124c-4.654-2.472-9.589,3.734-10.244,4.1s-3.63,3.714-.719,8.153c3.675,5.6,3.481,5.414,3.481,5.414s.369-4.132.344-4.929c-.044-1.457,3.779-1.63,3.779-1.63s-1.57-2.09.175-3.027S1676.982,870.812,1679.05,871.016Z" transform="translate(-1664.16 -865.313)"/></g><g transform="translate(14.333 9.944)"><path class="k" d="M1694.125,934.689c-.278-.391-1.3-2.117-2.613-.6s2.208,4.35,2.5,4.322S1696.466,937.978,1694.125,934.689Z" transform="translate(-1691.22 -933.475)"/></g><g transform="translate(7.545 61.64)"><path class="t" d="M1664.8,1291.386s-.657-3.092-.785-3.554l-19.328,3.216.2,2.5S1658.816,1292.713,1664.8,1291.386Z" transform="translate(-1644.692 -1287.832)"/></g><g transform="translate(4.126 51.573)"><path class="u" d="M1622.958,1218.827a58.447,58.447,0,0,1-1.681,27.782c-.568,1.826,12.871-.284,12.871-.284Z" transform="translate(-1621.259 -1218.827)"/></g><g transform="translate(5.025 20.781)"><path class="u" d="M1645.292,1065.108s-9.546,2.1-12.227,1.148a191.792,191.792,0,0,1-5.262-28.6q-.158-1.67-.267-3.334v0c-.76-11.719,2.223-23.609,9.02-26.565.191.129,9.764,8.569,9.582,16.294q-.02.784-.024,1.573c-.006.949,0,1.9.022,2.851h0c.061,2.938.243,5.87.5,8.716.026.3.055.593.084.887q.07.718.146,1.426.1.944.213,1.87A63.751,63.751,0,0,1,1645.292,1065.108Z" transform="translate(-1627.42 -1007.757)"/></g><g transform="translate(22.505 27.908)"><path class="v" d="M1747.235,1056.748a106.181,106.181,0,0,1,2.484,16.077c.574,7.495,1.339,12.795,1.339,12.795l1.148,3.71.472-3.578s-.421-9.672-.982-13.607c-.566-3.967-.813-9-3.985-15.536Z" transform="translate(-1747.235 -1056.608)"/></g><g transform="translate(22.005 25.791)"><path class="v" d="M1744.11,1044.361a1.065,1.065,0,0,0,.524.253c.307.046.745-.445-.822-2.515Z" transform="translate(-1743.811 -1042.1)"/></g><g transform="translate(14.161 19.711)"><path class="w" d="M1690.892,1000.42s4.445,4.186,7.09,5.11l.5,4.01-8.442-8.05Z" transform="translate(-1690.045 -1000.42)"/></g><g transform="translate(10.571 19.81)"><path class="u" d="M1672.855,1017.209c-1.752-.623-9.034-4.157-7.1-8.284s6.929-1.931,10.687-.253c3.932,1.756,13.214,7.153,13.949,6.651s3.945-5.1,4.526-6.121,4.085-7.568,4.415-8.062,5.413,3.793,5.413,3.793-9.141,16.234-11.6,18.819S1672.855,1017.209,1672.855,1017.209Z" transform="translate(-1665.433 -1001.102)"/></g><g transform="translate(15.209 85.242)"><path class="o" d="M1701.224,1463.346h0c-.36,1.334-.729,2.545-1.1,3.533h0l-2.894-17.266C1697.96,1451.25,1701.224,1463.346,1701.224,1463.346Z" transform="translate(-1697.228 -1449.613)"/></g><g transform="translate(15.365 34.658)"><path class="x" d="M1706.669,1109.717l-8.375-6.841c2.219,1.189,7.671,3.679,8.354,3.99C1706.642,1107.815,1706.649,1108.767,1706.669,1109.717Z" transform="translate(-1698.294 -1102.876)"/></g><g transform="translate(16.865 18.82)"><path class="m" d="M1713.757,995.414c-.023.251-.054.537-.081.851-.016.185-.031.383-.05.584a8.664,8.664,0,0,1-5.052-2.532C1709.7,995.213,1713.757,995.414,1713.757,995.414Z" transform="translate(-1708.574 -994.316)"/></g></g><g class="y" transform="translate(1607.616 267.64)"><path class="z" d="M2481.773,549.378h4.4l-1.346-2.792h-4.4Z" transform="translate(-2463.931 -544.658)"/><path class="z" d="M2467.669,549.378h1.048l-1.346-2.792h-1.048Z" transform="translate(-2451.885 -544.658)"/><path class="z" d="M2367.948,534.76h17.806l-.591-1.4h-17.806Z" transform="translate(-2367.357 -533.365)"/></g><g transform="translate(1505.446 222.252)"><g transform="translate(0 0)"><rect class="z" width="7.545" height="2.274" rx="1.137"/></g><g transform="translate(0 5.453)"><rect class="z" width="7.545" height="2.274" rx="1.137"/></g><g transform="translate(0 10.905)"><path class="z" d="M1.137,0H6.409A1.137,1.137,0,0,1,7.545,1.137v0A1.137,1.137,0,0,1,6.408,2.274H1.137A1.137,1.137,0,0,1,0,1.137v0A1.137,1.137,0,0,1,1.137,0Z"/></g><g transform="translate(10.661 0)"><rect class="z" width="2.147" height="2.274" rx="1.074"/></g><g transform="translate(10.661 5.453)"><rect class="z" width="2.147" height="2.274" rx="1.074"/></g><g transform="translate(10.661 10.905)"><path class="z" d="M1.073,0h0A1.073,1.073,0,0,1,2.147,1.073V1.2A1.074,1.074,0,0,1,1.073,2.274h0A1.073,1.073,0,0,1,0,1.2V1.073A1.073,1.073,0,0,1,1.073,0Z"/></g></g><g transform="translate(1477.847 348.461)"><path class="z" d="M1505.58,1092.371h7.893l-2.416-5.011h-7.893Z" transform="translate(-1499.471 -1087.36)"/><path class="z" d="M1480.263,1092.371h1.881l-2.416-5.011h-1.881Z" transform="translate(-1477.847 -1087.36)"/></g></g></svg>