<svg xmlns="http://www.w3.org/2000/svg" xmlns:xlink="http://www.w3.org/1999/xlink" width="417.293" height="208.646" viewBox="0 0 417.293 208.646"><defs><style>.a{fill:#fff594;}.b,.g{fill:#3f0800;}.c{fill:url(#a);}.d,.e{fill:#6ab3f2;}.an,.d{opacity:0.73;}.f{fill:#772a2c;}.g{opacity:0.2;}.h{fill:#5b1800;}.i{fill:#d1937f;}.j{fill:#ae633c;}.k{fill:url(#b);}.l{fill:#63bae5;}.m{fill:#e26464;}.n{fill:#668d12;}.o{fill:#9bae05;}.p{fill:#fff;}.q{fill:#ffe1ba;}.r{fill:#ffc256;}.s{fill:#ffa244;}.by,.t{fill:#4a0e1f;}.u{fill:#741928;}.v{fill:#b70400;}.w{fill:#f93d31;}.x{fill:#d8fff2;}.y{opacity:0.38;fill:url(#c);}.az,.ca,.y{mix-blend-mode:color-dodge;}.aa,.ak,.an,.az,.bg,.bj,.bt,.bu,.bv,.ca,.cd,.cl,.y{isolation:isolate;}.z{fill:url(#d);}.aa{fill:#728bff;opacity:0.29;}.aa,.ak,.an,.bg,.bj,.bt,.bu,.bv,.cd,.cl{mix-blend-mode:multiply;}.ab{fill:#6a84dd;}.ac{fill:url(#e);}.ad{fill:#430000;}.ae{fill:#c4552d;}.af{fill:url(#g);}.ag{fill:#e16736;}.ah{fill:#000036;}.ai,.ak,.an{fill:#b68086;}.aj{fill:url(#i);}.ak{opacity:0.48;}.al{fill:#b6a0b0;}.am{fill:#83514a;}.ao{fill:url(#j);}.ap,.cd{fill:url(#k);}.aq,.au,.bi{fill:#590800;}.ar{fill:url(#l);}.as{fill:url(#m);}.at{fill:url(#n);}.au{opacity:0.56;}.av{fill:url(#p);}.aw{fill:#007a8e;}.ax{fill:#006177;}.ay{fill:#004254;}.az{opacity:0.57;fill:url(#q);}.ba,.bg{fill:#0056ac;}.bb{fill:#f47100;}.bc{fill:#fe9300;}.bd{fill:#ea0400;}.bd,.bv{opacity:0.32;}.be{fill:url(#t);}.bf{fill:url(#u);}.bg{opacity:0.61;}.bh{fill:url(#w);}.bi,.bs{opacity:0.5;}.bj{fill:#2f0e1c;}.bk{fill:#2a071c;opacity:0.7;}.bl{fill:url(#z);}.bm{fill:#873b3d;}.bn{fill:#1b071c;}.bo{fill:url(#aa);}.bp,.bt,.bv{fill:url(#ab);}.bq{fill:url(#ac);}.br{fill:url(#ad);}.bs{fill:#840800;}.bu{fill:url(#aj);}.bw{fill:#d50000;}.bx{fill:#009578;}.by{opacity:0.58;}.bz{fill:#ffb660;}.ca{opacity:0.49;fill:url(#al);}.cb{fill:#61363d;}.cc{fill:url(#am);}.cd,.cl{opacity:0.66;}.ce{fill:#e1784e;}.cf{fill:url(#ao);}.cg{fill:url(#ap);}.ch{fill:url(#aq);}.ci{fill:url(#ar);}.cj{fill:url(#as);}.ck{fill:#b30023;}.cl{fill:url(#av);}.cm{fill:url(#aw);}.cn{fill:url(#ax);}.co{opacity:0.72;fill:url(#ay);}.cp{fill:url(#bb);}.cq{fill:url(#bc);}</style><linearGradient id="a" x1="0.5" y1="1" x2="0.5" gradientUnits="objectBoundingBox"><stop offset="0" stop-color="#c4f7fd"/><stop offset="1" stop-color="#6addff"/></linearGradient><linearGradient id="b" x1="0.5" y1="1" x2="0.5" gradientUnits="objectBoundingBox"><stop offset="0" stop-color="#ffffbe"/><stop offset="0.995" stop-color="#fff0ff"/></linearGradient><linearGradient id="c" x1="0.5" y1="1" x2="0.5" gradientUnits="objectBoundingBox"><stop offset="0"/><stop offset="1" stop-color="#7195c2"/></linearGradient><linearGradient id="d" x1="0.018" y1="0.5" x2="1.018" y2="0.5" gradientUnits="objectBoundingBox"><stop offset="0" stop-color="#93bbd4"/><stop offset="1" stop-color="#d6f7ff"/></linearGradient><linearGradient id="e" x1="0.5" y1="1" x2="0.5" y2="0" xlink:href="#d"/><linearGradient id="g" x1="0.651" y1="0.966" x2="0.357" y2="0.038" gradientUnits="objectBoundingBox"><stop offset="0" stop-color="#fdc38b"/><stop offset="1" stop-color="#fda37d"/></linearGradient><linearGradient id="i" x1="0.51" y1="1.159" x2="0.453" y2="0.078" xlink:href="#g"/><linearGradient id="j" x1="0.5" y1="1" x2="0.5" gradientUnits="objectBoundingBox"><stop offset="0" stop-color="#1b4a86"/><stop offset="1" stop-color="#22006b"/></linearGradient><linearGradient id="k" x1="0.5" y1="1" x2="0.5" gradientUnits="objectBoundingBox"><stop offset="0" stop-color="#ca0000"/><stop offset="1" stop-color="#a80009"/></linearGradient><linearGradient id="l" x1="0.605" y1="0.986" x2="0.429" y2="-0.03" xlink:href="#g"/><linearGradient id="m" x1="0.791" y1="1.006" x2="0.375" y2="0.017" xlink:href="#g"/><linearGradient id="n" x1="0.993" y1="0.452" x2="0.005" y2="0.621" gradientUnits="objectBoundingBox"><stop offset="0" stop-color="#7d1831"/><stop offset="1" stop-color="#5c0000"/></linearGradient><linearGradient id="p" x1="0.5" y1="1" x2="0.5" gradientUnits="objectBoundingBox"><stop offset="0" stop-color="#130025"/><stop offset="1" stop-color="#630033"/></linearGradient><linearGradient id="q" x1="0.5" y1="1" x2="0.5" gradientUnits="objectBoundingBox"><stop offset="0"/><stop offset="1" stop-color="#ffa49d"/></linearGradient><linearGradient id="t" x1="0.5" y1="1" x2="0.5" gradientUnits="objectBoundingBox"><stop offset="0" stop-color="#00a440"/><stop offset="1" stop-color="#1e55e5"/></linearGradient><linearGradient id="u" x1="0.447" y1="0.987" x2="0.616" y2="0.026" xlink:href="#g"/><linearGradient id="w" x1="0.5" y1="1" x2="0.5" gradientUnits="objectBoundingBox"><stop offset="0" stop-color="#6f160d"/><stop offset="1" stop-color="#a43113"/></linearGradient><linearGradient id="z" x1="0.416" y1="1.366" x2="0.564" y2="-0.107" xlink:href="#g"/><linearGradient id="aa" x1="0.385" y1="1.21" x2="0.606" y2="-0.326" xlink:href="#g"/><linearGradient id="ab" x1="0.5" y1="1" x2="0.5" gradientUnits="objectBoundingBox"><stop offset="0" stop-color="#001b4a"/><stop offset="1" stop-color="#220040"/></linearGradient><linearGradient id="ac" x1="0.259" y1="0.97" x2="0.725" y2="0.023" xlink:href="#g"/><linearGradient id="ad" y1="0.5" x2="1" y2="0.5" gradientUnits="objectBoundingBox"><stop offset="0" stop-color="#a40013"/><stop offset="1" stop-color="#c9480d"/></linearGradient><linearGradient id="aj" x1="0.5" y1="1" x2="0.5" y2="0" xlink:href="#ab"/><linearGradient id="al" x1="0.5" y1="1" x2="0.5" gradientUnits="objectBoundingBox"><stop offset="0"/><stop offset="1" stop-color="#fff"/></linearGradient><linearGradient id="am" x1="0.5" y1="1" x2="0.5" gradientUnits="objectBoundingBox"><stop offset="0" stop-color="#fe2c00"/><stop offset="1" stop-color="#e00036"/></linearGradient><linearGradient id="ao" x1="0.335" y1="0.936" x2="0.761" y2="0.008" xlink:href="#g"/><linearGradient id="ap" y1="0.5" x2="1" y2="0.5" gradientUnits="objectBoundingBox"><stop offset="0" stop-color="#a43113"/><stop offset="1" stop-color="#6f160d"/></linearGradient><linearGradient id="aq" x1="0.349" y1="1.055" x2="0.627" y2="-0.179" xlink:href="#g"/><linearGradient id="ar" x1="0.392" y1="0.816" x2="0.559" y2="0.068" xlink:href="#g"/><linearGradient id="as" x1="0.5" y1="1" x2="0.5" gradientUnits="objectBoundingBox"><stop offset="0" stop-color="#fe7700"/><stop offset="1" stop-color="#ff0036"/></linearGradient><linearGradient id="av" x1="0" y1="0.5" x2="1" y2="0.5" xlink:href="#k"/><linearGradient id="aw" x1="0.5" y1="1" x2="0.5" gradientUnits="objectBoundingBox"><stop offset="0" stop-color="#d90424"/><stop offset="1" stop-color="#ce0043"/></linearGradient><linearGradient id="ax" x1="0.5" y1="1" x2="0.5" gradientUnits="objectBoundingBox"><stop offset="0" stop-color="#700800"/><stop offset="1" stop-color="#5e160d"/></linearGradient><linearGradient id="ay" y1="0.5" x2="1" y2="0.5" gradientUnits="objectBoundingBox"><stop offset="0" stop-color="#4d0800"/><stop offset="1" stop-color="#4f160d"/></linearGradient><linearGradient id="bb" x1="0.383" y1="0.991" x2="0.607" y2="0.034" xlink:href="#g"/><linearGradient id="bc" x1="0.355" y1="1.129" x2="0.621" y2="-0.056" xlink:href="#g"/></defs><path class="a" d="M409.707,176.381l6.7-138.758L68,38.407l5.688,137Z" transform="translate(-32.53 -17.998)"/><path class="b" d="M56.167,318.972l28.549.56-7.537-36.686h-.833l6.076,35.2H57Z" transform="translate(-26.869 -135.309)"/><path class="c" d="M77.878,238.787l-.067.122a.058.058,0,0,0-.011.022c-.111.2-.234.422-.361.655-9.259,16.663-32.4,15-37.584,0a41.6,41.6,0,0,1-2.211-10.552c-.75-10.325,3.027-18.206,8.875-18.328,8.853-.184,13.307,9.247,19.989,16.312.755.8,1.544,1.572,2.366,2.294C77.878,237.21,80.282,234.372,77.878,238.787Z" transform="translate(-17.963 -100.797)"/><path class="d" d="M77.964,252.021l-.067.122a.058.058,0,0,0-.011.022,12.175,12.175,0,0,1-1.638,2.144c-2.555,2.755-8.3,6.9-18.6,4.688a27.371,27.371,0,0,1-15.479-9.5,28.012,28.012,0,0,1-4.437-7.231s3.321-3.471,16.929-3.888A35.264,35.264,0,0,1,66.6,240.252c.755.8,1.544,1.572,2.366,2.294C77.964,250.443,80.369,247.605,77.964,252.021Z" transform="translate(-18.05 -114.031)"/><path class="e" d="M80.318,263.355c-2.555,2.755-8.3,6.9-18.6,4.688a27.371,27.371,0,0,1-15.479-9.5s8.6-3.344,22.027.822C74.141,261.188,77.924,262.482,80.318,263.355Z" transform="translate(-22.12 -123.076)"/><path class="f" d="M59.647,282.847l.231,39.758-5.046-3.557,1.859-35.229.934.445-1.265,33.785,2.664,2.617-.72-37.82Z" transform="translate(-26.231 -135.309)"/><path class="g" d="M417.293,341v5.571c-32.429,3.907-88.936,9.368-88.936,9.368l-115.162,5.748L28.621,371.594H0V340.62l129.835,2.77,51.374-.308,80.444,2.144,61.817-2.352S383.607,340.589,417.293,341Z" transform="translate(0 -162.947)"/><g transform="translate(343.743 55.278)"><path class="h" d="M753.2,241.494h-2.617l-21.4-106.949,4.174-6.838Z" transform="translate(-692.574 -116.37)"/><path class="i" d="M760.2,237.615,735.685,119.6l-.625,5.005,20.951,113.011Z" transform="translate(-695.384 -112.492)"/><path class="h" d="M713.967,187.786l9.895-75.637h2.218l-9.365,75.014Z" transform="translate(-685.293 -108.928)"/><path class="h" d="M661.338,238.044H659L675.221,112.15l5.189.371Z" transform="translate(-658.997 -108.928)"/><path class="j" d="M663.485,238.383h2.465l18.73-120.11-2.122-5.414Z" transform="translate(-661.144 -109.268)"/><path class="h" d="M749.115,235.089l12.18-129.116,4.382.585-11.787,128.53Z" transform="translate(-702.108 -105.974)"/><path class="j" d="M769.973,108.808l1.324,1.743L760.923,235.178l-2.655,1.268Z" transform="translate(-706.487 -107.33)"/><path class="h" d="M665.5,246.936H659v3.772l53.887,2.927,1.587-5.706Z" transform="translate(-658.997 -173.408)"/><path class="j" d="M717.432,247.871l-5.565,1.071-40.614-1.071,4.314-.935Z" transform="translate(-664.86 -173.408)"/><path class="k" d="M721.364,181.852l-47.957-.994,10.829-69.239,42.9-2.811Z" transform="translate(-665.89 -107.33)"/><g transform="translate(13.133 9.748)"><g transform="translate(5.248)"><path class="l" d="M703.253,128.064c-4.171,4.2-7.281,10.484-6.5,16.554.691,5.382,6.426,6.8,10.956,5.134,5.412-1.986,8.392-7.514,8.278-13.1-.111-5.459-2.765-11.3-8.745-11.929-6.46-.683-11.489,4.556-12.991,10.433a.318.318,0,0,0,.612.168c2.275-5.488,6.961-11,13.584-9.334,7.1,1.788,8.161,11.945,5.258,17.52a11.894,11.894,0,0,1-6.863,5.792c-3.348,1.065-8.049.522-9.186-3.388-1.716-5.9,2.077-13.3,6.024-17.425.268-.279-.151-.7-.425-.425Z" transform="translate(-694.236 -124.662)"/></g><g transform="translate(11.487 9.464)"><path class="l" d="M706.7,146.477c.032-.069,1.889.884,2.343.8,1.087-.2,2.233-1.407,3.1-2.033l-.522-.3a2.283,2.283,0,0,0,.805,1.983.346.346,0,0,0,.412.053c.847-.642,2.971-3.488,1.2-4.166a.239.239,0,0,0-.236.063,2.018,2.018,0,0,0-.378,2.177.1.1,0,0,0,.2-.028c.054-.61.648-1.1-.032.13-.436.79-1.4,1.047-1.282-.212a.349.349,0,0,0-.522-.3,17.99,17.99,0,0,1-2.046,1.414c-1.128.547-1.471-.038-2.3-.313a.875.875,0,0,0-1.225.525c-.11.278.357.476.486.2Z" transform="translate(-706.197 -142.806)"/></g><g transform="translate(20.796 11.279)"><path class="l" d="M724.047,146.4a4.682,4.682,0,0,1,.248.955.184.184,0,0,0,.275.158c.209-.139.534-.338.487-.618a.135.135,0,0,0-.1-.1c-.276-.062-.495.268-.639.465h.315a4.658,4.658,0,0,1-.4-.915c-.045-.115-.226-.072-.189.052Z" transform="translate(-724.042 -146.284)"/></g><g transform="translate(27.313 2.313)"><path class="l" d="M736.956,133.348c3.276-.814,6.54-2.033,9.737-3.12.691-.235.4-1.323-.3-1.1a65.176,65.176,0,0,0-9.687,3.621c-.342.171-.1.69.254.6Z" transform="translate(-736.537 -129.096)"/></g><g transform="translate(34.482 1.689)"><path class="l" d="M750.519,128.482a10.676,10.676,0,0,1,4.283.739,4.269,4.269,0,0,1,.484.2q.647.225-.1.115c-.236.1-.477.2-.714.3a18.072,18.072,0,0,0-2.119,1.1.249.249,0,0,0,.191.454c.685-.172,4.837-.966,3.831-2.372-.4-.556-1.67-.793-2.276-.915a11.57,11.57,0,0,0-3.583-.119c-.309.035-.327.508,0,.5Z" transform="translate(-750.28 -127.901)"/></g><g transform="translate(29.429 11.112)"><path class="l" d="M740.74,146.4c2.646,1.114,5.261,2.306,7.863,3.516.475.221.892-.482.414-.708a71.894,71.894,0,0,0-8.161-3.231c-.275-.091-.369.317-.117.423Z" transform="translate(-740.593 -145.966)"/></g><g transform="translate(34.005 12.964)"><path class="l" d="M751.166,149.947c.935.294,2.264,1.051,2.485,2.107l.49-.49a6.869,6.869,0,0,0-4.586-.083c-.378.171-.127.649.186.689a21.208,21.208,0,0,0,2.154-.015,20.137,20.137,0,0,1,2.14.192c.349.047.515-.462.282-.68A15.714,15.714,0,0,0,753,150.314a4.861,4.861,0,0,0-1.715-.791.22.22,0,0,0-.117.423Z" transform="translate(-749.365 -149.516)"/></g><g transform="translate(26.813 19.539)"><path class="l" d="M735.625,162.518c.773,1.044,1.541,2.092,2.325,3.129.708.935,2.036,2.1,2.21,3.252.071.476.741.377.868,0,.389-1.146-.858-2.1-1.541-2.9-1.114-1.3-2.288-2.545-3.445-3.806-.2-.218-.6.076-.417.322Z" transform="translate(-735.579 -162.12)"/></g><g transform="translate(28.957 24.132)"><path class="l" d="M739.716,171.224a10.268,10.268,0,0,0,1.407,2.006,4.543,4.543,0,0,0,1.91,1.439c.625.147.947-.288,1.093-.835a3.683,3.683,0,0,0,.069-2.517.3.3,0,0,0-.509,0,2.97,2.97,0,0,0-.34,1.35,5.805,5.805,0,0,1-.176,1.059c-.151.079-.466-.192-.57-.259a8.681,8.681,0,0,1-2.536-2.447.2.2,0,0,0-.349.2Z" transform="translate(-739.688 -170.925)"/></g><g transform="translate(0 36.339)"><path class="l" d="M689.67,194.454c-1.881,5.091-4.4,10.433-5.492,15.749-.042.2.258.365.359.151a70.358,70.358,0,0,0,2.6-7.489q1.415-4.166,2.885-8.312c.08-.226-.274-.319-.356-.1Z" transform="translate(-684.174 -194.328)"/></g><g transform="translate(6.34 51.275)"><path class="l" d="M696.445,223.273c7.088.712,14.588.19,21.489,2.262.289.087.378-.4.057-.419-7.184-.536-14.267-2.547-21.546-2.085a.121.121,0,0,0,0,.243Z" transform="translate(-696.328 -222.962)"/></g><g transform="translate(25.579 51.519)"><path class="l" d="M735.444,223.707c.43.434.859.87,1.292,1.3a5.559,5.559,0,0,1,.593.586c.295.4.256.349-.248.434-1.214.205-2.454.091-3.674.346-.319.067-.213.507.072.534a20.14,20.14,0,0,0,3.062-.038c.509-.03,1.4.059,1.769-.419.306-.394.069-.826-.248-1.119-.733-.677-1.592-1.25-2.381-1.861-.165-.128-.394.079-.237.237Z" transform="translate(-733.212 -223.431)"/></g><g transform="translate(3.909 33.046)"><path class="l" d="M691.774,190.314a6.291,6.291,0,0,0,3.681-1.573l-.594-.457a24.8,24.8,0,0,0-1.319,3.63.209.209,0,0,0,.38.16,13.237,13.237,0,0,0,1.719-3.576c.157-.425-.4-.61-.676-.393-1.014.79-2.237,1.235-3.247,2a.111.111,0,0,0,.055.2Z" transform="translate(-691.669 -188.015)"/></g><g transform="translate(9.345 36.698)"><path class="m" d="M702.09,195.3c.318,4.6.206,12.056,6.224,12.538,2.373.19,3.568-.774,4.958-2.6a49.419,49.419,0,0,0,5.85-9.481.2.2,0,0,0-.349-.2c-1.195,1.712-2.332,3.462-3.526,5.176-1.34,1.924-2.721,4.711-4.913,5.653-6.716,2.889-7.257-7.032-7.657-11.087-.036-.371-.616-.382-.589,0Z" transform="translate(-702.089 -195.017)"/></g></g></g><g transform="translate(115.917 93.069)"><path class="n" d="M235.2,190.3l1.173-7.75-1.452,3.638.365-6.046-.836,4.134.131-3.335-2,5.194.414-3.792-1.964,4.891L231,179.715l-1.158,5.1-.652-4.6-.811,6.523-1.113-8.315-.4,6.835-2.19-5.992,1.079,9.537-2.573-5.673,1.261,6.973a37.333,37.333,0,0,0,5.359.531A34.4,34.4,0,0,0,235.2,190.3Z" transform="translate(-222.685 -178.425)"/><path class="o" d="M225.045,190.281l-2.278-11.571,3.528,11.907Z" transform="translate(-222.485 -178.561)"/><path class="o" d="M231.1,192.266l1.29-10.158-.371,10.281Z" transform="translate(-226.471 -180.187)"/><path class="o" d="M224.451,195.432l-2.224-6.12,1.67,6.065Z" transform="translate(-222.227 -183.633)"/><path class="o" d="M234.967,192.65l3.644-10.07-2.18,10.142Z" transform="translate(-228.321 -180.412)"/><path class="o" d="M240.873,192.868l3.783-9.677-1.854,9.534Z" transform="translate(-231.147 -180.705)"/><path class="o" d="M245.183,195.444l1.561-6.434-.88,6.423Z" transform="translate(-233.209 -183.489)"/><path class="o" d="M238.53,192.453l2.88-10.253-1.666,10.245Z" transform="translate(-230.026 -180.231)"/><path class="p" d="M236.533,200.671l-2.9,12.335a27.781,27.781,0,0,1-6.007.108l-.038-.008a13.933,13.933,0,0,1-1.531-.242h0c-.335-.074-.665-.16-.98-.261l-1.321-12.119,9.923.146h0Z" transform="translate(-222.956 -188.978)"/><path class="q" d="M233.675,200.63a11.246,11.246,0,0,0-4.714,4.222c-1.639,2.872-1.335,8.262-1.335,8.262l-.038-.008-1.531-.242h0c-.335-.074-.665-.16-.98-.261l-1.321-12.119Z" transform="translate(-222.956 -188.978)"/></g><g transform="translate(98.688 109.055)"><path class="r" d="M194.332,225.031l1.9-.39,4.084-.05,1.83.579Z" transform="translate(-191.653 -216.496)"/><path class="r" d="M205.8,210.395c-.753-1.062-2.465-.829-3.542-.551,0-.478-.03-.772-.03-.772l-13.015.159s-.627,8.312,6.619,8.224a5.9,5.9,0,0,0,4.714-2.01,18.028,18.028,0,0,0,2.918-.653C205.352,214.183,207.3,212.516,205.8,210.395Zm-2.467,3.785a13.278,13.278,0,0,1-2.24.491,9.172,9.172,0,0,0,1.139-4.016c.741-.22,2.192-.513,2.795.337C206.115,212.529,204.7,213.738,203.33,214.18Z" transform="translate(-189.196 -209.071)"/><path class="s" d="M201.916,209.1l2.457-.03s.85,8.294-6.4,8.382a6.046,6.046,0,0,1-4.435-1.547,11.873,11.873,0,0,0,5.913-2.184C202.381,211.634,201.916,209.1,201.916,209.1Z" transform="translate(-191.275 -209.071)"/></g><g transform="translate(201.932 85.737)"><path class="t" d="M410.411,227.428l-10.6-2.513h-1.4l-11.286,2.507Z" transform="translate(-387.128 -193.333)"/><path class="t" d="M406.046,195.95l-2.964-19.239,14.277-11.84,3.043-.5,2.136,2.519-3.592.5-2.247-.5-11.765,10.328,2.4,18.735Z" transform="translate(-394.76 -164.367)"/><path class="u" d="M433.692,169.2l8.966,10.391-16.26,1.2,3.7-11.084Z" transform="translate(-405.914 -166.678)"/><path class="t" d="M432.484,171.279a23.55,23.55,0,0,1,5.881,2.515c3.041,1.827,5.693,5.905,5.693,5.905l1.511-.111L436.6,169.2l-3.592.5Z" transform="translate(-408.826 -166.678)"/><g transform="translate(8.269 25.816)"><path class="v" d="M431.713,222.8l-1.47-8.939,11.416,4.584.059,4.355Z" transform="translate(-416.023 -213.86)"/><path class="w" d="M402.981,216.759l14.22-2.9,1.47,8.939H403.59l.1-1.2,13.853-.206-1.233-6.623-13.13,2.914Z" transform="translate(-402.981 -213.86)"/><path class="w" d="M433.227,216.723l1.193,4.89,1.193.146-.939-4.468Z" transform="translate(-417.45 -215.229)"/><path class="x" d="M417.538,222.23l-1.233-6.623-13.324,2.96.7,3.869Z" transform="translate(-402.981 -214.695)"/></g><path class="y" d="M428.288,182.679l2.919-7.253,2.043.515,2.553,6.336Z" transform="translate(-406.818 -169.658)"/></g><g transform="translate(16.997 88.843)"><g transform="translate(13.52 0.564)"><path class="z" d="M60.657,200.254,96.5,200.2a2.145,2.145,0,0,0,2.024-1.36l8.829-23.7a2.063,2.063,0,0,0-1.959-2.732l-4.178-.124-30.563-.884a2.15,2.15,0,0,0-2.076,1.311l-8.5,21.189-1.434,3.573A2.062,2.062,0,0,0,60.657,200.254Z" transform="translate(-58.504 -171.405)"/><path class="p" d="M111.044,198.006a1.276,1.276,0,0,1-.581.037,1.934,1.934,0,0,1-1.3-1.952,2.8,2.8,0,0,0-1.718,2.233c-.3,1.441.257,2.76,1.232,2.947s2-.829,2.3-2.27A3.754,3.754,0,0,0,111.044,198.006Z" transform="translate(-81.878 -183.214)"/></g><path class="t" d="M46.838,199a1.344,1.344,0,0,1-.483-1.021L56.64,172.328a1.767,1.767,0,0,1,1.676-1.082l34.933.674-34.638-1.6a3.234,3.234,0,0,0-3.15,1.969L45.006,198.212l-12.421.67v.919H84.934l.039-.475-36.986.1A1.81,1.81,0,0,1,46.838,199Z" transform="translate(-32.585 -170.323)"/><path class="aa" d="M60.657,201.066l35.844-.05a2.145,2.145,0,0,0,2.024-1.36l8.829-23.7a2.063,2.063,0,0,0-1.959-2.732l-4.178-.124-.3.056v9.2L82.741,196.764l-22.577-2.188-.084.142-1.434,3.573A2.062,2.062,0,0,0,60.657,201.066Z" transform="translate(-44.984 -171.652)"/></g><g transform="translate(8.116 116.124)"><path class="ab" d="M240.081,229.521,234.116,293.1l7.5.358,4.152-62.637Z" transform="translate(-120.113 -225.923)"/><path class="ac" d="M343.2,232.021l8.889,69.363-6.369.156-6-69.163Z" transform="translate(-170.63 -227.119)"/><path class="ad" d="M289.2,231.181l-49.117-1.66L234.116,293.1l61.084,7.24Zm-47.7-.966,46.356,2.7,5.807,64.893L235.845,291.8Z" transform="translate(-120.113 -225.923)"/><path class="ab" d="M243.419,345.927l51.6,5.075.223,2.49-57.812-6.006Z" transform="translate(-121.699 -281.61)"/><path class="ab" d="M34.935,228.123l-6.29,70.738,5.183.048,5.59-70.787Z" transform="translate(-21.819 -225.254)"/><path class="ab" d="M33.993,359.842l54.413,5.375-1.451,2.177-58.309-5.521Z" transform="translate(-21.819 -288.267)"/><path class="ac" d="M130.931,234.441l6.112,73.85,5.45-.869-7.412-72.981Z" transform="translate(-70.751 -228.277)"/><path class="f" d="M82,234.441H31.993l-3.348,67.442,59.466,6.408Zm-47.43.825H81.347L86.954,307.4,30.7,301.613Z" transform="translate(-21.819 -228.277)"/><path class="h" d="M19.532,227.491,22.05,231.9l175.758-1.806v-1.788Z" transform="translate(-17.46 -224.952)"/><path class="j" d="M197.015,225.966v-3.342L15.559,223.911v1.252Z" transform="translate(-15.559 -222.624)"/></g><g transform="translate(263.182 63.254)"><path class="ae" d="M604.76,289.235a4.707,4.707,0,0,0,0,3.017c.556,1.63,13.922,21.712,13.922,21.712s2.738-.065,3.325,0,.391-.78.391-.78-4.76-12.714-5.281-16.921-5.216-7.028-5.216-7.028Z" transform="translate(-552.372 -201.619)"/><path class="af" d="M624.111,298.158c-.177,2.665-3.365,7.809-6.546,12.31a.746.746,0,0,1-.063.094.093.093,0,0,1-.021.026c-3.208,4.533-6.369,8.393-6.369,8.393a5,5,0,0,1-1.174,0c-.475-.089,0-4.043,0-4.043A43.3,43.3,0,0,0,614.2,303.2c.97-4.455,1.711-9.551,2.139-12.769.256-1.961.391-3.229.391-3.229,3.448-2.217,8.883-4.976,8.883-4.976a15.207,15.207,0,0,0-1.5,4.392C624.048,288.185,624.46,292.77,624.111,298.158Z" transform="translate(-554.866 -198.267)"/><path class="ag" d="M630.174,298.158c-.177,2.665-3.365,7.809-6.546,12.31,1.445-2.233,4.961-14.788,3.589-17.558-1.356-2.744-4.653-2.493-4.815-2.478.256-1.961.391-3.229.391-3.229,3.448-2.217,8.883-4.976,8.883-4.976a15.209,15.209,0,0,0-1.5,4.392C630.112,288.185,630.524,292.77,630.174,298.158Z" transform="translate(-560.93 -198.267)"/><path class="c" d="M596.711,343.688c-1.729-1.108-2.588,2.017-4.3,3.386s-5.354,3.195-7.35,3.325-2.126.2-2.908.978a3.051,3.051,0,0,0-.848,1.784,16.189,16.189,0,0,0,7.993,1.41,56.224,56.224,0,0,0,9.481-1.41s-.3-3.655-.391-4.76L598.3,347.3a2.11,2.11,0,0,1-1.261-.939A4.257,4.257,0,0,1,596.711,343.688Z" transform="translate(-541.268 -227.557)"/><path class="e" d="M630.428,335.315a20.423,20.423,0,0,1-2.3.526,9.4,9.4,0,0,1-2.3-.574s-.928,1.042-.215,1.8.335,1.786.514,2.471-1.994,6.727-2.994,6.944-2.217.043-2.564.7.549,1.826.549,1.826,5.319.565,7.276-.347,2.043-3.738,3.26-5.347,2.347-3.608,2.217-4.043A48.726,48.726,0,0,0,630.428,335.315Z" transform="translate(-560.011 -223.641)"/><path class="ah" d="M581.023,360.956a21.051,21.051,0,0,0,8.737,1.38,57.714,57.714,0,0,0,8.737-1.38v1.163a40.131,40.131,0,0,1-9.78,1.293,31.52,31.52,0,0,1-8-1.224Z" transform="translate(-540.989 -235.929)"/><path class="ah" d="M620.764,351.43s5.193,1.5,7.018,0,2.391-4.243,3.564-6.068a37.9,37.9,0,0,1,2.359-3.26l.728.706s-1.913,3.331-3,5.572-1.591,4.067-4.121,4.415a20,20,0,0,1-6.067-.522Z" transform="translate(-560.146 -226.909)"/><path class="ah" d="M600.636,354.554l3.738,2.434.391-.913-3.695-1.937Z" transform="translate(-550.517 -232.668)"/><path class="ah" d="M603.24,353.155l2.771,1.565.613-.587-2.72-1.374Z" transform="translate(-551.763 -232.008)"/><path class="ah" d="M631.886,349.851l3.3-1v.5l-3.3.935Z" transform="translate(-565.466 -230.139)"/><path class="ah" d="M631.886,346.458l3.639-1.107-.336,1.107-3.3.719Z" transform="translate(-565.466 -228.464)"/><path class="ai" d="M548.5,189.934s-3.949,2.78-5.774,4.3c-.678.563-1.977,1.779-3.38,3.171-2.373,2.358-5.044,5.221-5.467,6.259a2.135,2.135,0,0,1-1.977,1.56,5.927,5.927,0,0,1-2.608-2.645,26.552,26.552,0,0,0-2.629-3.98s-.2-1.455.626-1.847,2.483.391,2.483.391,2.342-2.629,5.326-5.9c4.8-5.268,11.256-12.19,12.2-12.42a8,8,0,0,1,3.161,0C550.673,179.356,548.5,189.934,548.5,189.934Z" transform="translate(-515.12 -148.725)"/><path class="aj" d="M516.093,216.893s.878.2,3.112,3.164a39.5,39.5,0,0,1,2.426,3.368s-11.6.207-14.34,0l-2.738-.207,3.758-3.847S514.267,217.089,516.093,216.893Z" transform="translate(-504.552 -167.012)"/><path class="ak" d="M556.252,189.934s-3.949,2.78-5.774,4.3c-.678.563-1.977,1.779-3.38,3.171q-.149-.5-.344-1.127c-.49-1.607-2.139-3.437-3.9-5.034,4.8-5.268,11.257-12.19,12.2-12.42a8,8,0,0,1,3.161,0C558.427,179.356,556.252,189.934,556.252,189.934Z" transform="translate(-522.874 -148.725)"/><path class="al" d="M567.258,189.171s-3.369,6.993-2.125,9.738S577.162,210.7,578.3,213.65s-.529,15.127.6,20.256,7.567,14.37,9.393,14.487-.039-14.14-.039-14.14L581.347,206.8Z" transform="translate(-533.401 -153.75)"/><path class="am" d="M603.708,225.426s-7.266,34.515-9.7,33.1-7.131-8.231-8.518-13.536c-.97-3.7-.334-11.778-.334-16.843,0-2.2-.12-3.834-.542-4.282-1.393-1.481-6.974-8.972-6.974-8.972l-.809-2.2-.047-.13,18.356-.589,2.885,4.528,1.043,1.643Z" transform="translate(-539.106 -164.656)"/><path class="an" d="M599.354,217.393l-.245.97-5.665,22.5a14.642,14.642,0,0,0-4-8.435c-1.461-1.487-2.963-2.9-4.246-4.063,0-2.2-.12-3.834-.543-4.282-1.393-1.481-6.7-6.3-6.7-6.3l-1.085-4.869,13-.475,8.189,4.282Z" transform="translate(-539.149 -164.881)"/><path class="ao" d="M624.116,252.962s-7.5,6.786-13.755,6.265a34.94,34.94,0,0,1-3.73-.5,20.361,20.361,0,0,1-5.66-1.763l.522-.882a41.254,41.254,0,0,0,3.13-13.233c.031-2.013.183-5.326.349-8.643V234.2c.276-5.32.605-10.641.605-10.641l13.275,10.406,1.5,1.179.511,2.431Z" transform="translate(-550.678 -170.2)"/><path class="ah" d="M627.785,252.808s-7.5,6.786-13.755,6.265a34.937,34.937,0,0,1-3.73-.5,20.219,20.219,0,0,0,4.162-.908c3-.934,9-5.263,9-5.263a12.058,12.058,0,0,0-2.869-6.458c-2.551-2.869-7.605-7.558-7.819-7.751.021.057.13.355.709,1.951a77.252,77.252,0,0,0,3.573,6.917c-.083-.094-.532-.595-3.025-3.375-2.989-3.328-5.3-9.4-5.388-9.634v-.005c.276-5.32.605-10.641.605-10.641l.652-.167,12.623,10.573.939.788,1.075,2.822Z" transform="translate(-554.347 -170.047)"/><path class="ap" d="M571.26,175.51s-.5,1.5-1.174,1.647a1.7,1.7,0,0,1-1.055,0s-1.912,8.943-2.52,11.6-.6,5.443.461,6.356,3,2.391,4.7,2.391,2.508-.7,2.8-.413a7.656,7.656,0,0,0,3.31,2.63c2.069.77,8.633,1.113,9.872,1.282l1.239.17-12.323-17.9Z" transform="translate(-533.997 -147.215)"/><path class="ai" d="M621.2,239.749c-.981,1.106-3.067-13.014-8.283-18.377s-10.432-12.941-11.736-16.233,0-1.44-1.565-2.452a24.448,24.448,0,0,1-5.675-5.279,55.7,55.7,0,0,1-5.435-8.7l1.179-6.906.537-3.135s.1.183.282.511c1.252,2.238,6.254,11.142,7.224,11.627,1.106.563,1.429-.235,2.347,0s1.627,1.268,2.347,1.142,11.862-2.806,16.3,0a2.829,2.829,0,0,1,.861.955c3.318,5.472,2.446,28.256,3.062,33.175.021.136.037.261.057.37C623.476,230.751,622.172,238.643,621.2,239.749Z" transform="translate(-544.712 -148.726)"/><path class="aq" d="M565.386,124.7s3.043-3.238,6.8-3.434,4.042,17.7,5.8,21.957a58.5,58.5,0,0,0,4.89,8.85,28.739,28.739,0,0,1-2.739-2.195l-.913-.9s2.021,5.412,2.152,7.172l.13,1.76s-3.782-9.092-5.607-10.447-4.3,1.184-4.988-2.074-.381-14.473-.239-17.733-3.646-1.5-3.646-1.5Z" transform="translate(-533.654 -121.265)"/><path class="aq" d="M536.205,155.335s-2.473,2.154-3.255.514,2.794-13.654,3.255-14.493.474.376.474.376S535.483,153.136,536.205,155.335Z" transform="translate(-518.084 -130.735)"/><path class="ae" d="M571.452,166.124l3.238,4.168s-.565,4.732-1.619,4.721-2.456-4.57-2.456-4.57Z" transform="translate(-536.155 -142.725)"/><path class="ar" d="M555.038,155.221c-.469,2.963-7.819,8.867-7.819,8.867s-2.968.735-4.142-.522-2.926-5.983-2.926-5.983-1.174-1.382-1.815-1.977-1.21-2.3-1-5.613a34.143,34.143,0,0,1,.574-4.027c.412-2.16.9-3.964.9-3.964,2.337-2,16.227,4.611,16.227,4.611A48.665,48.665,0,0,1,555.038,155.221Z" transform="translate(-520.215 -131.006)"/><path class="ag" d="M555.607,155.221c-.469,2.963-7.819,8.867-7.819,8.867s-2.968.735-4.142-.522c0,0,4.434-1.727,7.35-7.981s-1.372-9.514-3.891-10.3-8.575.845-8.575.845l-.047-.167c.412-2.16.9-3.964.9-3.964,2.337-2,16.227,4.611,16.227,4.611A48.671,48.671,0,0,1,555.607,155.221Z" transform="translate(-520.784 -131.006)"/><path class="as" d="M563.136,200.216c-2.671-.261-8.852-10.375-9.42-15.56-.329-2.994-.49-4.788-.579-6.019-.078-1.2-.094-1.873-.125-2.613-.021-.584,2.212-3.25,3.344-4.236A7.256,7.256,0,0,0,558.4,168.1a2.037,2.037,0,0,1,1.513-1.163,3.361,3.361,0,0,1,1.033-.96,1.325,1.325,0,0,1,1.247,0,1.4,1.4,0,0,1,.84,0c.4.183.1,2.556.1,2.556a2.233,2.233,0,0,1,.177,1,26.385,26.385,0,0,1-1.12,3.963c-.438,1.434-5.145,3.339-6.219,4.252s3.036,7.146,5.075,8.847c.8.662,1.685,2.921,2.316,5.42C564.347,195.9,564.707,200.367,563.136,200.216Z" transform="translate(-527.734 -142.576)"/><path class="ag" d="M563.773,167.843a4.956,4.956,0,0,1-.572,3.079,22.936,22.936,0,0,1-1.336,2.424,7,7,0,0,0,1.826-2.8,12.474,12.474,0,0,0,.456-2.638Z" transform="translate(-531.97 -143.547)"/><path class="ag" d="M568.219,165.935s-.4,1.847-.663,3.064a14.821,14.821,0,0,1-1.087,2.847,18.242,18.242,0,0,0,1.478-3.108,22.864,22.864,0,0,0,.685-2.705Z" transform="translate(-534.172 -142.634)"/><path class="ag" d="M571.068,167a39.424,39.424,0,0,1-1.152,4.685l-.489,1.2a12.851,12.851,0,0,0,1.6-3.239A7.465,7.465,0,0,0,571.068,167Z" transform="translate(-535.587 -143.145)"/><path class="ag" d="M569.677,151.13s2.738-4.745,5.281-4.614-1.5,8.836-2.64,8.786a3.63,3.63,0,0,1-2.152-1.281Z" transform="translate(-535.707 -133.343)"/><path class="ae" d="M572.386,153.691a12.831,12.831,0,0,1,1.847-3.659,5.908,5.908,0,0,1,1.913-1.764s-1.305,1.7-2.119,2.977S572.386,153.691,572.386,153.691Z" transform="translate(-537.003 -134.183)"/><path class="ae" d="M573.956,154.643s-.223,1.651.25,2.1,1.369-.52,1.369-.52-.8,1.292-1.672.966-.382-1.76-.382-1.76Z" transform="translate(-537.48 -137.232)"/><path class="ag" d="M563.251,211.977c-2.671-.261-8.852-10.375-9.42-15.56-.329-2.994-.49-4.788-.579-6.019h.005a20.286,20.286,0,0,0,2.832,7.172c2.081,2.869,5.639,6.844,6.791,6.452a4.384,4.384,0,0,0,.6-.25C564.462,207.663,564.822,212.129,563.251,211.977Z" transform="translate(-527.849 -154.337)"/><path class="aq" d="M563.431,151.116a20.938,20.938,0,0,1,2.845,2.525l.621.848s1.163-2.81,1.2-3.172l.04-.361S564.17,151.527,563.431,151.116Z" transform="translate(-532.719 -135.468)"/><path class="at" d="M552.91,127.686a1.2,1.2,0,0,0-.146-.052c-5.039-1.565-12.811,5.174-13.468,6.891s0,2.415,0,2.415a36.339,36.339,0,0,1,6.1,2.212,20.143,20.143,0,0,1,3.479,2.055,5.187,5.187,0,0,0,6.864-.355l.151-.563a3.686,3.686,0,0,0,.522-.24S557.782,129.412,552.91,127.686ZM550.725,141a19.22,19.22,0,0,1-3.844-2.676.317.317,0,0,1-.052-.037c-1.45-1.148-1.711-1.356-1.758-1.393.115.037,1.2.438,2.525.986a31.793,31.793,0,0,1,4.475,2.17,4.143,4.143,0,0,0,3.792.25C555.545,140.512,552.837,142.192,550.725,141Z" transform="translate(-521.034 -124.2)"/><path class="au" d="M562.279,140.31a3.689,3.689,0,0,1-.522.24l-.151.563a5.187,5.187,0,0,1-6.864.355,20.146,20.146,0,0,0-3.479-2.055c.469-.245.97-.522,1.481-.829a19.218,19.218,0,0,0,3.844,2.676c2.113,1.195,4.82-.485,5.138-.7a4.143,4.143,0,0,1-3.792-.25,31.789,31.789,0,0,0-4.476-2.17,24.166,24.166,0,0,0,2.431-1.768c2.989-2.472,3.057-6.5,2.884-8.424C563.645,129.675,562.279,140.31,562.279,140.31Z" transform="translate(-526.897 -124.462)"/><path class="ak" d="M621.2,240.218c-.981,1.106-3.067-13.014-8.283-18.377s-10.432-12.941-11.736-16.233,0-1.44-1.565-2.452a24.447,24.447,0,0,1-5.675-5.279,55.7,55.7,0,0,1-5.435-8.7l1.179-6.906.819-2.624c1.252,2.238,6.254,11.142,7.224,11.627,1.106.563,1.429-.235,2.347,0s1.627,1.268,2.347,1.142,11.862-2.806,16.3,0a2.83,2.83,0,0,1,.861.955,44.175,44.175,0,0,0-9.53,3.135,14.355,14.355,0,0,1-10.714.031,47.244,47.244,0,0,1,7.5,5.253,49.306,49.306,0,0,1,7.13,8.7,18.23,18.23,0,0,1-7.563-4.877,50.369,50.369,0,0,1-3.73-4.7c.162.428,3.756,9.608,8.6,14.793,3.7,3.964,8.956,8.7,11.376,10.85.021.136.037.261.057.37C623.476,231.22,622.172,239.112,621.2,240.218Z" transform="translate(-544.712 -149.194)"/><path class="al" d="M576.067,169.646c-3.395.385-4.447,3.45-4.8,6.8a11.531,11.531,0,0,0,.525,5.373l-1.419,4.655s-1.333-1.492-2.2-.874-.063,2.806-.063,2.806,2.285,4.777,2.459,7.68a29.014,29.014,0,0,1-.372,5.945s.209.529,1.095,0,4.407-10.23,6.145-14.419S583.565,168.8,576.067,169.646Z" transform="translate(-534.794 -144.393)"/><path class="ai" d="M574.632,187.607s.728-3.088,1.282-5.119a16.15,16.15,0,0,1,.978-2.845,21.381,21.381,0,0,0-2.26,3.982A7.111,7.111,0,0,0,574.632,187.607Z" transform="translate(-537.934 -149.192)"/></g><path class="c" d="M368.431,196.193l-4-24.438a1.775,1.775,0,0,0-1.77-1.488l-35.222.378a1.775,1.775,0,0,0-1.669,2.323l8.308,25.541a1.774,1.774,0,0,0,1.772,1.224l30.912-1.482A1.774,1.774,0,0,0,368.431,196.193Z" transform="translate(-155.802 -81.453)"/><path class="av" d="M339.738,199.607,333.667,173.3l33.123.824,4.347,23.589Z" transform="translate(-159.621 -82.904)"/><path class="t" d="M325.671,174.88l.008,1.583,7.286,26.912h48.822V201.1l-13.04-.742L334.493,202Z" transform="translate(-155.795 -83.66)"/><g transform="translate(180.375 99.975)"><path class="aw" d="M345.8,207.364l2.818-8.5.021,1.107,1.55-3.45.041,2.118.863-2.665.37.979,1.585-5.286.092,4.8,1.072-2.727.06,3.162,1.1-1.036.995,2.067.678-3.984.517,2.89.949-2.149,2.109,3.426-.054-2.84,1.379,2.55.794-2.591,1.45,2.334,1.328-4.046.984,2.345,1.144-1.353-.085,1.915,1.264-1.87.035,1.845.938-2.168.056,2.917.693-1.551.721,1.7.164,8.547Z" transform="translate(-345.799 -191.664)"/><path class="ax" d="M345.8,210.4l2.852-6.708.017.872,1.564-2.724.032,1.668.873-2.1.366.769L353.111,198l.072,3.778,1.083-2.152.048,2.49,1.109-.82.986,1.624.695-3.14.505,2.274.958-1.7,2.095,2.69-.043-2.236,1.369,2,.8-2.044,1.441,1.832,1.344-3.191.974,1.843,1.149-1.07-.092,1.509,1.272-1.478.028,1.453.947-1.711.044,2.3.7-1.224.714,1.336.129,6.73Z" transform="translate(-345.799 -194.696)"/><path class="ay" d="M348.955,211.776l2.9-6.239.452,1.579.56-2.931.042,2.216,1.392-5.247.5,3.863,1.242-1.189.032,1.66,1-2.611,1.155,3.1.681-3.854.372,3.594,1.362-3.552,1.54,3.362.371-2.666,1.307,2.175.588-2.3,2.042,2.057.644-4.011.6,2.939.586-1.9,1,2.232.4-1.877.994,2.358.52-1.268.784,2.579,1.058-2.836.177,7.709-1.447-.307Z" transform="translate(-347.309 -196.026)"/></g><path class="az" d="M357.732,170.389l-19.554,22.347,2.3,7.066,11.865-.569,10.868-16.242-5.3,15.91,9.082-.371,4.659-19.213-1.164-7.116a2.3,2.3,0,0,0-2.29-1.926Z" transform="translate(-161.779 -81.457)"/><g transform="translate(141.686 118.722)"><path class="ab" d="M496.15,234.5l-5.965,63.583,7.5.358,4.153-62.637Z" transform="translate(-376.182 -230.903)"/><path class="ac" d="M599.265,237l8.889,69.364-6.369.156-6-69.163Z" transform="translate(-426.699 -232.099)"/><path class="h" d="M545.267,236.16,496.15,234.5l-5.965,63.583,61.084,7.24Zm-47.7-.967,46.356,2.7,5.807,64.893-57.812-6.006Z" transform="translate(-376.182 -230.903)"/><path class="ab" d="M499.488,350.906l51.6,5.075.223,2.49L493.5,352.465Z" transform="translate(-377.768 -286.59)"/><path class="ab" d="M291,233.1l-6.29,70.738,5.183.048,5.59-70.787Z" transform="translate(-277.889 -230.234)"/><path class="ab" d="M290.062,364.821l54.413,5.375-1.451,2.177-58.309-5.521Z" transform="translate(-277.889 -293.246)"/><path class="ac" d="M387,239.42l6.112,73.85,5.45-.869L391.15,239.42Z" transform="translate(-326.82 -233.256)"/><path class="f" d="M338.068,239.42H288.062l-3.348,67.442,59.466,6.408Zm-48.51.825h47.858l5.607,72.139-56.254-5.792Z" transform="translate(-277.888 -233.256)"/><path class="ad" d="M275.6,232.47l2.518,4.409,175.758-1.806v-1.788Z" transform="translate(-273.529 -229.931)"/><path class="h" d="M453.084,230.945V227.6L271.628,228.89v1.252Z" transform="translate(-271.628 -227.603)"/></g><g transform="translate(218.283 70.441)"><path class="ag" d="M432.473,223.494a24.7,24.7,0,0,0-3.347-1.809c-.587-.1-3.337,2.046-3.337,2.046Z" transform="translate(-421.974 -176.49)"/><path class="b" d="M506.215,365.662l-13.873-5.1,1.592-1.343,12.28,5.818Z" transform="translate(-453.812 -242.286)"/><path class="b" d="M497.119,299.322l-4.777,32.587h1.387l4.992-32.587Z" transform="translate(-453.812 -213.632)"/><path class="b" d="M509.327,351.329l4.557-2.837-3.389-7.368-2.12,1.565S509.556,350.718,509.327,351.329Z" transform="translate(-461.482 -233.63)"/><path class="b" d="M428.25,361.058a34.984,34.984,0,0,0,3.782-.359c1.826-.294,2.217-.913,2.575-1.6s1.3-2.738,1.3-2.738l-2.152-4.238Z" transform="translate(-423.151 -238.892)"/><path class="ag" d="M473.235,171.167s-.7,6.211.211,9.028,4.564,3.208,4.564,3.208v-8.867Z" transform="translate(-444.548 -152.324)"/><path class="ba" d="M512.136,223.741a7.166,7.166,0,0,1-3.818.616,8.5,8.5,0,0,1-2.488-.616l.918-14.412.746-11.679s.756.068,1.716.245c.01,0,.016,0,.021.005a10.835,10.835,0,0,1,2.905.887c.636.344,1.252,4.1,1.575,8.6C514.2,214.248,514,222.844,512.136,223.741Z" transform="translate(-460.264 -164.993)"/><path class="bb" d="M489.8,312.726l-.735.391a15.914,15.914,0,0,0-2.306,1.982l-.72-1.44s-1.3.522-1.627-.193.845-1.893.845-1.893l-7.37-10.093-5.56-7.616s12.258-1.393,13.171,1.518a65.751,65.751,0,0,1,1.361,7.443c.527,3.636.944,7.12.944,7.12s1.466.13,1.727.652-.845,1.434-.845,1.434Z" transform="translate(-444.238 -210.862)"/><path class="bc" d="M460.526,275.565s-4.955,5.128-7.48,4.262-7.908-4.35-7.908-4.35l.005.01c.073.344,1.643,7.49.689,9.4-.981,1.951-8.085,11.058-8.215,11.71s1.346,1.742,1,2.264a2.263,2.263,0,0,1-1.132.735l-.391,2.191a2.14,2.14,0,0,1-1.132.636,7.9,7.9,0,0,1-2.561,0l-.177-3.651s-1.434-.3-1.174-1.043,2.217-1.132,2.217-1.132,1.565-29.993,4.695-31.469,9.869-.782,9.869-.782a7.682,7.682,0,0,1,1.32.235v.005A26.994,26.994,0,0,1,454.006,266Z" transform="translate(-424.954 -196.824)"/><path class="bb" d="M467.223,275.935s-4.955,5.127-7.48,4.262-7.908-4.35-7.908-4.35a12.365,12.365,0,0,0-3.218-1.017,6.183,6.183,0,0,1-2.6-1.012h2.6a13.009,13.009,0,0,0,2.347-.23s-5.54-3-4.893-3.26,6.63,3.088,8.716,1.523c2.06-1.544,2.06-6.765,2.06-6.891a26.99,26.99,0,0,1,3.855,1.414Z" transform="translate(-431.652 -197.193)"/><path class="bd" d="M486.862,302.826s-.136-.913-3.552-1.487a20.442,20.442,0,0,0-5.42.141l-5.56-7.616s12.258-1.393,13.171,1.518A65.751,65.751,0,0,1,486.862,302.826Z" transform="translate(-444.238 -210.862)"/><path class="bb" d="M440.105,329.395s-.164-.261-2.164,0a15.3,15.3,0,0,0-2.608.478l3.738.867S440.667,330.2,440.105,329.395Z" transform="translate(-426.54 -227.963)"/><path class="be" d="M486.316,241.573a25.187,25.187,0,0,1-5.472,2.086.146.146,0,0,0-.031.005,47.243,47.243,0,0,1-5.774,1.236c-.8.115-1.575.2-2.306.256a17.362,17.362,0,0,0-10.083,4.569c-2.149,1.873-4.043,5.67-4.888,5.081a1.3,1.3,0,0,1-.376-1.033c-.089-1.283-1.782-2.062-1.735-4.028.063-2.738-.669-7.705-.739-9.172-.153-3.216,4.414-9.464,4.414-9.464a2.454,2.454,0,0,1,1.221-.621,13.794,13.794,0,0,0,3.072.141c.313-.037.657-.078,1.048-.141,2.869-.459,3.85-1.471,3.85-1.471s-1.367-1.075-1.121-1.789,2.1-.652,2.1-.652a9.953,9.953,0,0,0-.981-3.391l-.318-.621-.162-.313-.318-.621-.151-.3-.282-.553-.24-.48c-.026-.052-.057-.1-.083-.151v-.01l-.271-.542a119.627,119.627,0,0,0,2.472-13.416,14.831,14.831,0,0,0-.063-4.8,6.943,6.943,0,0,0-4.09-4.773l-.057-.016s-1.3-.7-.349-1.393,4.867,1.033,7.965,1.2c2.446.13,8.961-.751,12.279.245.01,0,.016,0,.021.005a2.787,2.787,0,0,1,1.815,1.241c.308.616.026,4.924-.454,9.525-.553,5.326-1.377,11.048-1.867,11.919a7.966,7.966,0,0,0-.407,3.771c.146,2.253.746,4.794,1.773,5.91C487.5,230.932,488.992,240.008,486.316,241.573Z" transform="translate(-435.905 -163.745)"/><path class="bf" d="M430.6,226.41a12.38,12.38,0,0,0-1.165-2.126c-.462-.528-3.666-1.506-4.362-1.59s-1.282,1.228-1.282,1.228a6.606,6.606,0,0,0-2.6.783,6.462,6.462,0,0,0-.929,1,10.659,10.659,0,0,0-1.781.706c-.083.156.612.963,1.92.963s2.588-.361,3.006-.306,1.531,1.113,2.811,1.308,3.924.473,3.924.473S430.9,227.046,430.6,226.41Z" transform="translate(-418.475 -176.973)"/><path class="ag" d="M422.149,227.24a15.278,15.278,0,0,1,2.772-.476,7.622,7.622,0,0,1,1.461,0l-4.481.876Z" transform="translate(-420.114 -178.909)"/><path class="bg" d="M483.028,243.832s-3.573,1.82-3.776,3.187-1.57,2.676-3.724,2.968a8.163,8.163,0,0,1-3.917-.48c.313-.037.657-.078,1.048-.141,2.869-.459,3.85-1.471,3.85-1.471s-1.367-1.075-1.121-1.789,2.1-.652,2.1-.652a9.952,9.952,0,0,0-.981-3.391l-.318-.621-.162-.313-.318-.621-.151-.3-.282-.553-.24-.48-.083-.156v-.005l1.455-4.517s.981,4.695,2.269,6.52S483.028,243.832,483.028,243.832Z" transform="translate(-443.894 -182.622)"/><path class="be" d="M463.254,207.519a75.059,75.059,0,0,1-3.584,14.058c-1.674,4.768-3.531,8.648-4.7,8.862-2.65.475-11.736-2.306-12.43-2.738a9.614,9.614,0,0,1-2.7-8.737c.287-1.492.558-2.619.793-3.464l.005-.01a8.443,8.443,0,0,1,.9-2.352s1.7,1.262,3.26,2.65a44.776,44.776,0,0,0,5.649,3.657c-.146-.1-.9-.662-.37-.96.25-.141.636.01,1,.235a6.58,6.58,0,0,1,.949.73l.01.01s.782-3.13,2.212-10.1a58.96,58.96,0,0,1,3.417-11.335l.057.016a7.459,7.459,0,0,1,5.654,6.885A14.764,14.764,0,0,1,463.254,207.519Z" transform="translate(-428.611 -165.17)"/><path class="ba" d="M473.471,198.892a7.966,7.966,0,0,1,5.231,5.378,26.186,26.186,0,0,1,.779,8.02s2.249-6.728-.359-10.575-5.288-3.691-5.288-3.691Z" transform="translate(-444.784 -165.172)"/><path class="bg" d="M495.433,206.135a13.485,13.485,0,0,0-1.575.683,9.763,9.763,0,0,1-1.544.6,17.394,17.394,0,0,1-3.844.662,15.136,15.136,0,0,1-7.35-1.262,9.917,9.917,0,0,0-4.491-.725c-.459.01-.923.042-1.382.089a36.2,36.2,0,0,0-7.626,1.747,58.957,58.957,0,0,1,3.417-11.335s-1.3-.7-.35-1.393,4.867,1.033,7.965,1.2c2.446.13,8.961-.751,12.279.245.01,0,.016,0,.021.005a10.835,10.835,0,0,1,2.905.887C494.494,197.883,495.109,201.638,495.433,206.135Z" transform="translate(-441.985 -163.745)"/><path class="bg" d="M452.923,237.432a25.682,25.682,0,0,0-6.656-4.757,12.078,12.078,0,0,1-4.747-3.312l.005-.01a8.44,8.44,0,0,1,.9-2.352s1.7,1.262,3.26,2.65a44.78,44.78,0,0,0,5.649,3.657c-.146-.1-.9-.662-.37-.96.25-.141.636.01,1,.235l.949.73.01.01s-.819-.224-.918.329A22.589,22.589,0,0,0,452.923,237.432Z" transform="translate(-429.499 -179.034)"/><path class="bg" d="M481.733,287.007a47.239,47.239,0,0,1-5.774,1.236c-.8.115-1.575.2-2.306.256a17.361,17.361,0,0,0-10.083,4.569c-2.149,1.873-4.043,5.67-4.888,5.081a1.3,1.3,0,0,1-.376-1.033,24.867,24.867,0,0,1,2.916-3.985c2.217-2.347-4.328-2.869-4.39-3.651-.068-.736,6.539-3.667,6.3-3.839.2.047,1.8.454,7.11,1.361A39.132,39.132,0,0,0,481.733,287.007Z" transform="translate(-436.824 -207.086)"/><path class="bh" d="M487.6,194.219a4.707,4.707,0,0,1-1.382-1.82A17.872,17.872,0,0,1,485,187.615v1.914a16.425,16.425,0,0,0,.777,4.256,8.463,8.463,0,0,1-2.191-6.864c.589-4.173,1.372-8.148.522-11.893s-5.148-7.355-7.224-7.329-4.345-.809-4.522-1.361-5.331-13.583-5.331-13.583-1.763,2.478-1.179,7.626a29.957,29.957,0,0,0,1.5,7.313,19.273,19.273,0,0,1-2.165-4.679c-.756-2.358-2.149-11.507-.475-17.625a.016.016,0,0,0,.005-.01,9.809,9.809,0,0,1,1.92-3.9c4.35-4.955,7.063-5.482,9.979-6.2,1.132-.276,9.17-1,11.78,2.9,2.243,3.353,3.695,8.383,1.443,17.38-.748,2.989-.443,7.428.6,9.389a4.413,4.413,0,0,1,.506,1.549l.005.026a43.154,43.154,0,0,0,.313,4.919c.605,3.156-3.213,17.344-3.954,18.825C486.582,191.7,487.542,194.073,487.6,194.219Z" transform="translate(-440.213 -135.044)"/><path class="j" d="M432.171,336.28s2.412,3.342,2.445,4.386-.9,12.551-.9,12.551h-1.187l-2.119-7.368s-2.347,4.108-3.064,5.9a2.3,2.3,0,0,1-2.673,1.728c-1.011,0-3.293-.75-2.9-1.6s2.673-1.76,2.673-1.76,1.357-4.6,2.651-8.085,1.729-5,1.729-5A4,4,0,0,0,432.171,336.28Z" transform="translate(-420.03 -231.312)"/><path class="b" d="M437.31,350.132s.434-3.53,1.608-4.769l1.174-1.239a6.164,6.164,0,0,0-2.511,3A26.3,26.3,0,0,0,435.83,352Z" transform="translate(-426.777 -235.065)"/><path class="j" d="M502.558,331.08s3.128.35,3.911,1,4.912,12,4.912,12l-1.782.609-4.433-6.129s1.552,6.165.877,7.484-4.7,1.318-4.789.481,1.384-1.88,1.384-1.88-1.615-7.619-1.862-9.737l-.247-2.118A12.8,12.8,0,0,1,502.558,331.08Z" transform="translate(-457.727 -228.824)"/><path class="b" d="M509.327,340.306a10.742,10.742,0,0,1-.325-4.545,5.145,5.145,0,0,1,.98-2.511,3.819,3.819,0,0,0-1.711,2.511,6.5,6.5,0,0,0,.543,3.836Z" transform="translate(-461.378 -229.862)"/><path class="c" d="M497.642,266.051a7.559,7.559,0,0,1-1.038,1.3c-7.329,7.266-36.607,2.775-36.951-.391-.256-2.373,5.894-.683,15.346-9.817,1.471-1.419,2.7-2.749,3.756-3.99,5.759-6.75,6.468-10.881,13.066-12.347C500.464,238.891,502.389,258.66,497.642,266.051Z" transform="translate(-438.17 -185.578)"/><path class="bi" d="M487.6,203.7a4.707,4.707,0,0,1-1.382-1.82A17.872,17.872,0,0,1,485,197.1v1.914a16.425,16.425,0,0,0,.777,4.256,8.463,8.463,0,0,1-2.191-6.864c.589-4.173,1.372-8.148.522-11.893s-5.148-7.355-7.224-7.329-4.345-.809-4.522-1.361-5.331-13.583-5.331-13.583-1.763,2.478-1.179,7.626a29.957,29.957,0,0,0,1.5,7.313,19.272,19.272,0,0,1-2.165-4.679c-.756-2.358-2.149-11.507-.475-17.625a.016.016,0,0,0,.005-.01,37.2,37.2,0,0,0,4.9,5.284c2.958,2.613,4.251,7.042,5.383,10.432,1.1,3.291,6.849,4.543,7.209,4.616-.24-.083-3.547-1.309-4.58-3.7a18.452,18.452,0,0,1-1.341-4.366,16.864,16.864,0,0,0,5.936,6.061,28.2,28.2,0,0,0,8.721,2.791l.005.026a43.154,43.154,0,0,0,.313,4.919c.605,3.156-3.213,17.344-3.954,18.825C486.582,201.18,487.542,203.553,487.6,203.7Z" transform="translate(-440.213 -144.523)"/><path class="ag" d="M428.667,224.422s1.38-.054,1.885,0l.505.054s-1.854-.928-2-.708S428.667,224.422,428.667,224.422Z" transform="translate(-423.351 -177.472)"/><path class="d" d="M497.642,277.494a7.557,7.557,0,0,1-1.038,1.3c-7.329,7.266-36.607,2.775-36.951-.391-.256-2.373,5.894-.683,15.346-9.817,1.471-1.419,2.7-2.749,3.756-3.99a31.874,31.874,0,0,0,6.2,9.076A13.405,13.405,0,0,0,497.642,277.494Z" transform="translate(-438.17 -197.021)"/><path class="f" d="M464.386,288.966,452.45,333.278l34.681-1.224v-1.341l1.255-37.686-1.255.344-1.793,37.746-30.6-.273,10.892-41.878Z" transform="translate(-434.728 -208.678)"/><path class="b" d="M477.024,290.429l1.348.428v.869h-1.685Z" transform="translate(-446.322 -209.378)"/></g><g transform="translate(126.648 35.42)"><path class="av" d="M289.523,281.4l.809,1.7a7.272,7.272,0,0,1-3.156,1.8c-2.086.61-2.546,0-2.546,0l-.522-1.08s-1.106-.453-.845-1.371l.261-.913s-2-2.155-4.606-5.243c-4.715-5.6-11.4-14.276-11.695-18.815-.037-.547-.063-1.059-.083-1.534a26.432,26.432,0,0,1,.13-4.522v0c.214-1.528.553-1.789.553-1.789s-1.753-.1-2.034-1.378c-.261-1.174.939-.964-.01-2.018,0,0-8.122-9.994-11.272-19.467a58.121,58.121,0,0,0-3.923-9.723,5.478,5.478,0,0,0-.793-1.184l.381-.814,2.874-6.129.4-.839,8.1,3.213,9.593,3.8s1.121,2.921,2.6,7.2c.986,2.864,2.139,6.338,3.208,9.947,2.671,9,2.89,13.562,2.973,14.866s-.24,9.259,1.784,16.04a116.16,116.16,0,0,0,6.259,15.257s1.627-.063,2.217.652S289.523,281.4,289.523,281.4Z" transform="translate(-246.145 -134.96)"/><path class="bj" d="M280.843,285.882a20.116,20.116,0,0,1,4.582,0,17.09,17.09,0,0,0,4.738-.116s-6.7,1.194-7.486,1.027S281.042,286.35,280.843,285.882Z" transform="translate(-260.999 -172.126)"/><path class="bk" d="M287.176,285.616c-2.086.61-2.546,0-2.546,0l-.522-1.08s-1.106-.453-.845-1.371l.261-.913s-2-2.155-4.606-5.243c-4.715-5.6-11.4-14.276-11.695-18.815-.037-.547-.063-1.059-.083-1.534a26.432,26.432,0,0,1,.13-4.522v0c.318-1.106.553-1.789.553-1.789s-1.753-.1-2.034-1.378c-.261-1.174.939-.964-.01-2.018,0,0-8.122-9.994-11.272-19.467a58.12,58.12,0,0,0-3.923-9.723l-.412-2-.381-1.857,3.046-4.329.209.057,8.5,2.374,9.593,3.8s1.121,2.921,2.6,7.2c0,0-6.447,2.123-8.826,7.078s6.447,16.154,7.751,17.25-.981,13.093,1.075,16.916,11.183,15.267,11.789,16.978-.809,2.322,0,3.454S287.176,285.616,287.176,285.616Z" transform="translate(-246.145 -135.677)"/><path class="bl" d="M313.771,222.337s2.374.159,3.863.2a33.61,33.61,0,0,1,5.432.563c1.368.325,3.742,1.285,3.863,1.607s.166.767-.682.727a11.163,11.163,0,0,0-1.33,0l.483.643a4.159,4.159,0,0,1-2.455.362c-1.167-.282-4.829.022-6.518.071s-3.722.854-4.617.774-1.951-2.471-1.951-2.471A9.067,9.067,0,0,1,313.771,222.337Z" transform="translate(-274.88 -141.782)"/><path class="ag" d="M332.568,227.42a14.977,14.977,0,0,0-3.159-1.811,26.7,26.7,0,0,0-4.024,0h-.543s3.641-.382,4.688-.463,3.359,1.614,3.359,1.614l-.8.017Z" transform="translate(-282.047 -143.125)"/><path class="bm" d="M286.053,365.484v1.207a13.879,13.879,0,0,1-6.236,1.521c-4.045.174-4.045-.786-6.3-.545a43.812,43.812,0,0,1-4.782.371c-1.521.01-1.228-1.739-1.228-1.739l9.3-1.478Z" transform="translate(-254.607 -209.944)"/><path class="bm" d="M316.3,367.655a3.132,3.132,0,0,0,.739,1.013c.347.2,4.651-.4,8.128.682s8.563.7,10.172.478a7.413,7.413,0,0,0,2.76-.961v-.821l-12.237-.391Z" transform="translate(-277.959 -211.3)"/><path class="bn" d="M245.492,201.9s-1.13,5.018-2.347,6.975,1.174,4.912,1.174,4.912-1.391.522-.87.826a13.44,13.44,0,0,0,1.386.652s.07,10.889,1.961,16.17,3.195,9.035,3.195,9.035-2.714.223-2.433,1.136,2.433,1.565,2.433,1.565-.848,11.736,0,17.018,5.477,19.3,5.477,19.3-1.369.727-.978,1.471,1.7.745,1.7.745l-.391,1.469a9.927,9.927,0,0,0,3.521,0,3.97,3.97,0,0,0,2.412-1.273l-.326-.941s.717-1.6.326-2.448a7.983,7.983,0,0,0-1.63-1.93s-.278-11.764.513-20.24.954-15.16.954-15.16a73.248,73.248,0,0,1-5.988-10.7,53.546,53.546,0,0,1-4.575-14.6s3.705-.329,6.835-.557l3.13-.228s-10.388-1.626-12.345-3.171,0-3.491.522-4.865l.522-1.374s9.519,3.937,12.323,6.239,5.8-.762,5.8-.762l.219-2.152-10.977-5.477L251,199.839Z" transform="translate(-242.8 -131.02)"/><path class="ag" d="M348.81,178.444s1.03,1.381,1.4,1.966-1.969,2.108-1.969,2.108-4.6-.712-4.437-2.269S348.81,178.444,348.81,178.444Z" transform="translate(-291.117 -120.785)"/><path class="bo" d="M333.343,179.216s4.047-2.34,5.747-3.2,2.09-1.114,3.037-1.086,3.12-.032,5.266,0,2.507-.1,2.675-.008-.235,2-1.728,1.877a23.406,23.406,0,0,0-6.771.2c-.5.139-2.117,1.811-1.95,2.145a3.7,3.7,0,0,0,1.95,1c.975.279,2.424.028,3.093.307s.558,1.365.307,1.449a17.118,17.118,0,0,1-4.736.223c-1.533-.279-1.588.077-3.427.094a9.456,9.456,0,0,1-3.439-.483C332.71,181.5,331.477,180.77,333.343,179.216Z" transform="translate(-285.642 -119.08)"/><path class="bp" d="M304.057,182.426a41.362,41.362,0,0,0,6.038,0c2.715-.261,2.128-.522,3.237-.522a2.517,2.517,0,0,1,1.5.319s-1.545,1.467-1.066,3.117a5.527,5.527,0,0,0,1.066,2.236s-.913,2.152-2.771,1.956a33.436,33.436,0,0,0-8.7.717c-2.934.652-9.548-.5-10.218-1.1s-.8-2.978-.8-2.978Z" transform="translate(-266.498 -122.44)"/><g transform="translate(26.863)"><path class="ae" d="M298.583,108.658l-4.283,3.6,4.053,3.081,3.355-1.951-1.279-5.335Z" transform="translate(-294.3 -87.109)"/><path class="bq" d="M325.088,90.146a20.614,20.614,0,0,0,.375,2.84,18.859,18.859,0,0,1-2.225,2.712c-.553.33-.632,4.495-1.191,5.563s-3.852,2.963-6,5.339-2.348,3.808-3.047,4.053-4.266-.458-5.457-2.622c-.123-.218-.251-.469-.386-.738-1.174-2.359-2.79-6.335-4.014-8.045-1.365-1.912,2.443-10.818,3.6-13.508s4.741-7.307,9.3-7.9,9.667,6.189,9.667,6.189c.906.738-.051,3.249-.458,4.96A4.334,4.334,0,0,0,325.088,90.146Z" transform="translate(-298.391 -72.64)"/><path class="ag" d="M316.715,128.689a2.911,2.911,0,0,0,1.108,1.775,3.519,3.519,0,0,0,2.276,0s-2.01,1.188-2.849.559S316.715,128.689,316.715,128.689Z" transform="translate(-304.998 -96.983)"/><path class="ag" d="M325.256,88.989l-.006.005s-.883-3.326-8.805-2.208-9.294,6.206-9.993,9.627a11.712,11.712,0,0,0,.187,6.553,24.954,24.954,0,0,1,.537,4.345l-.017-.017c-1.174-2.359-2.79-6.335-4.014-8.045-1.365-1.912,2.443-10.818,3.6-13.508s4.741-7.307,9.3-7.9,9.667,6.189,9.667,6.189C326.62,84.767,325.664,87.278,325.256,88.989Z" transform="translate(-298.391 -72.64)"/><path class="ag" d="M302.77,95.843s-1.118-4.939-4.519-4.426-1.008,8.345.559,9.081,2.749-.961,2.749-.961Z" transform="translate(-295.362 -79.134)"/><path class="ae" d="M302.8,98.986a5.684,5.684,0,0,0-.952-3.3,4.059,4.059,0,0,0-2.586-1.805,13.7,13.7,0,0,1,2.213,3.345C302.006,98.7,302.8,98.986,302.8,98.986Z" transform="translate(-296.671 -80.333)"/><path class="ae" d="M302.192,100.614s-.025,1.767-1.166,2.117a1.584,1.584,0,0,1-1.769-.769s1.374.885,1.875,0a3.853,3.853,0,0,0,.208-2.272Z" transform="translate(-296.671 -83.11)"/><path class="br" d="M329.435,80.7l-2.55-2.695a15.46,15.46,0,0,1,1.158,3.405A34.839,34.839,0,0,1,328,86.064s-.581.084-2.488-1.029c-.537-.313-1.186-.721-1.951-1.258-3.483-2.421-3.422-3.26-6.156-4.423a6.612,6.612,0,0,0-4.674-.419s.845,0,.917,1.258-2.331,2.885-4.333,4.282a7.344,7.344,0,0,0-2.645,3.344,8.658,8.658,0,0,1-.637-4.8s1.487-8.029,2.605-9.773c.732-1.146,3.885-2.622,6.971-3.673a30.981,30.981,0,0,1,4.45-1.219c3.533-.632,4.165-.419,4.165-.419L320.7,69.057s5.814,1.795,7.386,4.009C330.324,76.224,329.435,80.7,329.435,80.7Z" transform="translate(-299.854 -67.904)"/><path class="bs" d="M326.545,86.938l-1.034-.369c-.537-.313-1.186-.721-1.951-1.258-3.483-2.421-3.422-3.26-6.156-4.423a6.613,6.613,0,0,0-4.674-.419s.845,0,.917,1.258-2.331,2.885-4.333,4.282a7.344,7.344,0,0,0-2.645,3.344,8.658,8.658,0,0,1-.637-4.8s1.487-8.029,2.605-9.773c.732-1.146,3.885-2.622,6.971-3.673-.117,1.358-.078,3,.61,3.807,1.292,1.538,4.786.934,7.095,2.611a9.85,9.85,0,0,1,3.131,3.656c-.14-.184-1.241-1.549-4.523-2.588a21.84,21.84,0,0,0-5.412-1.163,23.4,23.4,0,0,1,5.417,4.708A33.252,33.252,0,0,0,326.545,86.938Z" transform="translate(-299.854 -69.438)"/><path class="br" d="M315.952,123.279a8.716,8.716,0,0,1-1.186,3.467c-.464.827-.934,1.5-1.157,1.985a1.673,1.673,0,0,0,0,1.677,4.061,4.061,0,0,1-2.035-1.023,5.636,5.636,0,0,1-.839-1.124,5.994,5.994,0,0,0,.766,1.655l.419.514a12.315,12.315,0,0,1-6.122-5.367c-2.588-4.266-1.677-7.727-2.728-10.2s-1.806-3.74-.71-6.748,1.912-4.925,1.912-4.925l1.454-.52s-1.258,4.752-.419,8.476c.156.7.33,1.381.514,2.012.777,2.7,1.705,4.629,2.387,4.886a3.868,3.868,0,0,0,1.99,0s1.085.693,1.443.57l.352-.123s.3,1.3,1.347,1.364,2.611-1.778,2.611-1.778A33.468,33.468,0,0,1,315.952,123.279Z" transform="translate(-297.899 -84.534)"/><path class="bs" d="M313.61,128.731a1.673,1.673,0,0,0,0,1.677,4.061,4.061,0,0,1-2.035-1.023,5.636,5.636,0,0,1-.839-1.124,5.994,5.994,0,0,0,.766,1.655l.419.514a12.315,12.315,0,0,1-6.122-5.367c-2.588-4.266-1.677-7.727-2.728-10.2s-1.806-3.74-.71-6.748,1.912-4.925,1.912-4.925l1.454-.52s-1.258,4.752-.419,8.476c.156.7.33,1.381.514,2.012a17.308,17.308,0,0,0,1.655,6.05,8.765,8.765,0,0,0,2.722,3.03s-2.2-.246-2.935-1.084l-.732-.839s.386,2.27,3.667,3.6a12.346,12.346,0,0,1,4.568,2.835C314.3,127.573,313.833,128.244,313.61,128.731Z" transform="translate(-297.899 -84.534)"/></g><path class="bp" d="M276.69,150.948a34.043,34.043,0,0,1-3.766,6.093c-1.732,2.306-3.208,3.948-3.046,4.188.282.423,1.935,1.471,1.867,2.645a3.556,3.556,0,0,1-1.372,2.149l-.5,4.372c-3.7.913-7-.72-12.284-4.758-.323-.25-.647-.475-.97-.678a12.729,12.729,0,0,0-2.931-1.419.019.019,0,0,0-.016-.005,10.687,10.687,0,0,0-6.317-.245,5.489,5.489,0,0,1-.652-2.06c.068-.683,2.738-3.093,2.738-3.093a13.619,13.619,0,0,1,0-1.758c.063-.981.72-.589,1.888-1.414s3.328-14.172,6.259-20.562,5.675-11.345,7.762-13.1a10.517,10.517,0,0,1,3.589-2.164l9.133,7.161S278.98,145.878,276.69,150.948Z" transform="translate(-244.667 -92.412)"/><path class="bt" d="M278.726,180.788c-1.732,2.306-3.208,3.948-3.046,4.188.282.423,1.935,1.471,1.867,2.645a3.556,3.556,0,0,1-1.372,2.149l-.5,4.372c-3.7.913-7-.72-12.284-4.758-.323-.25-.647-.475-.97-.678,2.352,1.1,5.378,2.394,6.176,2.242,1.356-.261.01-1.893-1.554-3.187-1.518-1.252-7.824-4.209-8.215-4.391a86.879,86.879,0,0,1,9.448,2.164c3.907,1.3,6.962,2.609,6.466,1.216s-2.545-2.781-2.274-3.913,3.38-6,2.858-7.214-4.695-5.388-1.914-5.33a9.079,9.079,0,0,0,4.971-1.518l1.247,7.521Z" transform="translate(-250.469 -116.159)"/><path class="ao" d="M304.271,169.646s-1.434,1.434-2.436,2.608a6.31,6.31,0,0,0-1.257,2.086s-2.306-.047-2.958-1.262.3-3.39.13-5-3.782-12.217-4.434-19-.261-21.714-.391-24.97a10.267,10.267,0,0,0-.61-3.218,7.077,7.077,0,0,0-1.8-2.8,3.864,3.864,0,0,1-1.168-1.888s1.8-3.25,2.41-3.187a11.986,11.986,0,0,1,4.084,2.722c.944,1.09,1.3,1.581,1.523,1.618a10.743,10.743,0,0,1,3.406,0,.066.066,0,0,1,.031.005,4.127,4.127,0,0,1,2.431,1.423,6.434,6.434,0,0,1,.616,2.817c.574,7.032-.835,24.057-.616,24.125.261.089.9,2.566.579,2.916a2.529,2.529,0,0,0-.579,1.346c-.042.433.48,10.6.433,13.171a6.655,6.655,0,0,0,.428,3.036,2.951,2.951,0,0,0,.965,1.1C306.055,168.034,304.271,169.646,304.271,169.646Z" transform="translate(-265.065 -89.488)"/><path class="bt" d="M302.4,121.248a8.662,8.662,0,0,0-5.483,1.061c-3,1.6-6.455,5.644-6.455,5.644s1.782-4.739,5.694-6.705S302.4,121.248,302.4,121.248Z" transform="translate(-265.601 -93.005)"/><path class="bu" d="M251.922,191.413a35.172,35.172,0,0,1,4.541,1l2.347.693-6.884-.693Z" transform="translate(-247.164 -126.989)"/><path class="bv" d="M307,173.568s-1.434,1.434-2.436,2.608a6.31,6.31,0,0,0-1.257,2.086S301,178.216,300.347,177s.3-3.391.13-5-3.782-12.217-4.434-19-.261-21.714-.391-24.97a10.267,10.267,0,0,0-.61-3.218s3.568-3.761,7.824-3.589a5.8,5.8,0,0,1,.626.058.066.066,0,0,1,.031.005,3.668,3.668,0,0,1,3.291,3.928s-.089.11-.245.312c-.918,1.185-4.241,5.493-6.494,8.549-2.639,3.578.271,15.962-.36,19.467s.5,12.019,2.238,14.194a7.516,7.516,0,0,0,4.861,2.384,2.951,2.951,0,0,0,.965,1.1C308.781,171.956,307,173.568,307,173.568Z" transform="translate(-267.792 -93.411)"/><path class="bc" d="M321.728,351.08s5,4.016,7.743,5.06,5.738,1.043,6.716,1.434,1.7,2.543,1.7,2.543a20.2,20.2,0,0,1-8.411.826,79.252,79.252,0,0,0-10.693-.913,5.294,5.294,0,0,1-2.7-.3c-.522-.218,0-6.145,0-6.145S320.332,353.475,321.728,351.08Z" transform="translate(-277.746 -203.371)"/><path class="bc" d="M273.229,355.351s5.216,3.158,7.172,3.745a17.77,17.77,0,0,0,4.369.456c.978.13,1.532,1.108,1.3,1.4a11.264,11.264,0,0,1-4.89,1.5c-2.608.294-6.194-.684-7.955-.358s-4.825.88-5.477.619.3-5.081.3-5.081S272.023,358.257,273.229,355.351Z" transform="translate(-254.627 -205.414)"/></g><g transform="translate(310.44 100.307)"><g transform="translate(0.838 7.068)"><path class="r" d="M598.689,217.11l-1.934-11.261h10.026l-1.715,11.34Z" transform="translate(-596.755 -205.85)"/><path class="s" d="M600.194,216.3a19.291,19.291,0,0,0,4.119-4.091,16.16,16.16,0,0,0,2.4-6.355h1.715l-1.715,11.339-6.363.007Z" transform="translate(-598.4 -205.85)"/><path class="bw" d="M598.151,213.888l8.672-.1-.4,2.659h-7.829Z" transform="translate(-597.423 -209.649)"/></g><path class="bx" d="M611.354,201.327l.883-4.931h.9l-1.088,4.931Z" transform="translate(-602.901 -194.259)"/><path class="bw" d="M599.928,204.071l-.29-1.939h.617l.392,1.939Z" transform="translate(-597.297 -197.003)"/><path class="bw" d="M612.689,199.368l1.378-7.068h.729l-1.318,7.068Z" transform="translate(-603.54 -192.3)"/><path class="bc" d="M596.715,200.041l-1.565-6.333h1.177L598,200.041Z" transform="translate(-595.15 -192.973)"/></g><g transform="translate(270.051)"><path class="u" d="M563.36,33.972,529.9,35.748l-12.174.648s.95-20.315,19.862-21.843c.742-.067,1.51-.1,2.31-.1.209,0,.417,0,.627.009a24.819,24.819,0,0,1,11.41,2.736C562.006,22.575,563.36,33.972,563.36,33.972Z" transform="translate(-517.722 -6.916)"/><path class="u" d="M558.888,7.543l-.156.005-2.942.167.005-.078L556.5,0h2.071Z" transform="translate(-535.932)"/><path class="by" d="M551.933,10.286s-2.379-.083-11.392,4.695a21.294,21.294,0,0,0-10.646,13.854l-12.175.647s.955-20.317,19.863-21.845L538.293,0h2.071l.313,7.543-.157.005A24.819,24.819,0,0,1,551.933,10.286Z" transform="translate(-517.72)"/></g><g transform="translate(106.966)"><path class="u" d="M247.692,37.738l-31.174-1.044-11.451-.382s2.416-20.217,21.315-21.941c.56-.053,1.106-.08,1.634-.089a16.162,16.162,0,0,1,10.229,3.136C246.817,23.81,247.692,37.738,247.692,37.738Z" transform="translate(-205.067 -6.831)"/><path class="u" d="M246.994,7.543l-.156.005-1.481-.005L244.73,0h1.951l.308,7.454Z" transform="translate(-224.041)"/><path class="by" d="M238.245,10.589c-1.737,1.132-4.429,2.994-8.549,6.056A70.517,70.517,0,0,0,216.52,29.863l-11.449-.381s2.415-20.218,21.313-21.939L225.757,0h1.951l.308,7.454A16.13,16.13,0,0,1,238.245,10.589Z" transform="translate(-205.068)"/></g><g transform="translate(193.814 22.818)"><g transform="translate(8.853 8.745)"><path class="bz" d="M415.069,81.662a18.5,18.5,0,0,0,.88-6.913,15.833,15.833,0,0,0-1.754-6.629l-.445-.732-.223-.365-.259-.341L412.754,66l-.581-.625-.29-.312-.322-.281-.643-.559-.7-.491c-.117-.08-.229-.167-.349-.243l-.371-.209c-.248-.137-.493-.282-.743-.414l-.779-.346c-.13-.056-.257-.122-.391-.168l-.4-.134c-.27-.088-.538-.184-.81-.265l-.832-.19-.416-.094-.424-.056-.847-.113L403,61.462a14.953,14.953,0,0,0-1.709.023c-.286,0-.565.066-.849.1-.281.045-.568.057-.844.129a13.209,13.209,0,0,0-1.648.435c-.268.1-.545.166-.8.282l-.78.344a6.354,6.354,0,0,0-.755.393c-.243.146-.5.264-.734.432a11.939,11.939,0,0,0-1.354,1.033,12.579,12.579,0,0,0-2.248,2.56,15.1,15.1,0,0,0-2.254,6.463,19.218,19.218,0,0,0,.48,6.956,18.27,18.27,0,0,1-.936-7,15.064,15.064,0,0,1,2.1-6.815,2.833,2.833,0,0,1,.245-.381l.263-.369.264-.37.133-.184.15-.171.606-.678a2.793,2.793,0,0,1,.321-.321l.337-.306a12.856,12.856,0,0,1,1.426-1.13c.243-.183.517-.316.776-.477a7.01,7.01,0,0,1,.8-.435l.829-.379c.277-.126.572-.2.856-.307a14.176,14.176,0,0,1,1.755-.475c.294-.077.6-.094.9-.143.3-.033.6-.1.9-.106a15.474,15.474,0,0,1,1.814-.035c.3.016.6.026.907.046l.9.125.45.063.443.1.885.21c.291.088.576.192.864.287l.431.147c.143.052.278.122.417.182l.83.376c.269.142.526.3.79.455l.393.232c.127.083.246.177.37.266l.734.539.677.61.336.306.3.339.606.679.531.738.263.37.225.394.447.789a15.737,15.737,0,0,1,1.566,6.953,17.3,17.3,0,0,1-.322,3.539A16.779,16.779,0,0,1,415.069,81.662Z" transform="translate(-388.536 -60.51)"/><path class="bz" d="M417.664,101.061c-.777,1.511-1.527,3.032-2.19,4.585-.333.776-.647,1.555-.909,2.352s-.508,1.606-.767,2.42a17.112,17.112,0,0,1-.926,2.425,7.63,7.63,0,0,1-1.523,2.2,6.786,6.786,0,0,1-1.056.86c-.2.114-.4.218-.6.327-.1.052-.2.111-.3.157l-.315.12-.631.237-.647.16a9.114,9.114,0,0,1-1.3.227,15.867,15.867,0,0,1-5.216-.269,8.3,8.3,0,0,1-2.466-1.018,6.248,6.248,0,0,1-1.924-1.871,8.712,8.712,0,0,1-1.094-2.4,23.708,23.708,0,0,1-.566-2.512c-.148-.837-.286-1.67-.489-2.487a18.028,18.028,0,0,0-.783-2.411,14.9,14.9,0,0,1,1.031,2.338c.281.81.476,1.644.689,2.464a12.977,12.977,0,0,0,1.808,4.586,5.451,5.451,0,0,0,.8.886,5.531,5.531,0,0,0,.955.706,7.457,7.457,0,0,0,2.242.855,13.812,13.812,0,0,0,2.437.3c.414.007.828.019,1.239-.01a10.77,10.77,0,0,0,1.228-.088,8.262,8.262,0,0,0,1.2-.2l.589-.139.561-.208.282-.1c.09-.04.175-.091.263-.136.174-.094.351-.182.523-.279a6.631,6.631,0,0,0,2.332-2.661,19.808,19.808,0,0,0,.969-2.293c.294-.791.557-1.6.883-2.4s.68-1.576,1.067-2.336A43.663,43.663,0,0,1,417.664,101.061Z" transform="translate(-391.131 -79.909)"/></g><path class="bz" d="M403.806,107.7c.43-2.464.816-4.933,1.058-7.413.127-1.238.221-2.479.244-3.715a14.054,14.054,0,0,0-.289-3.625,4.58,4.58,0,0,0-.289-.814,2.668,2.668,0,0,0-.439-.687,1.317,1.317,0,0,0-1.281-.477,1.066,1.066,0,0,0-.844.916.885.885,0,0,0,0,.15c0-.009,0-.022,0-.016a.615.615,0,0,0,.206.11,3.346,3.346,0,0,0,.8.143,16.778,16.778,0,0,0,3.625-.252,29.707,29.707,0,0,0,3.6-.811c.588-.172,1.169-.365,1.732-.588a8.679,8.679,0,0,0,1.585-.8,2.609,2.609,0,0,0,.594-.519,1.106,1.106,0,0,0,.219-.616,1.776,1.776,0,0,0-.591-1.315,1.388,1.388,0,0,0-1.295-.417,1.71,1.71,0,0,0-.973,1.075,6.181,6.181,0,0,0-.387,1.707,14.451,14.451,0,0,0-.057,1.82c.252,4.979.365,9.994.371,14.993L410.26,91.589a13.8,13.8,0,0,1,.02-1.925,6.949,6.949,0,0,1,.416-1.942,3.336,3.336,0,0,1,.533-.924,2.069,2.069,0,0,1,.958-.658,1.966,1.966,0,0,1,1.18.018,2.73,2.73,0,0,1,1.852,2.574,2.008,2.008,0,0,1-.4,1.123,3.458,3.458,0,0,1-.8.722,9.567,9.567,0,0,1-1.752.9c-.6.24-1.2.445-1.813.627a28.759,28.759,0,0,1-3.717.824,17.593,17.593,0,0,1-3.842.24,3.9,3.9,0,0,1-1.035-.208,1.35,1.35,0,0,1-.577-.385.873.873,0,0,1-.184-.44,1.745,1.745,0,0,1,0-.318,1.8,1.8,0,0,1,.505-1.093,2.013,2.013,0,0,1,1.024-.569,1.991,1.991,0,0,1,1.16.1,2.347,2.347,0,0,1,.905.658,4.268,4.268,0,0,1,.867,1.851,9.792,9.792,0,0,1,.226,1.931c.02.638,0,1.272-.03,1.9-.071,1.262-.227,2.51-.408,3.752s-.425,2.472-.679,3.7S404.134,106.493,403.806,107.7Z" transform="translate(-385.69 -63.986)"/><path class="bz" d="M407.165,146.23a8.189,8.189,0,0,0,2.144.683,11.675,11.675,0,0,0,2.14.172,12.645,12.645,0,0,0,2.142-.193,9.6,9.6,0,0,0,2.162-.662,3.935,3.935,0,0,1-1.861,1.594,6.127,6.127,0,0,1-2.436.506,6.017,6.017,0,0,1-2.443-.487A3.748,3.748,0,0,1,407.165,146.23Z" transform="translate(-388.595 -92.772)"/><ellipse class="ca" cx="9.075" cy="5.427" rx="9.075" ry="5.427" transform="translate(13.713 10.535)"/><path class="p" d="M400.126,67.742c-1.522-1.568-6.393,4.35-5.085,6.679S402.065,69.739,400.126,67.742Z" transform="translate(-382.69 -55.1)"/><path class="p" d="M393.768,86.044c-1.669.307-1.383,5.219,0,5.124S395.436,85.738,393.768,86.044Z" transform="translate(-381.638 -63.974)"/><g transform="translate(35.416 3.922)"><path class="bz" d="M440.032,58.557c2.918-2.371,6.1-4.437,8.932-6.907.206-.179-.056-.474-.279-.361a44.669,44.669,0,0,0-9.116,6.806c-.319.284.142.722.463.462Z" transform="translate(-439.462 -51.264)"/></g><g transform="translate(21.026)"><path class="bz" d="M412.9,48.9a20.147,20.147,0,0,0-.592-5,.221.221,0,0,0-.431.058c-.006,1.649.2,3.295.226,4.945a.4.4,0,0,0,.8,0Z" transform="translate(-411.875 -43.745)"/></g><g transform="translate(41.598 21.369)"><path class="bz" d="M451.621,86.737a32.143,32.143,0,0,0,5.433-1.612c.253-.115.054-.442-.173-.41a31.963,31.963,0,0,0-5.393,1.54.251.251,0,0,0,.133.483Z" transform="translate(-451.313 -84.712)"/></g><g transform="translate(0.577 12.158)"><path class="bz" d="M377.6,68.424a44.042,44.042,0,0,0-4.569-1.365c-.3-.065-.524.369-.221.523a45.11,45.11,0,0,0,4.507,1.866c.634.24.935-.807.283-1.024Z" transform="translate(-372.671 -67.053)"/></g><g transform="translate(0 31.661)"><path class="bz" d="M378.494,104.494a34.216,34.216,0,0,0-6.887,4.871c-.116.11.036.315.173.225,2.334-1.533,4.648-3.1,7.1-4.435.432-.236.044-.9-.387-.661Z" transform="translate(-371.565 -104.443)"/></g><g transform="translate(38.95 33.833)"><path class="bz" d="M446.746,108.8l-.023-.075a.165.165,0,0,0-.2-.112c-.176.037-.213.082-.274.25a.29.29,0,0,0,.131.324,18.227,18.227,0,0,0,6.929,2.554c.247.034.465-.315.189-.448-2.212-1.065-4.668-1.81-6.974-2.659q.043.165.087.33l-.064-.015a.134.134,0,0,0,.2-.15Z" transform="translate(-446.237 -108.606)"/></g></g><g transform="translate(251.877 42.561)"><path class="bz" d="M485.381,92.531c-.026-.013-2.544-1.322-2.5-3.894a6.018,6.018,0,0,1,2.256-3.969,13.353,13.353,0,0,1,10.154-3.009c5.11.461,7.622,2.529,8.829,4.183a7.5,7.5,0,0,1,1.31,6.042,8.637,8.637,0,0,1-3.611,4.933l-.152-.245a8.5,8.5,0,0,0,3.481-4.751,7.209,7.209,0,0,0-1.262-5.81c-1.172-1.606-3.62-3.615-8.622-4.066a13.066,13.066,0,0,0-9.936,2.936,5.742,5.742,0,0,0-2.161,3.76,4.409,4.409,0,0,0,2.346,3.633Z" transform="translate(-482.878 -81.594)"/><g transform="translate(1.99 1.086)"><path class="bz" d="M491.494,97.156a8.156,8.156,0,0,1-4.348-3.687,4.371,4.371,0,0,1-.073-3.737,9.609,9.609,0,0,1,5.387-5.284c5.936-2.115,10.712.563,12.328,2.748,1.565,2.115,1.495,5.628.955,7.337-.141.445-.385,1-.755,1.124-.547.183-.973-.228-1.466-.7a3.343,3.343,0,0,0-2.2-1.2c-.775-.037-1.385.589-2.091,1.313-1,1.024-2.129,2.185-4.119,1.908-2.629-.366-5.574-1.7-6.3-2.857a.825.825,0,0,1-.139-.7.548.548,0,0,1,.4-.4c.939-.23,2.983,1.766,3.213,1.995a3.512,3.512,0,0,0,2.38.829,3.25,3.25,0,0,0,2.352-.982c.889-.923,1.113-2.056.757-2.494-.207-.255-.607-.227-1.1.079a4.547,4.547,0,0,0-1.338,1.37c-.411.583-.766,1.085-1.6.587a.851.851,0,0,1-.368-.986,4.925,4.925,0,0,1,3.67-3c1.111-.117,2.371.745,3.59,1.579a6.912,6.912,0,0,0,2.913,1.451.766.766,0,0,0,.769-.556c.54-1.277-.159-4.479-1.528-5.773a1.859,1.859,0,0,0-1.652-.661.61.61,0,0,0-.436.463,1.538,1.538,0,0,0,.637,1.346c1.649,1.5,2,2.135,1.729,3.075a.512.512,0,0,1-.532.359A4.586,4.586,0,0,1,499.2,89.09c-.7-1.886-1.587-3.917-3.177-4.151a6.819,6.819,0,0,0-5.7,2.019c-2.379,2.169-2.414,3.915-2.369,4.4.027.282.362.3,1.122.264a3,3,0,0,1,2.575.7c.239.278.452.4.654.39.41-.03.8-.648,1.217-1.3a10.977,10.977,0,0,1,.677-.987,2.814,2.814,0,0,1,2.555-.709,2.058,2.058,0,0,0,1.075-.088c.087-.063.115-.243.078-.492a4.519,4.519,0,0,0-2.405-3.073c-.653-.226-1.892.183-3.315,1.093a6.453,6.453,0,0,0-2.458,2.285c-.025.251.175.376.351.438a2.152,2.152,0,0,0,2.289-.979c.752-1.167,1.594-2.2,2.656-1.888a.32.32,0,0,1,.252.23c.057.249-.229.523-.738.987-.484.439-1.146,1.042-.988,1.391.037.081.076.127.119.135.164.032.514-.3.824-.593a4.074,4.074,0,0,1,1.36-.98,1.15,1.15,0,0,1,1.566.632l-.273.091c-.026-.077-.286-.748-1.2-.449a3.881,3.881,0,0,0-1.251.915c-.429.406-.768.727-1.077.666a.468.468,0,0,1-.326-.3c-.245-.54.447-1.169,1.057-1.723.259-.235.65-.59.651-.708,0,0-.011-.005-.03-.012l-.023-.008c-.711-.211-1.387.3-2.333,1.768a2.423,2.423,0,0,1-2.625,1.094.712.712,0,0,1-.542-.738c.059-.585,1.378-1.724,2.59-2.5.718-.46,2.5-1.489,3.564-1.123a4.79,4.79,0,0,1,2.6,3.3c.07.467-.066.675-.193.768a2.1,2.1,0,0,1-1.261.143,2.561,2.561,0,0,0-2.314.6,10.705,10.705,0,0,0-.658.961c-.455.717-.884,1.394-1.44,1.435a1.107,1.107,0,0,1-.892-.49,2.784,2.784,0,0,0-2.344-.6c-.7.03-1.366.059-1.421-.524-.049-.516-.016-2.378,2.461-4.638a7.1,7.1,0,0,1,5.939-2.091c1.746.257,2.673,2.372,3.4,4.335a4.312,4.312,0,0,0,3.052,2.428c.224-.008.255-.113.267-.152.219-.746,0-1.278-1.647-2.781a1.783,1.783,0,0,1-.724-1.622.9.9,0,0,1,.633-.675,2.1,2.1,0,0,1,1.934.727c1.365,1.29,2.23,4.593,1.6,6.094a1.049,1.049,0,0,1-1.047.731,6.917,6.917,0,0,1-3.062-1.5c-1.176-.8-2.392-1.636-3.4-1.531a4.659,4.659,0,0,0-3.419,2.776.563.563,0,0,0,.235.677c.6.361.793.089,1.212-.506a4.794,4.794,0,0,1,1.421-1.448c.89-.556,1.326-.2,1.473-.016.438.54.267,1.793-.774,2.875a3.532,3.532,0,0,1-2.556,1.07,3.76,3.76,0,0,1-2.586-.913c-1.033-1.027-2.415-2.048-2.941-1.92a.264.264,0,0,0-.194.2.559.559,0,0,0,.109.457c.613.973,3.268,2.332,6.1,2.725,1.846.257,2.923-.848,3.874-1.823.722-.742,1.405-1.442,2.31-1.4a3.625,3.625,0,0,1,2.39,1.278c.491.475.811.761,1.175.639.192-.064.406-.415.572-.938.522-1.652.593-5.045-.912-7.079a8.941,8.941,0,0,0-4.583-2.928,11.909,11.909,0,0,0-7.417.28,9.3,9.3,0,0,0-5.215,5.115,4.094,4.094,0,0,0,.055,3.5c2.251,4.053,6.909,4.446,9.306,4.039a8.283,8.283,0,0,0,3.894-2.062,3.237,3.237,0,0,1,1.564-.93c1.095-.035,1.877,2.233,1.962,2.492l-.273.091c-.214-.646-.935-2.319-1.681-2.295-.351.011-.81.388-1.39.864a8.533,8.533,0,0,1-4.028,2.123A10.286,10.286,0,0,1,491.494,97.156Z" transform="translate(-486.694 -83.676)"/><g transform="translate(13.094 8.389)"><path class="bz" d="M514.336,107.174c-.7-.265-.88-.818-1.1-1.5a8.551,8.551,0,0,0-.387-1.038c-.316-.68-.564-.815-.685-.835a.2.2,0,0,0-.162.041l-.208-.2a.479.479,0,0,1,.417-.127c.313.052.616.388.9,1a8.819,8.819,0,0,1,.4,1.071c.24.752.384,1.206,1.159,1.387a.526.526,0,0,0,.448-.125c.907-.685,1.62-3.532,1.695-5.115l.093-1.976.287.014-.093,1.976c-.079,1.676-.823,4.586-1.808,5.331a.808.808,0,0,1-.688.175A2.233,2.233,0,0,1,514.336,107.174Z" transform="translate(-511.797 -99.759)"/></g><g transform="translate(3.772 10.579)"><path class="bz" d="M504.791,109.3a7.612,7.612,0,0,1-1.446-.739,5.976,5.976,0,0,1-1.744-1.879,4.63,4.63,0,0,0-2.559-2.173,6.647,6.647,0,0,0-4.967.625l-.148-.247a6.818,6.818,0,0,1,5.208-.65,4.92,4.92,0,0,1,2.7,2.284,5.744,5.744,0,0,0,1.661,1.8,5.292,5.292,0,0,0,3.231,1.035l.039.285A4.414,4.414,0,0,1,504.791,109.3Z" transform="translate(-493.926 -103.957)"/></g><g transform="translate(11.595 14.643)"><path class="bz" d="M509.722,116.65l-.246-.15c.425-.7,1.373-2.627.675-3.172a3.6,3.6,0,0,1-1.228-1.487l.272-.092a3.419,3.419,0,0,0,1.133,1.353C511.352,113.9,509.892,116.371,509.722,116.65Z" transform="translate(-508.923 -111.749)"/></g><g transform="translate(13.361 15.931)"><path class="bz" d="M512.5,117.314l-.2-.211a5.135,5.135,0,0,0,.9-1.238,1.176,1.176,0,0,0-.028-1.437l.2-.21a1.437,1.437,0,0,1,.086,1.781A5.31,5.31,0,0,1,512.5,117.314Z" transform="translate(-512.308 -114.218)"/></g></g></g><g transform="translate(107.139 39.538)"><path class="bz" d="M233.494,91c.035-.018,3.536-1.837,3.478-5.41-.028-1.714-1.2-3.775-3.135-5.516a18.556,18.556,0,0,0-14.11-4.18c-7.1.641-10.591,3.515-12.268,5.813a10.418,10.418,0,0,0-1.821,8.4,12,12,0,0,0,5.017,6.855l.211-.34c-.039-.024-3.914-2.467-4.837-6.6a10.016,10.016,0,0,1,1.754-8.073c1.629-2.231,5.029-5.023,11.981-5.651a18.157,18.157,0,0,1,13.806,4.08c1.854,1.667,2.977,3.621,3,5.225.054,3.326-3.226,5.03-3.259,5.047Z" transform="translate(-205.399 -75.798)"/><g transform="translate(1.853 1.509)"><path class="bz" d="M229.236,97.422a11.334,11.334,0,0,0,6.041-5.124,6.074,6.074,0,0,0,.1-5.193,13.351,13.351,0,0,0-7.486-7.343c-8.248-2.939-14.885.782-17.13,3.818-2.174,2.939-2.077,7.821-1.327,10.2.2.618.536,1.391,1.049,1.562.76.254,1.352-.318,2.036-.98a4.646,4.646,0,0,1,3.062-1.664c1.077-.051,1.924.818,2.9,1.824,1.387,1.423,2.959,3.036,5.724,2.651,3.653-.509,7.745-2.364,8.757-3.97a1.147,1.147,0,0,0,.194-.971.76.76,0,0,0-.556-.55c-1.305-.32-4.145,2.454-4.464,2.771a4.886,4.886,0,0,1-3.307,1.153,4.518,4.518,0,0,1-3.269-1.364c-1.235-1.284-1.547-2.857-1.053-3.466.287-.355.843-.315,1.523.11a6.32,6.32,0,0,1,1.86,1.9c.571.81,1.065,1.509,2.217.816a1.181,1.181,0,0,0,.512-1.37c-.359-1.623-2.9-3.936-5.1-4.168-1.543-.162-3.295,1.036-4.988,2.194-1.412.966-2.872,1.965-4.047,2.016a1.064,1.064,0,0,1-1.069-.773c-.751-1.775.22-6.223,2.123-8.021a2.58,2.58,0,0,1,2.3-.918.849.849,0,0,1,.607.643,2.139,2.139,0,0,1-.886,1.87c-2.292,2.089-2.786,2.967-2.4,4.273a.712.712,0,0,0,.74.5c1.217.044,3.885-1.636,4.629-3.633.977-2.62,2.206-5.444,4.414-5.768,1.905-.28,4.827-.02,7.925,2.806,3.305,3.015,3.355,5.439,3.291,6.111-.037.392-.5.413-1.559.367-1.179-.051-2.646-.115-3.578.969-.331.385-.629.562-.908.542-.571-.041-1.115-.9-1.691-1.809a15.3,15.3,0,0,0-.941-1.372c-.911-1.136-2.375-1.053-3.551-.986a2.867,2.867,0,0,1-1.493-.123c-.121-.088-.161-.337-.108-.684.2-1.308,1.628-3.679,3.342-4.27.907-.313,2.629.255,4.606,1.519,1.951,1.247,3.366,2.675,3.416,3.176.035.349-.243.522-.488.608a2.988,2.988,0,0,1-3.18-1.359c-1.045-1.621-2.215-3.061-3.691-2.623a.446.446,0,0,0-.351.32c-.079.346.318.727,1.026,1.371.672.611,1.594,1.448,1.373,1.933-.051.113-.106.177-.166.187-.227.045-.715-.416-1.145-.823a5.65,5.65,0,0,0-1.89-1.362,1.6,1.6,0,0,0-2.176.878l.379.126c.037-.106.4-1.04,1.673-.624A5.4,5.4,0,0,1,224.8,86.6c.6.564,1.067,1.01,1.5.925a.649.649,0,0,0,.453-.415c.34-.751-.621-1.624-1.468-2.394-.36-.327-.9-.821-.9-.984a.407.407,0,0,0,.042-.017l.033-.011c.988-.293,1.927.418,3.241,2.456a3.366,3.366,0,0,0,3.648,1.521.991.991,0,0,0,.754-1.025c-.081-.813-1.915-2.4-3.6-3.473-1-.638-3.48-2.069-4.952-1.56-1.877.651-3.392,3.152-3.606,4.589-.1.649.092.938.268,1.067a2.92,2.92,0,0,0,1.752.2c1.141-.065,2.434-.139,3.217.837a14.8,14.8,0,0,1,.914,1.335c.632,1,1.228,1.938,2,1.994a1.537,1.537,0,0,0,1.241-.681c.8-.936,2.165-.877,3.257-.829.975.042,1.9.082,1.974-.728.068-.718.023-3.3-3.42-6.445-3.214-2.931-6.261-3.2-8.253-2.906-2.426.357-3.714,3.3-4.731,6.024-.669,1.794-3.133,3.413-4.241,3.374-.311-.011-.354-.157-.37-.212-.3-1.036,0-1.776,2.289-3.865a2.478,2.478,0,0,0,1.007-2.253,1.248,1.248,0,0,0-.88-.938,2.909,2.909,0,0,0-2.686,1.01c-1.9,1.793-3.1,6.382-2.217,8.467a1.459,1.459,0,0,0,1.455,1.017c1.289-.056,2.73-1.042,4.255-2.085,1.634-1.118,3.323-2.274,4.721-2.127,2.018.212,4.426,2.388,4.751,3.857a.782.782,0,0,1-.327.94c-.836.5-1.1.124-1.684-.7a6.655,6.655,0,0,0-1.975-2.012c-1.237-.772-1.842-.273-2.046-.022-.609.751-.371,2.492,1.076,3.995A4.908,4.908,0,0,0,224.832,96a5.225,5.225,0,0,0,3.592-1.269c1.436-1.427,3.356-2.846,4.087-2.667a.365.365,0,0,1,.27.283.775.775,0,0,1-.15.636c-.852,1.352-4.542,3.24-8.475,3.787-2.565.357-4.062-1.179-5.383-2.534-1-1.03-1.953-2-3.21-1.944a5.038,5.038,0,0,0-3.322,1.777c-.682.66-1.126,1.056-1.632.887-.268-.089-.564-.576-.794-1.3-.726-2.3-.824-7.01,1.267-9.837a12.426,12.426,0,0,1,6.368-4.068,16.544,16.544,0,0,1,10.307.389A12.922,12.922,0,0,1,235,87.247a5.687,5.687,0,0,1-.076,4.857c-3.128,5.633-9.6,6.179-12.931,5.613a11.522,11.522,0,0,1-5.411-2.865,4.494,4.494,0,0,0-2.173-1.291c-1.522-.049-2.608,3.1-2.727,3.462l.379.126c.3-.9,1.3-3.221,2.335-3.188.489.016,1.126.538,1.932,1.2a11.86,11.86,0,0,0,5.6,2.95A14.3,14.3,0,0,0,229.236,97.422Z" transform="translate(-208.951 -78.692)"/><g transform="translate(1.259 11.656)"><path class="bz" d="M215.336,111.342c.978-.368,1.224-1.136,1.526-2.082a11.808,11.808,0,0,1,.537-1.442c.438-.945.784-1.133.951-1.161a.278.278,0,0,1,.225.057l.29-.276a.666.666,0,0,0-.579-.176c-.435.071-.856.538-1.25,1.387a12.211,12.211,0,0,0-.555,1.488c-.334,1.044-.533,1.675-1.611,1.926a.731.731,0,0,1-.623-.173c-1.259-.951-2.251-4.908-2.355-7.107l-.129-2.747-.4.019.129,2.746c.11,2.329,1.143,6.372,2.513,7.407a1.123,1.123,0,0,0,.955.244A2.973,2.973,0,0,0,215.336,111.342Z" transform="translate(-211.364 -101.038)"/></g><g transform="translate(3.865 14.699)"><path class="bz" d="M219.111,114.3a10.573,10.573,0,0,0,2.01-1.027,8.3,8.3,0,0,0,2.423-2.612,6.435,6.435,0,0,1,3.556-3.019c3.423-1.168,6.868.848,6.9.868l.205-.344a9.477,9.477,0,0,0-7.237-.9,6.839,6.839,0,0,0-3.758,3.174,7.972,7.972,0,0,1-2.309,2.5,7.347,7.347,0,0,1-4.49,1.439l-.053.4A6.134,6.134,0,0,0,219.111,114.3Z" transform="translate(-216.361 -106.872)"/></g><g transform="translate(8.388 20.347)"><path class="bz" d="M226.377,124.509l.341-.208c-.589-.97-1.908-3.651-.938-4.408a5,5,0,0,0,1.706-2.066l-.378-.129a4.742,4.742,0,0,1-1.574,1.879C224.112,120.689,226.141,124.122,226.377,124.509Z" transform="translate(-225.032 -117.699)"/></g><g transform="translate(6.433 22.137)"><path class="bz" d="M222.968,125.432l.272-.293a7.135,7.135,0,0,1-1.257-1.721,1.634,1.634,0,0,1,.039-2l-.273-.292a2,2,0,0,0-.119,2.475A7.378,7.378,0,0,0,222.968,125.432Z" transform="translate(-221.284 -121.13)"/></g></g></g><path class="b" d="M64.294,322.6l1.04-1.393-1.04-38.365h-.231Z" transform="translate(-30.647 -135.309)"/><path class="bz" d="M400,129l1.608,7.418s1.732,1.685,6.026,1.685c5.1,0,6.136-1.88,6.136-1.88l2.006-7.53A19.154,19.154,0,0,1,400,129Z" transform="translate(-191.354 -61.563)"/><path class="a" d="M401.249,133.256a38.506,38.506,0,0,0,8.64.11c4.3-.589,6.121-2.059,6.121-2.059l-.52,1.949a13.564,13.564,0,0,1-6.861,2.107,26.112,26.112,0,0,1-7-.375Z" transform="translate(-191.951 -62.815)"/><path class="a" d="M402.512,140.87a23.572,23.572,0,0,0,6.079,1.1c3.043,0,4.955-.632,5.346-.419s-1.742,1.474-4.848,1.517a25.988,25.988,0,0,1-6.28-.826Z" transform="translate(-192.555 -67.39)"/><g transform="translate(168.904 23.283)"><g transform="translate(0.619)"><path class="bz" d="M326.426,52.539a1.177,1.177,0,0,1-.393-.067c-1.1-.39-1.367-2.4-.6-4.581s2.241-3.578,3.343-3.189a1.849,1.849,0,0,1,1.015,1.716,7.475,7.475,0,0,1-1.893,5.357A2.189,2.189,0,0,1,326.426,52.539Zm1.962-7.381c-.729,0-1.811,1.07-2.46,2.906-.717,2.03-.434,3.663.279,3.916.356.125.838-.083,1.324-.573a6.288,6.288,0,0,0,1.354-2.3h0a6.287,6.287,0,0,0,.391-2.638c-.071-.686-.315-1.152-.67-1.277A.646.646,0,0,0,328.388,45.158Z" transform="translate(-324.995 -44.637)"/></g><g transform="translate(1.666 0.085)"><path class="bz" d="M346.4,57.122l-5.142-.128L327,52.553l.155-.5,14.218,4.43,4.09.094-1.948-3.266-14-8.062.26-.452,14.114,8.13Z" transform="translate(-327.003 -44.8)"/></g><g transform="translate(15.992 8.805)"><path class="bz" d="M354.759,64.963l-.292-.433a5.594,5.594,0,0,0,1.285-1.274,4.194,4.194,0,0,0,.612-1.737l.52.049a4.693,4.693,0,0,1-.7,1.985A6.04,6.04,0,0,1,354.759,64.963Z" transform="translate(-354.467 -61.518)"/></g><g transform="translate(19.154 10.986)"><rect class="bz" width="1.161" height="0.522" transform="matrix(0.532, -0.847, 0.847, 0.532, 0, 0.983)"/></g><g transform="translate(3.592 6.318)"><rect class="bz" width="0.522" height="13.086" transform="translate(0 0.489) rotate(-69.443)"/></g><g transform="translate(4.644 4.322)"><rect class="bz" width="0.522" height="14.114" transform="translate(0 0.474) rotate(-65.211)"/></g><g transform="translate(5.044 2.506)"><rect class="bz" width="0.522" height="8.096" transform="matrix(0.442, -0.897, 0.897, 0.442, 0, 0.468)"/></g><g transform="translate(0 0.296)"><path class="bz" d="M325.088,51.4a1.059,1.059,0,0,1-.359-.061c-.937-.331-1.2-1.924-.6-3.627a4.97,4.97,0,0,1,1.181-1.929,1.343,1.343,0,0,1,2.453.867,5.432,5.432,0,0,1-1.474,4.171A1.812,1.812,0,0,1,325.088,51.4Zm1.432-5.674a1.335,1.335,0,0,0-.849.435,4.444,4.444,0,0,0-1.048,1.724c-.53,1.5-.278,2.765.28,2.962a1.1,1.1,0,0,0,1.03-.405,4.916,4.916,0,0,0,1.316-3.724c-.068-.513-.268-.863-.547-.962A.535.535,0,0,0,326.52,45.728Z" transform="translate(-323.809 -45.205)"/></g></g><g transform="translate(318.679 64.506)"><g transform="translate(15.927)"><path class="bz" d="M644.365,131.07c-.983,0-2.083-1.308-2.61-3.175a6.27,6.27,0,0,1-.212-2.659c.141-.835.513-1.378,1.047-1.528a1.716,1.716,0,0,1,1.692.757,6.274,6.274,0,0,1,1.207,2.379c.578,2.053.212,3.892-.835,4.188A1.064,1.064,0,0,1,644.365,131.07Zm-1.481-6.881a.561.561,0,0,0-.152.021c-.324.091-.571.5-.674,1.113a5.733,5.733,0,0,0,.2,2.431c.525,1.862,1.615,2.958,2.255,2.774s1-1.682.474-3.544a5.749,5.749,0,0,0-1.1-2.177A1.5,1.5,0,0,0,642.884,124.189Z" transform="translate(-641.481 -123.666)"/></g><g transform="translate(0 0.044)"><path class="bz" d="M615.146,132.447l-4.2-.5,3.925-3.964.061-.019,13.041-4.212.16.5-12.981,4.192-3.085,3.115,3.085.368,14.8-1.363.048.52Z" transform="translate(-610.946 -123.751)"/></g><g transform="translate(3.392 4.483)"><path class="bz" d="M617.976,135.951a4.328,4.328,0,0,1-.526-1.872,5.6,5.6,0,0,1,.322-1.818l.488.185a5.113,5.113,0,0,0-.288,1.628,3.841,3.841,0,0,0,.457,1.617Z" transform="translate(-617.45 -132.261)"/></g><g transform="translate(1.396 6.983)"><rect class="bz" width="0.521" height="1.065" transform="translate(0 0.028) rotate(-3.07)"/></g><g transform="translate(4.507 1.842)"><rect class="bz" width="12.012" height="0.522" transform="matrix(0.968, -0.252, 0.252, 0.968, 0, 3.026)"/></g><g transform="translate(3.664 3.896)"><rect class="bz" width="12.956" height="0.522" transform="matrix(0.983, -0.182, 0.182, 0.983, 0, 2.353)"/></g><g transform="translate(9.73 5.48)"><rect class="bz" width="7.432" height="0.521" transform="translate(0 1.162) rotate(-8.996)"/></g><g transform="translate(17.353 0.667)"><path class="bz" d="M646.536,130.753a1.632,1.632,0,0,1-1.15-.611,4.584,4.584,0,0,1-.972-1.846h0a4.583,4.583,0,0,1-.135-2.082,1.447,1.447,0,0,1,.913-1.232c.888-.249,1.94.812,2.395,2.42s.111,3.063-.779,3.314A1,1,0,0,1,646.536,130.753Zm-1.078-5.286a.461.461,0,0,0-.124.017c-.254.071-.452.375-.544.833a4.059,4.059,0,0,0,.126,1.838h0a4.069,4.069,0,0,0,.853,1.634c.317.342.646.5.9.426.513-.144.811-1.277.418-2.67C646.722,126.257,645.974,125.467,645.458,125.467Z" transform="translate(-644.214 -124.945)"/></g></g><g transform="translate(180.092 67.297)"><g transform="translate(1.247 10.659)"><path class="bz" d="M356.423,157.01h0l-6.343-.113a.261.261,0,0,1-.048-.516l.654-.134c-3.34-1.609-3.027-6.374-3.024-6.425a.261.261,0,0,1,.257-.241l10.559-.129a.251.251,0,0,1,.262.235s.012.118.02.324c1.012-.215,2.221-.236,2.831.624a2.148,2.148,0,0,1,.385,1.963,3.687,3.687,0,0,1-2.412,2,14.956,14.956,0,0,1-2.313.526,4.523,4.523,0,0,1-1.515,1.13l.77.244a.261.261,0,0,1-.079.51Zm-4.542-.6,2.863.051a.253.253,0,0,1-.07-.14.256.256,0,0,1,.178-.29,4.12,4.12,0,0,0,2.06-1.314.261.261,0,0,1,.163-.09c.372-.053.866-.137,1.4-.264-.337.071-.643.119-.885.152a.261.261,0,0,1-.258-.392,7.21,7.21,0,0,0,.887-3.142.261.261,0,0,1,.186-.233c.706-.21,1.978-.44,2.554.372a1.609,1.609,0,0,1,.289,1.488,2.159,2.159,0,0,1-.9,1.068,2.468,2.468,0,0,0,1.125-1.24,1.632,1.632,0,0,0-.316-1.5c-.53-.747-1.854-.538-2.6-.346a.26.26,0,0,1-.326-.252c0-.144,0-.267-.008-.363l-10.063.123c-.014,1.03.153,5.077,3.532,5.969a.262.262,0,0,1,.179.34Zm6.844-5.21a8.007,8.007,0,0,1-.694,2.718,9.793,9.793,0,0,0,1.262-.308h0a2.216,2.216,0,0,0,1.46-1.166,1.115,1.115,0,0,0-.219-1.021C360.175,150.913,359.25,151.063,358.726,151.2Z" transform="translate(-347.648 -149.45)"/></g><g transform="translate(0 2.155)"><rect class="bz" width="0.522" height="6.282" transform="matrix(0.921, -0.39, 0.39, 0.921, 0, 0.204)"/></g><g transform="translate(7.076)"><rect class="bz" width="0.522" height="8.04"/></g><g transform="translate(10.944 2.103)"><rect class="bz" width="7.179" height="0.522" transform="matrix(0.593, -0.805, 0.805, 0.593, 0, 5.783)"/></g></g><g transform="translate(287.549 33.178)"><path class="bz" d="M563.723,83.75H559.26l-.807-2.6L555.9,82.487l-3.157-3.156,1.265-2.406-2.746-.861V71.6l2.6-.807-1.334-2.55,3.156-3.156,2.406,1.265.861-2.747h4.463l.807,2.6,2.55-1.334,3.156,3.156-1.265,2.406,2.747.86v4.463l-2.6.806,1.334,2.551-3.157,3.156L564.584,81Zm-4.079-.522h3.7l.933-2.978,2.62,1.378,2.613-2.614-1.446-2.765,2.826-.878v-3.7l-2.978-.933,1.377-2.62-2.613-2.614-2.766,1.446-.878-2.826h-3.7l-.933,2.978-2.62-1.378-2.613,2.614,1.446,2.766-2.827.878v3.7l2.978.933-1.378,2.62L556,81.848l2.765-1.446Zm1.692-3.556a5.994,5.994,0,1,1,5.994-5.994A6,6,0,0,1,561.336,79.672Zm0-11.467a5.473,5.473,0,1,0,5.473,5.473A5.479,5.479,0,0,0,561.336,68.205Z" transform="translate(-551.265 -63.606)"/><g transform="translate(19.432 9.626)"><path class="bz" d="M595.988,94.049H593.22l-.457-1.469-1.445.756-1.958-1.957.716-1.362-1.557-.488V86.761l1.469-.456-.756-1.446,1.957-1.957,1.361.716.488-1.557h2.768l.457,1.469,1.446-.756,1.958,1.958-.716,1.362,1.557.488v2.768l-1.469.457.756,1.446-1.958,1.957-1.362-.716Zm-2.384-.522h2l.56-1.789,1.575.829,1.415-1.415-.868-1.661,1.7-.528v-2L598.2,86.4l.828-1.575-1.415-1.415-1.66.868-.528-1.7h-2l-.56,1.789-1.576-.828-1.414,1.415.868,1.66-1.7.529v2l1.788.56L590,91.282l1.415,1.415,1.661-.868Zm.909-1.861a3.612,3.612,0,1,1,3.612-3.612A3.616,3.616,0,0,1,594.513,91.667Zm0-6.7a3.09,3.09,0,1,0,3.09,3.091A3.094,3.094,0,0,0,594.513,84.964Z" transform="translate(-588.519 -82.06)"/></g></g><g transform="translate(59.309 24.907)"><path class="cb" d="M154.94,340.087v1.452a11.846,11.846,0,0,1,5.216,3.025c1.913,2.174,2.7,3.173,4.825,3.608a22.26,22.26,0,0,0,5.607,0v-.991l-6.961-1.965-7.557-5.607Z" transform="translate(-133.43 -187.37)"/><path class="cb" d="M193.69,362.609l.609,1.282a7.434,7.434,0,0,1,4.286,1.587c2.017,1.608,2.887,2.738,5.756,3s8.215-2.934,8.215-2.934v-1.108l-9.041-.652Z" transform="translate(-151.967 -198.373)"/><path class="cc" d="M148.862,150.079c-.584,1.732-.965,2.733-.965,2.733s1.784.261,1.956,1.069-1.085,1.627-1.085,1.627,2.519,4.413,2.326,4.8-3.067,2.937-9.2,5.154a24.694,24.694,0,0,1-8.993,1.121c-3.443-.136-6.181-.767-6.4-1.121-.391-.652-1.3-4.3-.918-5.675s1.387-7.1,1.45-8.236.553-13.995.365-16.394c-.057-.668-.11-1.377-.156-2.05-.115-1.758-.2-3.286-.2-3.286s-.276-2.347-3.625-4.131a23.48,23.48,0,0,0-8.257-2.045,1.091,1.091,0,0,1-.652-1.476c.292-.73.981-1.148,2.718-2.29.84-.548,1.92-1.268,3.323-2.274a64.824,64.824,0,0,0,5.858-4.731l.235-.219c.423-.391.7-.668.829-.793l.073-.068.01-.01s4.778,3.516,8.774,3.891,4.929-2.462,4.929-2.462l.047.016c.13.037.558.167,1.137.313.313.078.673.162,1.059.24.485.1,1.8.188,3.3.276a51.561,51.561,0,0,1,5.748.459c.824.308.3,1.94.3,1.94a21.2,21.2,0,0,0-2.274,3.823c-.516,1.429,4.491,6.124,2.321,15.575-.84,3.651-1.773,7.005-2.613,9.754C149.754,147.382,149.258,148.9,148.862,150.079Z" transform="translate(-114.041 -78.381)"/><path class="cd" d="M160.022,171.936c.172.8-1.085,1.627-1.085,1.627A31.672,31.672,0,0,0,149.131,177c-5.607,2.869-6.035,7.266-6.056,7.642-3.443-.136-6.181-.767-6.4-1.121-.391-.652-1.3-4.3-.918-5.675s1.387-7.1,1.45-8.236.553-13.995.365-16.394c-.057-.668-.11-1.377-.156-2.05l.287-1.638a12.616,12.616,0,0,0,3.709,4.032c2.389,1.58,8.085,7.047,11.439,7.892,2.483.621,5.962,1.7,7.6,2.217-.532,1.773-1.028,3.291-1.424,4.47a22.4,22.4,0,0,0-8.581,2.019c-4.121,2.019-4.053,3.516-1.9,3.714S160.022,171.936,160.022,171.936Z" transform="translate(-124.21 -96.435)"/><path class="ce" d="M153.195,103.582v1.21a4.254,4.254,0,0,1-.2.407h0a4.874,4.874,0,0,1-1.267,1.461c-1.034.782-3.743,1.174-6.513-.433a33.876,33.876,0,0,0-5.849-2.6l.806-5.78.2-1.44a15.922,15.922,0,0,0-.517-3.683Z" transform="translate(-125.975 -69.263)"/><path class="ae" d="M153.643,103.582v1.21a4.252,4.252,0,0,1-.2.407h0c-.176.047-4.725,1.189-7.434,0-2.756-1.215-4.326-5.665-4.715-6.145a5.65,5.65,0,0,1-.673-1.2v-.01l.2-1.44a15.922,15.922,0,0,0-.517-3.683Z" transform="translate(-126.423 -69.263)"/><path class="cf" d="M158.93,76.315c.005.631-1.2,3.469-1.758,5.832s.047,5.56-.631,6.244-4.356,1.043-5.461.751a.016.016,0,0,1-.01-.005,39.214,39.214,0,0,0-5.435-1.56c-1.987-.261-6.781-10.813-6.979-11.262s1.664-8.92,3.328-10.516,8.638-3.291,10.625-3.359c2.838-.089,5.148,2.937,5.148,2.937s.245.741.5,1.581l.005.005a18.61,18.61,0,0,1,.542,2.066c.13.892.245,1.408-.136,1.6s-.647,2.321-.485,3.229S158.924,75.684,158.93,76.315Z" transform="translate(-125.632 -54.776)"/><path class="ce" d="M143.8,76.872c.454,2.817,1.657,8.071,2.575,9.563.892,1.445,4.46,2.629,4.684,2.7a39.216,39.216,0,0,0-5.435-1.56c-1.987-.261-6.781-10.813-6.979-11.262s1.043-9.181,2.707-10.778,9.259-3.03,11.246-3.1c2.838-.089,5.148,2.937,5.148,2.937s.245.741.5,1.581a16.362,16.362,0,0,0-10.187.005C142.983,68.83,143.346,74.06,143.8,76.872Z" transform="translate(-125.627 -54.776)"/><path class="ce" d="M134.229,90.115s-3.537-2.773-6.1-1.551,3.651,6.812,5.19,6.812c1.635,0,2.179-2.249,2.179-2.249Z" transform="translate(-120.31 -67.125)"/><path class="ae" d="M135.409,94.072A15.269,15.269,0,0,0,132,92.393a4.557,4.557,0,0,0-2.021-.343,26.507,26.507,0,0,1,2.7,1.327A5.012,5.012,0,0,0,135.409,94.072Z" transform="translate(-121.49 -68.934)"/><path class="ae" d="M137.229,95.411s.583,1.32,0,1.842-1.539,0-1.539,0,1.35.115,1.2-.8-.535-1.037-.535-1.037Z" transform="translate(-124.221 -70.55)"/><path class="cg" d="M154.335,59.325a4.829,4.829,0,0,0,1.226.683,12.5,12.5,0,0,1-4.272-.756,12.347,12.347,0,0,1-1.565-.7c-2.931-1.575-7.037-1.737-9.353-.6a27.849,27.849,0,0,0-4.794,3.265,1.725,1.725,0,0,1,1.534,1.987c-.068,1.888-.819,4.084-.944,6.64a20.26,20.26,0,0,1-.219,2.765l-3.719-3.255s-3.391-4.689-3.735-7.078,1.93-5.54,5.274-9.019c1.893-1.961,2.843-2.921,3.568-3.557a.016.016,0,0,0,.005-.01,16.847,16.847,0,0,1,1.6-1.231,4.413,4.413,0,0,1,3.13-.652,5.7,5.7,0,0,0-2.446.955c-.814.72-.683.944-.683.944a22.189,22.189,0,0,1,7.459-1.3c3.657.13,5.018,1.142,5.018,1.142l-2.4.13s3.74,1.372,5.049,3.391,1.372,3.62,2.285,4.533a1.982,1.982,0,0,0,1.586.725,16.968,16.968,0,0,1-3.594.23l-1.09-.172S153.83,58.9,154.335,59.325Z" transform="translate(-120.762 -47.749)"/><path class="bi" d="M151.289,61.043a12.347,12.347,0,0,1-1.565-.7c-2.931-1.575-7.037-1.737-9.353-.6a27.849,27.849,0,0,0-4.794,3.265A1.725,1.725,0,0,1,137.112,65c-.068,1.888-.819,4.084-.944,6.64a20.26,20.26,0,0,1-.219,2.765l-3.719-3.255s-3.391-4.689-3.735-7.078,1.93-5.54,5.274-9.019c1.893-1.961,2.843-2.921,3.568-3.557-.1.162-1.727,2.812-2.7,4.668-1.012,1.914,1.685.009,6.16-1.206a10.863,10.863,0,0,1,7.793.893,9.73,9.73,0,0,0-5.357.183c-1.82.8-2.165.944-2.227.975.3-.073,4.5-1.075,6.734.558A17.883,17.883,0,0,1,151.289,61.043Z" transform="translate(-120.762 -49.539)"/><path class="ch" d="M158.412,157.184a9.754,9.754,0,0,1-2.478.162,9.954,9.954,0,0,1-2.921-1.56h-.005l-.01-.01-.042-.026s-.021.042-.063.13a76.5,76.5,0,0,1-4.329,7.694c-2.561,3.954-8.779,8.518-9.864,8.826s-2.306,1.257-3.87.652-7.433-5.607-7.433-5.607,3.046-6.567,8.262-9.259c.459-.235.949-.464,1.461-.683,5.31-2.311,13.056-3.808,13.969-4.4,1-.652,3.022-.78,4.2-.827a21.577,21.577,0,0,1,4.475.435C160.02,152.879,158.412,157.184,158.412,157.184Z" transform="translate(-120.253 -97.749)"/><path class="ce" d="M184.6,162.387a33,33,0,0,1-.845,4.11c-.417,1.492-.991,2.926-1.737,3.391-1.742,1.085-7.694,1.132-11.606.913a29.011,29.011,0,0,1-6.4-1,41.034,41.034,0,0,0,3.85-5.451c1.455-2.624,2.259-4.173,2.259-4.173a32.358,32.358,0,0,1,4.095-.391h.005c.636-.031,1.335-.047,2.092-.047C180.448,159.737,184.6,162.387,184.6,162.387Z" transform="translate(-137.767 -101.325)"/><path class="ci" d="M193.374,162.387a33,33,0,0,1-.845,4.11,3.568,3.568,0,0,1-2.931,0c-2.509-1.32-7.24-6.353-7.24-6.353a4.471,4.471,0,0,1,.631-.355h.005c.636-.031,1.335-.047,2.092-.047C189.227,159.737,193.374,162.387,193.374,162.387Z" transform="translate(-146.545 -101.325)"/><path class="ce" d="M152.894,159.192a76.5,76.5,0,0,1-4.329,7.694c-2.561,3.954-8.779,8.518-9.864,8.826s-2.306,1.257-3.87.652-7.433-5.607-7.433-5.607,3.046-6.567,8.262-9.259c.459-.235.949-.464,1.461-.683a19.4,19.4,0,0,0-.485,5.738c.323,2.5,7.781-5.056,10.829-4.121.855,1.279-3.265,4.418-3.265,5.445C144.2,168.862,151.8,160.3,152.894,159.192Z" transform="translate(-120.253 -101.061)"/><path class="ce" d="M176.5,158.952l-.005.031h-.005l-.01-.01Z" transform="translate(-143.733 -100.947)"/><path class="ae" d="M167.814,170.678a61.147,61.147,0,0,0,3.852-7.281,15.047,15.047,0,0,0,1.132-3.406l-2.683.308a105.573,105.573,0,0,1-6.108,9.624S167.079,170.591,167.814,170.678Z" transform="translate(-137.767 -101.444)"/><path class="cj" d="M115.087,134.442a75.432,75.432,0,0,0-.755,10.345,17.948,17.948,0,0,0,1.32,6.477s-1.814,1.088-1.32,1.8,2.711.325,3.754,1.586.956,3.252,1.7,4.1a2.928,2.928,0,0,0,2.121.784s1.682-5.295,3.673-7.044a34.136,34.136,0,0,1,3.121-2.506,76.464,76.464,0,0,1-1.369-9.421C127.127,136.7,118.607,133.79,115.087,134.442Z" transform="translate(-113.962 -89.178)"/><path class="ck" d="M154.422,118.193s-4.126.908-7.334-.522-9.671-4.8-9.671-4.8l.235-.219.829-.793.073-.068.01-.01s4.778,3.516,8.774,3.891,4.929-2.462,4.929-2.462l.047.016,1.137.308v.005a3.728,3.728,0,0,1-.72,1.314,8.776,8.776,0,0,1-2.525,1.617l1.08.652A12.617,12.617,0,0,0,154.422,118.193Z" transform="translate(-125.047 -78.381)"/><path class="ck" d="M142.857,131.276a46.592,46.592,0,0,1,6.564,3.912,6.808,6.808,0,0,0,5.086,1.347s-2.506,1.522-6.556-.565S142.857,131.276,142.857,131.276Z" transform="translate(-127.649 -87.707)"/><path class="ck" d="M162.524,128.335s1.912,0,4.651-2.3a43.3,43.3,0,0,0,4.434-4.26s-1.782,4.39-4.542,6.042S162.524,128.335,162.524,128.335Z" transform="translate(-137.058 -83.162)"/><path class="ap" d="M114.44,132.921s6.347-.073,9.15,2.04a11.165,11.165,0,0,1,3.539,3.811s-2.861-3.225-6.4-4.044a41.113,41.113,0,0,0-5.555-.97A1.5,1.5,0,0,1,114.44,132.921Z" transform="translate(-114.055 -88.494)"/><path class="ap" d="M114.4,165.092a19.825,19.825,0,0,1,3.77-3.332,25.125,25.125,0,0,1,4.738-2.809s-6.015,1.526-8.476,3.745C112.8,164.167,114.4,165.092,114.4,165.092Z" transform="translate(-113.702 -100.947)"/><path class="cl" d="M149.387,114.056c-.073.151-1.288,2.619-2.692,5.414-1.455,2.885-12.188,5.8-16.1,4.463s-5.892-1.511-7.717-2.377a27.815,27.815,0,0,1-3.062-1.68l10.318-8.085.01-.01s4.778,3.516,8.774,3.891,4.929-2.462,4.929-2.462l.047.016c.13.037.558.167,1.137.313.313.078.673.162,1.059.24C146.576,113.879,147.9,113.968,149.387,114.056Z" transform="translate(-116.627 -78.381)"/><path class="ae" d="M180.861,152.183a1.854,1.854,0,0,1,.78,1.554v2.47l1.174-.1.43-3.8A5.47,5.47,0,0,0,180.861,152.183Z" transform="translate(-145.83 -97.66)"/><path class="cm" d="M185.865,120.745a27.748,27.748,0,0,1,5.477,7.1,31.408,31.408,0,0,1,3.3,8.959s.913.043,1.174.739-1.26,2.7-.739,3.547,1.538,1.843.769,2.756a2.412,2.412,0,0,1-1.967.78s-.953-1.33-3.942-2.388a21.267,21.267,0,0,0-5.9-1.123s-1-.9-.451-1.322,1.722-2.837,1.951-5.607-2.208-8.27-2.116-9.574S185.865,120.745,185.865,120.745Z" transform="translate(-147.054 -82.669)"/><path class="ck" d="M183.742,147.737s.886-1.214,4.32-2.6,4.52-1,4.912-1.561-2.086-.739-3.825-.565a5.374,5.374,0,0,0-2.406.652,37.75,37.75,0,0,1,1.636-3.955,9.05,9.05,0,0,1,1.551-2.347s-3.18,2.611-3.845,4.086S183.742,147.737,183.742,147.737Z" transform="translate(-147.208 -90.617)"/><path class="ck" d="M185.937,117.676a10.85,10.85,0,0,0-1.791,2.508,4.272,4.272,0,0,0-.538,3.437,10.251,10.251,0,0,1,2.277-4.344S186.291,118.017,185.937,117.676Z" transform="translate(-147.074 -81.201)"/><path class="b" d="M162.583,206.315s9.282,22.039,10.325,30.907-14.736,29.732-15.192,30.189.6,1.867.339,2.585-2.165.936-2.165.936v2.217a11.154,11.154,0,0,1-3.586-.652c-1.63-.652-1.7-1.434-1.7-1.434l.522-1.108s-1.5-1.174-.978-2.152,2.738-1.043,2.738-1.043.2-15,2.739-19.887,5.281-6.129,5.281-6.129-1.434-1.369-.978-1.956,1.566-.261,1.566-.261l-1.957-17.539s1.369-3.782,1.174-4.564-1.565-.978-1.956-2.412-.717-2.14-1.434-2.178-4.108,1.852-8.672,2.309a21.877,21.877,0,0,1-8.15-.717l-.386-2.24Z" transform="translate(-126.339 -123.604)"/><path class="cn" d="M172.363,284.621l.595,2a7.371,7.371,0,0,1-4.809,1.2l-.584-1.179s-2.806.522-2.937-.908a1.737,1.737,0,0,1,1.236-1.826s-8.09-9.587-11.277-13.958-3.391-17.015-3.391-17.015-2.024-.261-2.217-.913,2.217-3,2.217-3-2.738-6-6.911-13.239c-4.162-7.219-4.168-20.108-4.168-20.171l.016.005a57.506,57.506,0,0,0,9.019,2.107c3,.219,6.781-2.478,8-2.113s1.565,1.2,2.128,2.373a13.338,13.338,0,0,0,1.654,2.347c.563.824-.61,5.127-.61,5.127s1.132,7.3,2.259,15.043.61,11.225.61,11.225,0,1.2,1.043,8.857c.563,4.116,2.446,10.057,4.058,14.668l.005.005h.005c1.388,3.954,2.582,6.927,2.582,6.927a7.964,7.964,0,0,1,1.369.936C172.976,283.726,172.363,284.621,172.363,284.621Z" transform="translate(-126.339 -128.035)"/><path class="co" d="M169.715,229.52c.093.364-4.8-.11-8.874-1.252-3.687-1.034-1.739,1.043,1.217,1.912s7.378,2.276,7.378,2.276Z" transform="translate(-135.287 -133.971)"/><path class="co" d="M172.363,284.652l.595,2a7.371,7.371,0,0,1-4.809,1.2l-.584-1.179s-2.806.522-2.937-.908a1.737,1.737,0,0,1,1.236-1.826s-8.09-9.587-11.277-13.958-3.391-17.015-3.391-17.015-2.024-.261-2.217-.913,2.217-3,2.217-3-2.738-6-6.911-13.239c-4.162-7.219-4.168-20.108-4.168-20.171l.016.005a57.507,57.507,0,0,0,9.019,2.107s-1.867,11.695-1.476,15.5,5.738,12.67,6.129,14.5-2.191,1.732-1.226,4,2.128,9.175,3.959,14.652c1.8,5.393,11.455,8.784,11.757,8.888l.005.005h.005c1.388,3.954,2.582,6.927,2.582,6.927a7.967,7.967,0,0,1,1.369.936C172.976,283.757,172.363,284.652,172.363,284.652Z" transform="translate(-126.339 -128.066)"/><path class="bm" d="M198.194,352.247s5.094,2.666,7.616,3.971,4.651,1.261,5.651,1.7a1.871,1.871,0,0,1,1.043,1.565s-6.781,3.912-10.693,2.391-3.564-3-5.259-3.477-2.738-.391-2.913-.739a14.6,14.6,0,0,1,.431-4.431S196.839,353.228,198.194,352.247Z" transform="translate(-151.915 -193.416)"/><path class="bm" d="M158.1,331.683a12.9,12.9,0,0,0-2.417,2.482,6.2,6.2,0,0,0-.739,2.13,12.933,12.933,0,0,1,4.695,2.955c1.7,1.913,2.335,3.193,4.1,4.139s6.852,0,6.852,0-.261-2.053-1.217-2.487a8.3,8.3,0,0,1-3.086-1.565c-1-1-3.7-4.464-3.695-5.347l.008-.883A8.121,8.121,0,0,1,158.1,331.683Z" transform="translate(-133.43 -183.578)"/><path class="ap" d="M125.763,172.813a15.894,15.894,0,0,1,3.309-5.825c2.314-2.4,4.341-4.074,4.341-4.074l.792.742a21.9,21.9,0,0,0-6.794,9.55A3.4,3.4,0,0,1,125.763,172.813Z" transform="translate(-119.472 -102.842)"/><path class="cp" d="M134.184,156.485s-1.054-2.086-3.054-1.478-3.564,1.95-3.607,2.819.956.7,2.043.267a20.066,20.066,0,0,1,1.956-.672,15.339,15.339,0,0,0-2.423,2.1c-.228.489.629,1.076,1.537.75l.908-.326s-.294.848.684.815,3-2.925,3.489-2.929l.489,0A8.187,8.187,0,0,0,134.184,156.485Z" transform="translate(-120.313 -99.006)"/><path class="cq" d="M144.349,160.95c.033-.489-1.594-1-2.8-.579a2.288,2.288,0,0,0-1.5,2.343c.223.428,1.054.521,1.576-.348S144.349,160.95,144.349,160.95Z" transform="translate(-126.282 -101.551)"/><path class="ce" d="M133.491,162.382a33.755,33.755,0,0,1,2.752-2.44l.9-.624-2.738,2.738Z" transform="translate(-123.169 -101.121)"/><path class="ce" d="M130.317,159.338a20.206,20.206,0,0,1,2.5-1.88,4.433,4.433,0,0,1,2.434-.353l.271.418a5.82,5.82,0,0,0-2.662.937Z" transform="translate(-121.65 -100.044)"/></g></svg>